<?xml version="1.0" encoding="UTF-8"?>
<svg width="286px" height="234px" viewBox="0 0 286 234" version="1.1" xmlns="http://www.w3.org/2000/svg" xmlns:xlink="http://www.w3.org/1999/xlink">
    <!-- Generator: Sketch 49.2 (51160) - http://www.bohemiancoding.com/sketch -->
    <title>logo</title>
    <desc>Created with Sketch.</desc>
    <defs>
        <polygon id="path-1" points="0.000606375858 0.514206727 141.944705 0.514206727 141.944705 166.861175 0.000606375858 166.861175"></polygon>
        <polygon id="path-3" points="0 234.759626 284.966334 234.759626 284.966334 1.21275172 0 1.21275172"></polygon>
    </defs>
    <g id="Page-1" stroke="none" stroke-width="1" fill="none" fill-rule="evenodd">
        <g id="Homepage-mockup" transform="translate(-70.000000, -93.000000)">
            <g id="logo" transform="translate(70.371702, 92.187500)">
                <path d="M124.510793,67.8254439 L108.075582,67.8254439 C98.9993481,67.8254439 91.6403707,75.1844213 91.6403707,84.2618679 C91.6403707,93.336889 98.9993481,100.695866 108.075582,100.695866 L124.510793,100.695866 C133.587027,100.695866 140.947217,93.336889 140.947217,84.2618679 C140.947217,75.1844213 133.587027,67.8254439 124.510793,67.8254439" id="Fill-1" fill="#F44B00"></path>
                <g id="Group-5" transform="translate(0.000000, 0.698545)">
                    <mask id="mask-2" fill="white">
                        <use xlink:href="#path-1"></use>
                    </mask>
                    <g id="Clip-4"></g>
                    <path d="M141.944705,16.9505095 C141.944705,7.87427562 134.584515,0.514085452 125.509494,0.514085452 L61.2603338,0.514085452 C52.1841,0.514085452 44.8239098,7.87427562 44.8239098,16.9505095 L44.8239098,67.1268989 L16.4358176,67.1268989 C7.35958379,67.1268989 0.000606375858,74.4858764 0.000606375858,83.5633229 C0.000606375858,92.638344 7.35958379,99.9985342 16.4358176,99.9985342 L44.8239098,99.9985342 L44.8239098,150.425963 C44.8239098,159.502197 52.1841,166.861175 61.2603338,166.861175 C70.3365676,166.861175 77.695545,159.502197 77.695545,150.425963 L77.695545,33.3857207 L125.509494,33.3857207 C134.584515,33.3857207 141.944705,26.0255305 141.944705,16.9505095" id="Fill-3" fill="#F44B00" mask="url(#mask-2)"></path>
                </g>
                <mask id="mask-4" fill="white">
                    <use xlink:href="#path-3"></use>
                </mask>
                <g id="Clip-7"></g>
                <path d="M171.999725,199.603167 L178.785071,199.603167 L178.785071,177.02173 L171.999725,177.02173 L171.999725,199.603167 Z M171.315733,170.977375 C171.315733,168.754401 173.140924,166.92921 175.363898,166.92921 C177.588085,166.92921 179.412063,168.754401 179.412063,170.977375 C179.412063,173.201562 177.588085,175.02554 175.363898,175.02554 C173.140924,175.02554 171.315733,173.201562 171.315733,170.977375 Z M161.335999,188.312448 C161.335999,184.948275 159.056026,182.781088 155.976849,182.781088 C152.897673,182.781088 150.616487,184.891276 150.616487,188.312448 C150.616487,191.676621 152.897673,193.843809 155.976849,193.843809 C159.056026,193.843809 161.335999,191.676621 161.335999,188.312448 Z M168.122558,167.955198 L168.122558,199.603167 L161.335999,199.603167 L161.335999,197.492979 C159.854016,199.204171 157.62983,200.230159 154.607652,200.230159 C148.677297,200.230159 143.831141,195.040795 143.831141,188.312448 C143.831141,181.584102 148.734296,176.393524 154.607652,176.393524 C157.62983,176.393524 159.854016,177.420725 161.335999,179.131918 L161.335999,167.955198 L168.122558,167.955198 Z M134.706397,188.312448 C134.706397,184.948275 132.425211,182.781088 129.346034,182.781088 C126.266858,182.781088 123.985672,184.891276 123.985672,188.312448 C123.985672,191.676621 126.266858,193.843809 129.346034,193.843809 C132.425211,193.843809 134.706397,191.676621 134.706397,188.312448 Z M141.491743,177.02173 L141.491743,199.603167 L134.706397,199.603167 L134.706397,197.492979 C133.224414,199.204171 131.000228,200.230159 127.97805,200.230159 C122.047694,200.230159 117.200326,195.040795 117.200326,188.312448 C117.200326,181.584102 122.104694,176.393524 127.97805,176.393524 C131.000228,176.393524 133.224414,177.420725 134.706397,179.131918 L134.706397,177.02173 L141.491743,177.02173 Z M108.076795,188.312448 C108.076795,184.948275 105.795609,182.781088 102.716432,182.781088 C99.6372555,182.781088 97.3560695,184.891276 97.3560695,188.312448 C97.3560695,191.676621 99.6372555,193.843809 102.716432,193.843809 C105.795609,193.843809 108.076795,191.676621 108.076795,188.312448 Z M114.862141,167.955198 L114.862141,199.603167 L108.076795,199.603167 L108.076795,197.492979 C106.594812,199.204171 104.370625,200.230159 101.348448,200.230159 C95.4180922,200.230159 90.5707236,195.040795 90.5707236,188.312448 C90.5707236,181.584102 95.4750916,176.393524 101.348448,176.393524 C104.370625,176.393524 106.594812,177.420725 108.076795,179.131918 L108.076795,167.955198 L114.862141,167.955198 Z" id="Fill-6" fill="#04111d" mask="url(#mask-4)"></path>
                <path d="M74.3231251,211.779315 L78.485289,211.779315 L78.485289,218.222665 L74.3231251,218.222665 L74.3231251,234.132755 L67.5947786,234.132755 L67.5947786,218.222665 L64.6283879,218.222665 L64.6283879,211.779315 L67.5947786,211.779315 C67.5947786,205.506963 71.0147384,201.799581 78.4282896,202.199789 L78.4282896,208.643139 C75.9761057,208.415142 74.3231251,209.213133 74.3231251,211.779315" id="Fill-8" fill="#04111d" mask="url(#mask-4)"></path>
                <path d="M96.6760796,222.955792 C96.6760796,219.762617 94.451893,217.709428 91.5437143,217.709428 C88.6355357,217.709428 86.4113491,219.819616 86.4113491,222.955792 C86.4113491,226.091968 88.6355357,228.202156 91.5437143,228.202156 C94.451893,228.202156 96.6760796,226.148968 96.6760796,222.955792 M79.6830026,222.955792 C79.6830026,216.284445 84.9293665,211.15208 91.5437143,211.15208 C98.1010629,211.15208 103.404426,216.284445 103.404426,222.955792 C103.404426,229.62714 98.1580622,234.759505 91.5437143,234.759505 C84.9863658,234.759505 79.6830026,229.62714 79.6830026,222.955792" id="Fill-9" fill="#04111d" mask="url(#mask-4)"></path>
                <path d="M127.183213,211.779315 L127.183213,234.132755 L120.454866,234.132755 L120.454866,232.022567 C119.256668,233.67676 117.033694,234.759747 114.068516,234.759747 C109.563143,234.759747 105.742975,231.565359 105.742975,225.522218 L105.742975,211.779315 L112.471322,211.779315 L112.471322,224.495017 C112.471322,227.289197 114.239514,228.544395 116.348489,228.544395 C118.800673,228.544395 120.511866,227.118199 120.511866,223.926236 L120.511866,211.779315 L127.183213,211.779315 Z" id="Fill-10" fill="#04111d" mask="url(#mask-4)"></path>
                <path d="M151.817232,220.389367 L151.817232,234.07527 L145.088886,234.07527 L145.088886,221.416568 C145.088886,218.622388 143.320694,217.36719 141.210506,217.36719 C138.758322,217.36719 137.048342,218.793386 137.048342,221.985348 L137.048342,234.189269 L130.319995,234.189269 L130.319995,211.77883 L137.048342,211.77883 L137.048342,213.889018 C138.24654,212.234825 140.469514,211.151837 143.434692,211.151837 C147.940065,211.151837 151.817232,214.402012 151.817232,220.389367" id="Fill-11" fill="#04111d" mask="url(#mask-4)"></path>
                <path d="M172.060362,222.955792 C172.060362,219.591619 169.837389,217.481431 166.756999,217.481431 C163.677823,217.481431 161.453636,219.591619 161.453636,222.955792 C161.453636,226.319966 163.677823,228.430154 166.756999,228.430154 C169.837389,228.430154 172.060362,226.319966 172.060362,222.955792 Z M178.73171,202.826539 L178.73171,234.075513 L172.003363,234.075513 L172.003363,231.965325 C170.520168,233.676518 168.354193,234.703718 165.332016,234.703718 C159.458659,234.703718 154.66829,229.57014 154.66829,222.898793 C154.66829,216.227446 159.515659,211.095081 165.332016,211.095081 C168.297194,211.095081 170.520168,212.121069 172.003363,213.832261 L172.003363,202.826539 L178.73171,202.826539 Z" id="Fill-12" fill="#04111d" mask="url(#mask-4)"></path>
                <path d="M198.747328,222.955792 C198.747328,219.591619 196.523141,217.481431 193.443965,217.481431 C190.364788,217.481431 188.140601,219.591619 188.140601,222.955792 C188.140601,226.319966 190.364788,228.430154 193.443965,228.430154 C196.523141,228.430154 198.747328,226.319966 198.747328,222.955792 Z M205.418675,211.779073 L205.418675,234.132512 L198.690328,234.132512 L198.690328,232.023537 C197.207133,233.733517 195.041159,234.759505 192.018981,234.759505 C186.145625,234.759505 181.355255,229.62714 181.355255,222.955792 C181.355255,216.284445 186.202624,211.15208 192.018981,211.15208 C194.982946,211.15208 197.207133,212.178068 198.690328,213.888048 L198.690328,211.779073 L205.418675,211.779073 Z" id="Fill-13" fill="#04111d" mask="url(#mask-4)"></path>
                <path d="M218.819339,218.223271 L218.819339,226.148604 C218.819339,228.087794 220.473532,228.258792 223.43871,228.087794 L223.43871,234.189148 C214.657175,235.10235 212.147992,232.422168 212.147992,226.205603 L212.147992,218.223271 L208.555821,218.223271 L208.555821,211.779922 L212.147992,211.779922 L212.147992,207.559546 L218.876338,205.564569 L218.876338,211.835708 L223.494497,211.835708 L223.494497,218.223271 L218.819339,218.223271 Z" id="Fill-14" fill="#04111d" mask="url(#mask-4)"></path>
                <path d="M227.82875,234.132633 L234.557097,234.132633 L234.557097,211.779194 L227.82875,211.779194 L227.82875,234.132633 Z M227.144758,205.791839 C227.144758,203.624651 228.969949,201.743673 231.135924,201.743673 C233.303111,201.743673 235.185302,203.568865 235.185302,205.791839 C235.185302,207.959026 233.360111,209.840004 231.135924,209.840004 C228.969949,209.840004 227.144758,207.959026 227.144758,205.791839 Z" id="Fill-15" fill="#04111d" mask="url(#mask-4)"></path>
                <path d="M254.117084,222.955792 C254.117084,219.762617 251.892897,217.709428 248.984719,217.709428 C246.07654,217.709428 243.852353,219.819616 243.852353,222.955792 C243.852353,226.091968 246.07654,228.202156 248.984719,228.202156 C251.892897,228.202156 254.117084,226.148968 254.117084,222.955792 M237.181006,222.955792 C237.181006,216.284445 242.42737,211.15208 249.041718,211.15208 C255.599067,211.15208 260.90243,216.284445 260.90243,222.955792 C260.90243,229.62714 255.657279,234.759505 249.041718,234.759505 C242.42737,234.759505 237.181006,229.62714 237.181006,222.955792" id="Fill-16" fill="#04111d" mask="url(#mask-4)"></path>
                <path d="M284.966456,220.389367 L284.966456,234.07527 L278.238109,234.07527 L278.238109,221.416568 C278.238109,218.622388 276.469917,217.36719 274.359729,217.36719 C271.907545,217.36719 270.197565,218.793386 270.197565,221.985348 L270.197565,234.189269 L263.468006,234.189269 L263.468006,211.77883 L270.197565,211.77883 L270.197565,213.889018 C271.394551,212.234825 273.618738,211.151837 276.583916,211.151837 C281.089288,211.151837 284.966456,214.402012 284.966456,220.389367" id="Fill-17" fill="#04111d" mask="url(#mask-4)"></path>
            </g>
        </g>
    </g>
</svg>