<svg width="286" height="234" viewBox="0 0 286 234" xmlns="http://www.w3.org/2000/svg" xmlns:xlink="http://www.w3.org/1999/xlink"><title>logo</title><defs><path id="a" d="M0 .514h141.945v166.347H0z"/><path id="c" d="M0 234.76h284.966V1.213H0z"/></defs><g transform="translate(.45 -.813)" fill="none" fill-rule="evenodd"><path d="M124.51 67.825h-16.434c-9.077 0-16.436 7.36-16.436 16.437 0 9.075 7.36 16.434 16.436 16.434h16.435c9.076 0 16.436-7.36 16.436-16.434 0-9.078-7.36-16.437-16.436-16.437" fill="#F44B00"/><g transform="translate(0 .699)"><mask id="b" fill="#fff"><use xlink:href="#a"/></mask><path d="M141.945 16.95c0-9.076-7.36-16.436-16.436-16.436H61.26c-9.076 0-16.436 7.36-16.436 16.437v50.176H16.436C7.36 67.127 0 74.486 0 83.563 0 92.638 7.36 100 16.436 100h28.388v50.427c0 9.076 7.36 16.435 16.436 16.435 9.077 0 16.436-7.359 16.436-16.435V33.386h47.813c9.076 0 16.436-7.36 16.436-16.435" fill="#F44B00" mask="url(#b)"/></g><mask id="d" fill="#fff"><use xlink:href="#c"/></mask><path d="M172 199.603h6.785v-22.581H172v22.581zm-.684-28.626a4.065 4.065 0 0 1 4.048-4.048 4.064 4.064 0 0 1 4.048 4.048 4.063 4.063 0 0 1-4.048 4.049 4.064 4.064 0 0 1-4.048-4.049zm-9.98 17.335c0-3.364-2.28-5.53-5.36-5.53-3.078 0-5.36 2.11-5.36 5.53 0 3.365 2.282 5.532 5.36 5.532 3.08 0 5.36-2.167 5.36-5.532zm6.787-20.357v31.648h-6.787v-2.11c-1.482 1.711-3.706 2.737-6.728 2.737-5.93 0-10.777-5.19-10.777-11.918 0-6.728 4.903-11.918 10.777-11.918 3.022 0 5.246 1.027 6.728 2.738v-11.177h6.787zm-33.417 20.357c0-3.364-2.28-5.53-5.36-5.53-3.08 0-5.36 2.11-5.36 5.53 0 3.365 2.28 5.532 5.36 5.532 3.08 0 5.36-2.167 5.36-5.532zm6.786-11.29v22.581h-6.786v-2.11c-1.482 1.711-3.706 2.737-6.728 2.737-5.93 0-10.778-5.19-10.778-11.918 0-6.728 4.905-11.918 10.778-11.918 3.022 0 5.246 1.027 6.728 2.738v-2.11h6.786zm-33.415 11.29c0-3.364-2.281-5.53-5.36-5.53-3.08 0-5.36 2.11-5.36 5.53 0 3.365 2.28 5.532 5.36 5.532 3.079 0 5.36-2.167 5.36-5.532zm6.785-20.357v31.648h-6.785v-2.11c-1.482 1.711-3.706 2.737-6.729 2.737-5.93 0-10.777-5.19-10.777-11.918 0-6.728 4.904-11.918 10.777-11.918 3.023 0 5.247 1.027 6.729 2.738v-11.177h6.785zM74.323 211.78h4.162v6.443h-4.162v15.91h-6.728v-15.91h-2.967v-6.444h2.967c0-6.272 3.42-9.98 10.833-9.58v6.444c-2.452-.228-4.105.57-4.105 3.136M96.676 222.956c0-3.193-2.224-5.247-5.132-5.247-2.908 0-5.133 2.11-5.133 5.247 0 3.136 2.225 5.246 5.133 5.246s5.132-2.053 5.132-5.246m-16.993 0c0-6.672 5.246-11.804 11.86-11.804 6.558 0 11.861 5.132 11.861 11.804 0 6.671-5.246 11.804-11.86 11.804-6.558 0-11.861-5.133-11.861-11.804M127.183 211.78v22.353h-6.728v-2.11c-1.198 1.654-3.421 2.737-6.386 2.737-4.506 0-8.326-3.195-8.326-9.238V211.78h6.728v12.716c0 2.794 1.769 4.05 3.877 4.05 2.453 0 4.164-1.427 4.164-4.619V211.78h6.671zM151.817 220.39v13.685h-6.728v-12.658c0-2.795-1.768-4.05-3.878-4.05-2.453 0-4.163 1.426-4.163 4.618v12.204h-6.728v-22.41h6.728v2.11c1.199-1.654 3.422-2.737 6.387-2.737 4.505 0 8.382 3.25 8.382 9.237M172.06 222.956c0-3.364-2.223-5.475-5.303-5.475s-5.303 2.11-5.303 5.475c0 3.364 2.224 5.474 5.303 5.474 3.08 0 5.303-2.11 5.303-5.474zm6.672-20.13v31.25h-6.729v-2.11c-1.483 1.71-3.649 2.738-6.671 2.738-5.873 0-10.664-5.134-10.664-11.805 0-6.672 4.848-11.804 10.664-11.804 2.965 0 5.188 1.026 6.671 2.737v-11.005h6.729zM198.747 222.956c0-3.364-2.224-5.475-5.303-5.475-3.08 0-5.303 2.11-5.303 5.475 0 3.364 2.224 5.474 5.303 5.474 3.08 0 5.303-2.11 5.303-5.474zm6.672-11.177v22.354h-6.729v-2.11c-1.483 1.71-3.649 2.737-6.671 2.737-5.873 0-10.664-5.133-10.664-11.804 0-6.672 4.848-11.804 10.664-11.804 2.964 0 5.188 1.026 6.671 2.736v-2.109h6.729zM218.82 218.223v7.926c0 1.939 1.654 2.11 4.619 1.939v6.101c-8.782.913-11.291-1.767-11.291-7.983v-7.983h-3.592v-6.443h3.592v-4.22l6.728-1.995v6.27h4.618v6.388h-4.675zM227.829 234.133h6.728v-22.354h-6.728v22.354zm-.684-28.341c0-2.167 1.825-4.048 3.99-4.048 2.168 0 4.05 1.825 4.05 4.048 0 2.167-1.825 4.048-4.05 4.048-2.165 0-3.99-1.881-3.99-4.048zM254.117 222.956c0-3.193-2.224-5.247-5.132-5.247-2.908 0-5.133 2.11-5.133 5.247 0 3.136 2.225 5.246 5.133 5.246s5.132-2.053 5.132-5.246m-16.936 0c0-6.672 5.246-11.804 11.86-11.804 6.558 0 11.861 5.132 11.861 11.804 0 6.671-5.245 11.804-11.86 11.804-6.615 0-11.861-5.133-11.861-11.804M284.966 220.39v13.685h-6.728v-12.658c0-2.795-1.768-4.05-3.878-4.05-2.452 0-4.162 1.426-4.162 4.618v12.204h-6.73v-22.41h6.73v2.11c1.197-1.654 3.42-2.737 6.386-2.737 4.505 0 8.382 3.25 8.382 9.237" fill="#FFF" mask="url(#d)"/></g></svg>