<?xml version="1.0" encoding="UTF-8"?>
<svg width="194px" height="90px" viewBox="0 0 194 90" version="1.1" xmlns="http://www.w3.org/2000/svg" xmlns:xlink="http://www.w3.org/1999/xlink">
    <!-- Generator: Sketch 49.2 (51160) - http://www.bohemiancoding.com/sketch -->
    <title>Page 1</title>
    <desc>Created with Sketch.</desc>
    <defs>
        <polygon id="path-1" points="0 0.3962 47.4998 0.3962 47.4998 56.0632 0 56.0632"></polygon>
        <polygon id="path-3" points="0 90.6037 193.112 90.6037 193.112 0.9997 0 0.9997"></polygon>
    </defs>
    <g id="Page-1" stroke="none" stroke-width="1" fill="none" fill-rule="evenodd">
        <g id="Logo" transform="translate(-336.000000, -244.000000)">
            <g id="Page-1" transform="translate(336.605469, 243.417969)">
                <path d="M41.6658,23.2919 L36.1658,23.2919 C33.1288,23.2919 30.6658,25.7549 30.6658,28.7919 C30.6658,31.8289 33.1288,34.2919 36.1658,34.2919 L41.6658,34.2919 C44.7028,34.2919 47.1658,31.8289 47.1658,28.7919 C47.1658,25.7549 44.7028,23.2919 41.6658,23.2919" id="Fill-1" fill="#F44B00"></path>
                <g id="Group-5" transform="translate(0.000000, 0.603700)">
                    <mask id="mask-2" fill="white">
                        <use xlink:href="#path-1"></use>
                    </mask>
                    <g id="Clip-4"></g>
                    <path d="M47.4998,5.8962 C47.4998,2.8592 45.0368,0.3962 41.9998,0.3962 L20.4998,0.3962 C17.4628,0.3962 14.9998,2.8592 14.9998,5.8962 L14.9998,22.6882 L5.4998,22.6882 C2.4628,22.6882 -0.0002,25.1512 -0.0002,28.1882 C-0.0002,31.2252 2.4628,33.6882 5.4998,33.6882 L14.9998,33.6882 L14.9998,50.5632 C14.9998,53.6002 17.4628,56.0632 20.4998,56.0632 C23.5368,56.0632 25.9998,53.6002 25.9998,50.5632 L25.9998,11.3962 L41.9998,11.3962 C45.0368,11.3962 47.4998,8.9332 47.4998,5.8962" id="Fill-3" fill="#F44B00" mask="url(#mask-2)"></path>
                </g>
                <mask id="mask-4" fill="white">
                    <use xlink:href="#path-3"></use>
                </mask>
                <g id="Clip-7"></g>
                <path d="M101.656,62.1417 L107.15,62.1417 L107.15,43.8597 L101.656,43.8597 L101.656,62.1417 Z M101.101,38.9657 C101.101,37.1657 102.579,35.6887 104.379,35.6887 C106.18,35.6887 107.657,37.1657 107.657,38.9657 C107.657,40.7667 106.18,42.2437 104.379,42.2437 C102.579,42.2437 101.101,40.7667 101.101,38.9657 Z M93.023,52.9997 C93.023,50.2767 91.176,48.5227 88.683,48.5227 C86.19,48.5227 84.344,50.2307 84.344,52.9997 C84.344,55.7247 86.19,57.4787 88.683,57.4787 C91.176,57.4787 93.023,55.7247 93.023,52.9997 Z M98.516,36.5197 L98.516,62.1417 L93.023,62.1417 L93.023,60.4337 C91.823,61.8187 90.022,62.6497 87.575,62.6497 C82.774,62.6497 78.85,58.4477 78.85,52.9997 C78.85,47.5527 82.82,43.3517 87.575,43.3517 C90.022,43.3517 91.823,44.1827 93.023,45.5677 L93.023,36.5197 L98.516,36.5197 Z M71.463,52.9997 C71.463,50.2767 69.616,48.5227 67.124,48.5227 C64.631,48.5227 62.784,50.2307 62.784,52.9997 C62.784,55.7247 64.631,57.4787 67.124,57.4787 C69.616,57.4787 71.463,55.7247 71.463,52.9997 Z M76.957,43.8597 L76.957,62.1417 L71.463,62.1417 L71.463,60.4337 C70.263,61.8187 68.463,62.6497 66.016,62.6497 C61.215,62.6497 57.29,58.4477 57.29,52.9997 C57.29,47.5527 61.261,43.3517 66.016,43.3517 C68.463,43.3517 70.263,44.1827 71.463,45.5677 L71.463,43.8597 L76.957,43.8597 Z M49.904,52.9997 C49.904,50.2767 48.057,48.5227 45.564,48.5227 C43.072,48.5227 41.225,50.2307 41.225,52.9997 C41.225,55.7247 43.072,57.4787 45.564,57.4787 C48.057,57.4787 49.904,55.7247 49.904,52.9997 Z M55.398,36.5197 L55.398,62.1417 L49.904,62.1417 L49.904,60.4337 C48.704,61.8187 46.903,62.6497 44.456,62.6497 C39.655,62.6497 35.731,58.4477 35.731,52.9997 C35.731,47.5527 39.701,43.3517 44.456,43.3517 C46.903,43.3517 48.704,44.1827 49.904,45.5677 L49.904,36.5197 L55.398,36.5197 Z" id="Fill-6" fill="#444547" mask="url(#mask-4)"></path>
                <path d="M22.5769,71.9989 L25.9469,71.9989 L25.9469,77.2159 L22.5769,77.2159 L22.5769,90.0959 L17.1299,90.0959 L17.1299,77.2159 L14.7289,77.2159 L14.7289,71.9989 L17.1299,71.9989 C17.1299,66.9209 19.8989,63.9199 25.9009,64.2429 L25.9009,69.4599 C23.9159,69.2749 22.5769,69.9219 22.5769,71.9989" id="Fill-8" fill="#444547" mask="url(#mask-4)"></path>
                <path d="M40.6736,81.0477 C40.6736,78.4617 38.8736,76.8007 36.5186,76.8007 C34.1646,76.8007 32.3636,78.5087 32.3636,81.0477 C32.3636,83.5867 34.1646,85.2947 36.5186,85.2947 C38.8736,85.2947 40.6736,83.6327 40.6736,81.0477 Z M26.9166,81.0477 C26.9166,75.6467 31.1636,71.4907 36.5186,71.4907 C41.8276,71.4907 46.1216,75.6467 46.1216,81.0477 C46.1216,86.4487 41.8746,90.6037 36.5186,90.6037 C31.2096,90.6037 26.9166,86.4487 26.9166,81.0477 Z" id="Fill-9" fill="#444547" mask="url(#mask-4)"></path>
                <path d="M65.3723,71.9989 L65.3723,90.0959 L59.9253,90.0959 L59.9253,88.3879 C58.9553,89.7269 57.1553,90.6029 54.7543,90.6029 C51.1073,90.6029 48.0143,88.0189 48.0143,83.1249 L48.0143,71.9989 L53.4613,71.9989 L53.4613,82.2939 C53.4613,84.5559 54.8933,85.5719 56.6013,85.5719 C58.5863,85.5719 59.9713,84.4179 59.9713,81.8319 L59.9713,71.9989 L65.3723,71.9989 Z" id="Fill-10" fill="#444547" mask="url(#mask-4)"></path>
                <path d="M85.3157,78.9696 L85.3157,90.0496 L79.8687,90.0496 L79.8687,79.8006 C79.8687,77.5386 78.4377,76.5236 76.7297,76.5236 C74.7437,76.5236 73.3587,77.6776 73.3587,80.2626 L73.3587,90.1426 L67.9117,90.1426 L67.9117,71.9986 L73.3587,71.9986 L73.3587,73.7066 C74.3287,72.3676 76.1287,71.4906 78.5297,71.4906 C82.1767,71.4906 85.3157,74.1226 85.3157,78.9696 Z" id="Fill-11" fill="#444547" mask="url(#mask-4)"></path>
                <path d="M101.7049,81.0477 C101.7049,78.3237 99.9039,76.6147 97.4119,76.6147 C94.9179,76.6147 93.1179,78.3237 93.1179,81.0477 C93.1179,83.7717 94.9179,85.4797 97.4119,85.4797 C99.9039,85.4797 101.7049,83.7717 101.7049,81.0477 Z M107.1059,64.7507 L107.1059,90.0497 L101.6589,90.0497 L101.6589,88.3417 C100.4579,89.7267 98.7039,90.5577 96.2569,90.5577 C91.5019,90.5577 87.6239,86.4017 87.6239,81.0007 C87.6239,75.5997 91.5479,71.4447 96.2569,71.4447 C98.6579,71.4447 100.4579,72.2767 101.6589,73.6607 L101.6589,64.7507 L107.1059,64.7507 Z" id="Fill-12" fill="#444547" mask="url(#mask-4)"></path>
                <path d="M123.3103,81.0477 C123.3103,78.3237 121.5093,76.6147 119.0173,76.6147 C116.5233,76.6147 114.7233,78.3237 114.7233,81.0477 C114.7233,83.7717 116.5233,85.4797 119.0173,85.4797 C121.5093,85.4797 123.3103,83.7717 123.3103,81.0477 Z M128.7113,71.9987 L128.7113,90.0957 L123.2643,90.0957 L123.2643,88.3877 C122.0633,89.7727 120.3093,90.6037 117.8623,90.6037 C113.1073,90.6037 109.2293,86.4487 109.2293,81.0477 C109.2293,75.6467 113.1533,71.4907 117.8623,71.4907 C120.2633,71.4907 122.0633,72.3217 123.2643,73.7067 L123.2643,71.9987 L128.7113,71.9987 Z" id="Fill-13" fill="#444547" mask="url(#mask-4)"></path>
                <path d="M139.5603,77.2157 L139.5603,83.6327 C139.5603,85.2017 140.8993,85.3407 143.2993,85.2017 L143.2993,90.1427 C136.1903,90.8807 134.1593,88.7107 134.1593,83.6787 L134.1593,77.2157 L131.2503,77.2157 L131.2503,71.9987 L134.1593,71.9987 L134.1593,68.5827 L139.6063,66.9667 L139.6063,72.0447 L143.3463,72.0447 L143.3463,77.2157 L139.5603,77.2157 Z" id="Fill-14" fill="#444547" mask="url(#mask-4)"></path>
                <path d="M146.855,90.0957 L152.302,90.0957 L152.302,71.9987 L146.855,71.9987 L146.855,90.0957 Z M146.301,67.1517 C146.301,65.3977 147.778,63.8737 149.532,63.8737 C151.286,63.8737 152.81,65.3517 152.81,67.1517 C152.81,68.9057 151.333,70.4297 149.532,70.4297 C147.778,70.4297 146.301,68.9057 146.301,67.1517 Z" id="Fill-15" fill="#444547" mask="url(#mask-4)"></path>
                <path d="M168.137,81.0477 C168.137,78.4617 166.336,76.8007 163.982,76.8007 C161.628,76.8007 159.827,78.5087 159.827,81.0477 C159.827,83.5867 161.628,85.2947 163.982,85.2947 C166.336,85.2947 168.137,83.6327 168.137,81.0477 M154.426,81.0477 C154.426,75.6467 158.673,71.4907 164.028,71.4907 C169.337,71.4907 173.631,75.6467 173.631,81.0477 C173.631,86.4487 169.384,90.6037 164.028,90.6037 C158.673,90.6037 154.426,86.4487 154.426,81.0477" id="Fill-16" fill="#444547" mask="url(#mask-4)"></path>
                <path d="M193.1126,78.9696 L193.1126,90.0496 L187.6646,90.0496 L187.6646,79.8006 C187.6646,77.5386 186.2336,76.5236 184.5256,76.5236 C182.5406,76.5236 181.1556,77.6776 181.1556,80.2626 L181.1556,90.1426 L175.7086,90.1426 L175.7086,71.9986 L181.1556,71.9986 L181.1556,73.7066 C182.1256,72.3676 183.9256,71.4906 186.3256,71.4906 C189.9736,71.4906 193.1126,74.1226 193.1126,78.9696" id="Fill-17" fill="#444547" mask="url(#mask-4)"></path>
            </g>
        </g>
    </g>
</svg>