<svg enable-background="new 0 0 167 167" viewBox="0 0 167 167" xmlns="http://www.w3.org/2000/svg"><path d="m40.4 124.4v-32.3c0-2.4 1.9-4.3 4.3-4.3 2.4 0 4.3 1.9 4.3 4.3v32.3z" fill="#ffcbba"/><path d="m49 126.1h-8.6c-.9 0-1.7-.7-1.7-1.7v-32.3c0-3.3 2.7-6 6-6s6 2.7 6 6v32.3c0 .9-.7 1.7-1.7 1.7zm-6.9-3.4h5.3v-30.6c0-1.5-1.2-2.6-2.6-2.6-1.5 0-2.6 1.2-2.6 2.6v30.6z" fill="#1e1f25"/><path d="m126.7 124.4v-32.3c0-2.4-1.9-4.3-4.3-4.3-2.4 0-4.3 1.9-4.3 4.3v32.3z" fill="#ffcbba"/><path d="m126.7 126.1h-8.7c-.9 0-1.7-.7-1.7-1.7v-32.3c0-3.3 2.7-6 6-6s6 2.7 6 6v32.3c0 .9-.7 1.7-1.6 1.7zm-7-3.4h5.3v-30.6c0-1.5-1.2-2.6-2.6-2.6-1.5 0-2.6 1.2-2.6 2.6v30.6z" fill="#1e1f25"/><path d="m123.3 125.7h-79.5c-1.8 0-3.3-1.5-3.3-3.3v-44.4c0-1.8 1.5-3.3 3.3-3.3h79.5c1.8 0 3.3 1.5 3.3 3.3v44.4c0 1.8-1.5 3.3-3.3 3.3z" fill="#f8f7f5"/><path d="m123.3 127.4h-79.5c-2.8 0-5-2.2-5-5v-44.4c0-2.8 2.2-5 5-5h79.5c2.8 0 5 2.2 5 5v44.4c0 2.7-2.3 5-5 5zm-79.5-51.1c-.9 0-1.7.7-1.7 1.7v44.4c0 .9.7 1.7 1.7 1.7h79.5c.9 0 1.7-.7 1.7-1.7v-44.4c0-.9-.7-1.7-1.7-1.7z" fill="#04111d"/><path d="m47.1 89.4c-.9 0-1.7-.7-1.7-1.7v-1.2c0-.9.7-1.7 1.7-1.7s1.7.7 1.7 1.7v1.2c0 1-.8 1.7-1.7 1.7z" fill="#fff" opacity=".25"/><path d="m47.1 124.1c-.9 0-1.7-.7-1.7-1.7v-28.6c0-.9.7-1.7 1.7-1.7s1.7.7 1.7 1.7v28.7c0 .9-.8 1.6-1.7 1.6z" fill="#fff" opacity=".25"/><path d="m102.5 49.5h-38c-1.8 0-3.3-1.5-3.3-3.3v-29.4c0-1.8 1.5-3.3 3.3-3.3h38c1.8 0 3.3 1.5 3.3 3.3v29.3c.1 1.9-1.4 3.4-3.3 3.4z" fill="#f8f7f5"/><path d="m102.5 51.2h-38c-2.8 0-5-2.2-5-5v-29.4c0-2.8 2.2-5 5-5h38c2.8 0 5 2.2 5 5v29.3c0 2.8-2.2 5.1-5 5.1zm-38-36c-.9 0-1.7.7-1.7 1.7v29.3c0 .9.7 1.7 1.7 1.7h38c.9 0 1.7-.7 1.7-1.7v-29.4c0-.9-.7-1.7-1.7-1.7h-38z" fill="#04111d"/><path d="m105.9 20.6v-3.6c0-1.9-1.6-3.5-3.5-3.5h-37.7c-1.9 0-3.5 1.6-3.5 3.5v3.6z" fill="#f8f7f5"/><path d="m105.8 22.3h-44.6c-.9 0-1.7-.7-1.7-1.7v-3.6c0-2.9 2.3-5.2 5.2-5.2h37.6c2.9 0 5.2 2.3 5.2 5.2v3.6c0 .9-.7 1.7-1.7 1.7zm-42.9-3.4h41.3v-1.9c0-1-.8-1.8-1.8-1.8h-37.7c-1 0-1.8.8-1.8 1.8z" fill="#04111d"/><path d="m83.5 167.2c-46 0-83.4-37.4-83.4-83.4s37.4-83.5 83.4-83.5 83.5 37.5 83.5 83.5-37.5 83.4-83.5 83.4zm0-163.5c-44.1 0-80 35.9-80 80.1 0 44.1 35.9 80.1 80.1 80.1s80.1-35.9 80.1-80.1c-.1-44.2-36-80.1-80.2-80.1z" fill="#04111d"/><path d="m123.3 74.6h-79.5c-.4 0-.9.1-1.2.2l38.4 25.4c1.6 1 3.6 1 5.2 0l38.4-25.4c-.5-.1-.9-.2-1.3-.2z" fill="#f8f7f5"/><path d="m83.5 102.7c-1.2 0-2.5-.3-3.5-1l-38.4-25.4c-.5-.3-.8-.9-.7-1.6.1-.6.5-1.1 1-1.4.6-.2 1.2-.4 1.9-.4h79.5c.6 0 1.3.1 1.9.4.6.2 1 .8 1 1.4.1.6-.2 1.2-.7 1.6l-38.4 25.4c-1.1.6-2.3 1-3.6 1zm-35.8-26.4 34.1 22.6c1 .7 2.4.7 3.4 0l34.1-22.5h-71.6z" fill="#04111d"/><path d="m83.5 60c-11.6 0-21 9.4-21 21 0 3 .6 5.8 1.7 8.3l16.7 11c1.6 1 3.6 1 5.2 0l16.6-11c1.1-2.6 1.7-5.4 1.7-8.3.1-11.7-9.3-21-20.9-21z" fill="#f34b00"/><path d="m83.5 60c-11.6 0-21 9.4-21 21 0 3 .6 5.8 1.7 8.3l8.6 5.7c-.3-1.3-.4-2.7-.4-4.1 0-11.6 9.4-21 21-21 3.2 0 6.3.7 9 2-3.3-7.1-10.5-11.9-18.9-11.9z" fill="#f34b00"/><path d="m84.8 79h-2.6c-.1 0-.3-.1-.3-.3v-3c0-.1.1-.3.3-.3h4.8c1.1 0 1.9-.9 1.9-1.9 0-1.1-.9-1.9-1.9-1.9h-1.6v-3.3c0-.8-.7-1.5-1.5-1.5s-1.5.6-1.5 1.5v3.3h-.2c-2.3 0-4.1 1.8-4.1 4.1v3c0 2.3 1.8 4.1 4.1 4.1h2.6c.1 0 .3.1.3.3v3c0 .1-.1.3-.3.3h-4.8c-1.1 0-1.9.9-1.9 1.9 0 1.1.9 1.9 1.9 1.9h2.4v3.3c0 .8.7 1.5 1.5 1.5s1.5-.6 1.5-1.5v-3.3c2-.3 3.6-2 3.6-4.1v-3c-.1-2.3-1.9-4.1-4.2-4.1z" fill="#fff1d1"/><path d="m40.4 117.6v-25.5c0-2.4-1.9-4.3-4.3-4.3-2.4 0-4.3 1.9-4.3 4.3v12.6 13h8.6z" fill="#f8f7f5"/><path d="m40.4 119.3h-8.6c-.9 0-1.7-.7-1.7-1.7v-25.5c0-3.3 2.7-6 6-6s6 2.7 6 6v25.5c0 .9-.7 1.7-1.7 1.7zm-6.9-3.4h5.3v-23.8c0-1.5-1.2-2.6-2.6-2.6-1.5 0-2.6 1.2-2.6 2.6v23.8z" fill="#04111d"/><path d="m126.6 117.6v-25.5c0-2.4 1.9-4.3 4.3-4.3 2.4 0 4.3 1.9 4.3 4.3v12.6 13h-8.6z" fill="#f8f7f5"/><path d="m135.3 119.3h-8.6c-.9 0-1.7-.7-1.7-1.7v-25.5c0-3.3 2.7-6 6-6s6 2.7 6 6v25.5c-.1.9-.8 1.7-1.7 1.7zm-7-3.4h5.3v-23.8c0-1.5-1.2-2.6-2.6-2.6-1.5 0-2.6 1.2-2.6 2.6v23.8z" fill="#04111d"/><path d="m83.5 102.7c-1.2 0-2.5-.3-3.5-1l-16.7-11c-.3-.2-.5-.4-.6-.7-1.2-2.9-1.9-5.9-1.9-9 0-5.2 1.8-10.3 5.1-14.3.6-.7 1.6-.8 2.3-.2s.8 1.6.2 2.3c-2.8 3.5-4.3 7.7-4.3 12.2 0 2.5.5 4.9 1.4 7.2l16.2 10.7c1 .7 2.4.7 3.4 0l16.2-10.7c.9-2.3 1.4-4.7 1.4-7.2 0-10.6-8.7-19.3-19.3-19.3-.6 0-1.2 0-1.8.1-.9.1-1.7-.6-1.8-1.5s.6-1.7 1.5-1.8c.7-.1 1.4-.1 2.1-.1 12.5 0 22.6 10.2 22.6 22.6 0 3.1-.6 6.2-1.9 9-.1.3-.3.5-.6.7l-16.6 11c-.9.6-2.1 1-3.4 1z" fill="#04111d"/><path d="m72.6 64.7c-.6 0-1.1-.3-1.4-.8-.5-.8-.2-1.8.5-2.3.4-.3.9-.5 1.3-.7.8-.4 1.8-.1 2.2.7s.1 1.8-.7 2.2c-.4.2-.7.4-1.1.6-.2.2-.5.3-.8.3z" fill="#04111d"/><path d="m86.1 99.4c-1.6-1.1-3.6-1.1-5.2 0l-37.2 26.3h.1 79.5.1z" fill="#f8f7f5"/><path d="m43.8 127.4c-.7 0-1.4-.5-1.6-1.2s0-1.5.6-1.9l37.1-26.3c2.2-1.5 5-1.5 7.1 0l37.3 26.3c.6.4.8 1.2.6 1.9s-.9 1.2-1.6 1.2zm5.1-3.4h69.2l-33-23.3c-1-.7-2.3-.7-3.3 0z" fill="#04111d"/><path d="m66.3 163.7-.1-19.7c0-3.9-1.8-7.5-4.8-9.9l-24.8-19.6c-3-2.4-4.8-6.1-4.8-9.9v-12.5c0-2.4-1.9-4.3-4.3-4.3-2.4 0-4.3 1.9-4.3 4.3v24.1c0 3.4 1.3 6.6 3.7 9l17.5 17.5c2.4 2.4 3.7 5.6 3.7 9v5.9c5.7 2.6 11.8 4.7 18.2 6.1z" fill="#f8f7f5"/><path d="m66.3 165.3c-.1 0-.2 0-.4 0-6.4-1.4-12.7-3.5-18.6-6.4-.6-.3-.9-.9-.9-1.5v-5.9c0-2.9-1.2-5.7-3.2-7.8l-17.5-17.5c-2.7-2.7-4.2-6.4-4.2-10.1v-24c0-3.3 2.7-6 6-6s6 2.7 6 6v12.6c0 3.4 1.5 6.5 4.2 8.6l24.7 19.6c3.4 2.7 5.4 6.8 5.4 11.2l.1 19.6c0 .5-.2 1-.6 1.3-.3.2-.7.3-1 .3zm-16.6-8.9c4.8 2.2 9.7 4 14.8 5.2v-17.6c0-3.4-1.5-6.5-4.2-8.6l-24.7-19.6c-3.5-2.7-5.4-6.8-5.4-11.2v-12.5c0-1.5-1.2-2.6-2.6-2.6s-2.6 1.2-2.6 2.6v24.1c0 2.9 1.2 5.7 3.2 7.8l17.5 17.5c2.7 2.7 4.2 6.4 4.2 10.1v4.8z" fill="#04111d"/><path d="m143.9 92.1c0-2.4-1.9-4.3-4.3-4.3-2.4 0-4.3 1.9-4.3 4.3v12.6c0 3.9-1.8 7.5-4.8 9.9l-24.8 19.6c-3 2.4-4.8 6-4.8 9.9l-.1 19.6c6.4-1.4 12.5-3.5 18.2-6.2v-5.9c0-3.4 1.3-6.6 3.7-9l17.5-17.5c2.4-2.4 3.7-5.6 3.7-9z" fill="#f8f7f5"/><g fill="#04111d"><path d="m100.8 165.3c-.4 0-.8-.1-1.1-.4-.4-.3-.6-.8-.6-1.3l.1-19.6c0-4.4 2-8.5 5.4-11.2l24.8-19.6c2.6-2.1 4.2-5.2 4.2-8.6v-12.5c0-3.3 2.7-6 6-6s6 2.7 6 6v24.1c0 3.8-1.5 7.5-4.2 10.1l-17.5 17.5c-2 2-3.2 4.9-3.2 7.8v5.9c0 .6-.4 1.2-.9 1.5-5.9 2.8-12.1 5-18.6 6.4-.1-.1-.3-.1-.4-.1zm38.8-75.9c-1.5 0-2.6 1.2-2.6 2.6v12.6c0 4.4-2 8.5-5.4 11.2l-24.8 19.6c-2.6 2.1-4.2 5.2-4.2 8.6l-.1 17.5c5.1-1.2 10.1-3 14.8-5.2v-4.8c0-3.8 1.5-7.5 4.2-10.1l17.5-17.5c2-2 3.2-4.9 3.2-7.8v-24c0-1.5-1.2-2.7-2.6-2.7z"/><path d="m76.8 30.6h-.8c-.9 0-1.7-.7-1.7-1.7 0-.9.7-1.7 1.7-1.7h.8c.9 0 1.7.7 1.7 1.7 0 .9-.8 1.7-1.7 1.7z"/><path d="m83.9 30.6h-.8c-.9 0-1.7-.7-1.7-1.7 0-.9.7-1.7 1.7-1.7h.8c.9 0 1.7.7 1.7 1.7 0 .9-.7 1.7-1.7 1.7z"/><path d="m91.1 30.6h-.8c-.9 0-1.7-.7-1.7-1.7 0-.9.7-1.7 1.7-1.7h.8c.9 0 1.7.7 1.7 1.7-.1.9-.8 1.7-1.7 1.7z"/><path d="m98.2 30.6h-.8c-.9 0-1.7-.7-1.7-1.7 0-.9.7-1.7 1.7-1.7h.8c.9 0 1.7.7 1.7 1.7 0 .9-.8 1.7-1.7 1.7z"/></g><path d="m69.7 36.8h-.8c-.9 0-1.7-.7-1.7-1.7s.7-1.7 1.7-1.7h.8c.9 0 1.7.7 1.7 1.7s-.8 1.7-1.7 1.7z" fill="#f34b00"/><path d="m76.8 36.8h-.8c-.9 0-1.7-.7-1.7-1.7s.7-1.7 1.7-1.7h.8c.9 0 1.7.7 1.7 1.7s-.8 1.7-1.7 1.7z" fill="#04111d"/><path d="m83.9 36.8h-.8c-.9 0-1.7-.7-1.7-1.7s.7-1.7 1.7-1.7h.8c.9 0 1.7.7 1.7 1.7s-.7 1.7-1.7 1.7z" fill="#04111d"/><path d="m91.1 36.8h-.8c-.9 0-1.7-.7-1.7-1.7s.7-1.7 1.7-1.7h.8c.9 0 1.7.7 1.7 1.7s-.8 1.7-1.7 1.7z" fill="#04111d"/><path d="m98.2 36.8h-.8c-.9 0-1.7-.7-1.7-1.7s.7-1.7 1.7-1.7h.8c.9 0 1.7.7 1.7 1.7s-.8 1.7-1.7 1.7z" fill="#04111d"/><path d="m69.7 43h-.8c-.9 0-1.7-.7-1.7-1.7s.7-1.7 1.7-1.7h.8c.9 0 1.7.7 1.7 1.7s-.8 1.7-1.7 1.7z" fill="#f34b00"/><path d="m76.8 43h-.8c-.9 0-1.7-.7-1.7-1.7s.7-1.7 1.7-1.7h.8c.9 0 1.7.7 1.7 1.7s-.8 1.7-1.7 1.7z" fill="#04111d"/><path d="m83.9 43h-.8c-.9 0-1.7-.7-1.7-1.7s.7-1.7 1.7-1.7h.8c.9 0 1.7.7 1.7 1.7s-.7 1.7-1.7 1.7z" fill="#04111d"/><path d="m91.1 43h-.8c-.9 0-1.7-.7-1.7-1.7s.7-1.7 1.7-1.7h.8c.9 0 1.7.7 1.7 1.7s-.8 1.7-1.7 1.7z" fill="#04111d"/><path d="m98.2 43h-.8c-.9 0-1.7-.7-1.7-1.7s.7-1.7 1.7-1.7h.8c.9 0 1.7.7 1.7 1.7s-.8 1.7-1.7 1.7z" fill="#04111d"/><path d="m77.7 20.6h-5.9v-8c0-1.6 1.3-3 3-3 1.6 0 3 1.3 3 3v8z" fill="#b2b5b5"/><path d="m77.7 22.3h-5.9c-.9 0-1.7-.7-1.7-1.7v-8c0-2.6 2.1-4.6 4.6-4.6s4.6 2.1 4.6 4.6v8c.1.9-.7 1.7-1.6 1.7zm-4.3-3.4h2.6v-6.4c0-.7-.6-1.3-1.3-1.3s-1.3.6-1.3 1.3z" fill="#04111d"/><path d="m95.3 20.6h-5.9v-8c0-1.6 1.3-3 3-3 1.6 0 3 1.3 3 3v8z" fill="#b2b5b5"/><path d="m95.3 22.3h-5.9c-.9 0-1.7-.7-1.7-1.7v-8c0-2.6 2.1-4.6 4.6-4.6s4.7 2 4.7 4.5v8c0 1-.8 1.8-1.7 1.8zm-4.3-3.4h2.6v-6.4c0-.7-.6-1.3-1.3-1.3s-1.3.6-1.3 1.3z" fill="#04111d"/></svg>