<?xml version="1.0" encoding="utf-8"?>
<!-- Generator: Adobe Illustrator 22.1.0, SVG Export Plug-In . SVG Version: 6.00 Build 0)  -->
<svg version="1.1" id="Layer_1" xmlns="http://www.w3.org/2000/svg" xmlns:xlink="http://www.w3.org/1999/xlink" x="0px" y="0px"
	 viewBox="0 0 167 167" style="enable-background:new 0 0 167 167;" xml:space="preserve">
<style type="text/css">
	.st0{fill:#04111D;}
	.st1{fill:#F8F7F5;}
	.st2{fill:#F34B00;}
	.st3{opacity:0.25;}
	.st4{fill:#1E1F25;}
	.st5{fill:none;stroke:#FFEEEB;stroke-width:0.4454;stroke-linecap:round;stroke-linejoin:round;stroke-miterlimit:10;}
	.st6{fill:#FFEEEB;}
	.st7{fill:#FFFFFF;}
</style>
<g>
	<path class="st0" d="M83.2,166.5c-46,0-83.4-37.4-83.4-83.4S37.3-0.3,83.2-0.3s83.4,37.4,83.4,83.4S129.2,166.5,83.2,166.5z
		 M83.2,3.1C39.1,3.1,3.2,39,3.2,83.1s35.9,80.1,80.1,80.1s80.1-35.9,80.1-80.1S127.4,3.1,83.2,3.1z"/>
</g>
<g>
	<circle class="st1" cx="83.2" cy="61.4" r="47.8"/>
</g>
<g>
	<path class="st2" d="M106.1,61.4c0,0-0.1,13.9-3.4,25.2c0,0,11.2,4.4,13.7,9.2c0,0,15.8-13.8,13.2-34.5H106.1z"/>
</g>
<g>
	<path class="st2" d="M79.9,13.6c0,0-19.7,0.4-31.5,15.1c0,0,6.4,7,14.6,10.6C63,39.3,65.1,18.4,79.9,13.6z"/>
</g>
<g>
	<path class="st2" d="M83.2,61.4H60.4c0,0,0,16.2,3.4,25.2c0,0,11.6-5.5,19.4-4.1V61.4z"/>
</g>
<g>
	<path class="st2" d="M103.5,39.3c0,0-10,4.9-20.2,4.5V15.1C83.2,15.1,96.6,11.5,103.5,39.3z"/>
</g>
<g>
	<path class="st2" d="M63.9,86.6c0,0-10.1,3.5-13.7,9.2c0,0,13.5,12.6,28.3,13.1C78.5,108.9,67,103.4,63.9,86.6z"/>
</g>
<g>
	<path class="st0" d="M83.2,110.8c-12.8,0-25-4.9-34.2-13.8c-0.3-0.3-0.5-0.7-0.5-1.2s0.2-0.9,0.5-1.2c9.2-8.9,21.4-13.8,34.2-13.8
		c12.8,0,25,4.9,34.2,13.8c0.3,0.3,0.5,0.7,0.5,1.2s-0.2,0.9-0.5,1.2C108.2,105.9,96.1,110.8,83.2,110.8z M52.6,95.8
		c8.4,7.5,19.3,11.6,30.6,11.6c11.4,0,22.2-4.1,30.6-11.6c-8.4-7.5-19.3-11.6-30.6-11.6C71.9,84.2,61.1,88.3,52.6,95.8z"/>
</g>
<g>
	<path class="st0" d="M83.2,110.8c-0.9,0-1.7-0.7-1.7-1.7V13.6c0-0.9,0.7-1.7,1.7-1.7c0.9,0,1.7,0.7,1.7,1.7v95.6
		C84.9,110.1,84.2,110.8,83.2,110.8z"/>
</g>
<g>
	<path class="st0" d="M83.2,110.8c-13.7,0-24.5-21.7-24.5-49.4s10.8-49.4,24.5-49.4c13.7,0,24.5,21.7,24.5,49.4S97,110.8,83.2,110.8
		z M83.2,15.3c-11.5,0-21.1,21.1-21.1,46.1s9.7,46.1,21.1,46.1s21.1-21.1,21.1-46.1S94.7,15.3,83.2,15.3z"/>
</g>
<g>
	<path class="st0" d="M41.8,39.3c-0.3,0-0.6-0.1-0.8-0.2c-0.8-0.5-1.1-1.5-0.6-2.3l0.4-0.7c0.5-0.8,1.5-1,2.3-0.6
		c0.8,0.5,1,1.5,0.6,2.3l-0.4,0.6C42.9,39,42.4,39.3,41.8,39.3z"/>
</g>
<g>
	<path class="st0" d="M37.3,49.8c-0.2,0-0.3,0-0.5-0.1c-0.9-0.3-1.4-1.2-1.1-2.1c0.5-1.8,1.2-3.7,1.9-5.4c0.4-0.9,1.3-1.3,2.2-0.9
		c0.8,0.4,1.2,1.3,0.9,2.2c-0.7,1.6-1.3,3.3-1.8,5.1C38.7,49.3,38,49.8,37.3,49.8z"/>
</g>
<g>
	<path class="st0" d="M83.2,110.8c-27.3,0-49.4-22.2-49.4-49.4c0-2.5,0.2-5.1,0.6-7.5c0.1-0.9,1-1.5,1.9-1.4c0.9,0.1,1.5,1,1.4,1.9
		c-0.4,2.3-0.5,4.7-0.5,7c0,25.4,20.7,46.1,46.1,46.1s46.1-20.7,46.1-46.1s-20.7-46.1-46.1-46.1c-14,0-27.1,6.3-35.9,17.2
		c-0.6,0.7-1.6,0.8-2.3,0.3c-0.7-0.6-0.8-1.6-0.3-2.3c9.4-11.7,23.5-18.4,38.5-18.4c27.3,0,49.4,22.2,49.4,49.4
		S110.5,110.8,83.2,110.8z"/>
</g>
<g>
	<path class="st1" d="M100.4,129.2l-7.2-4.4c-2.8-1.8-4.6-4.9-4.6-8.2v-0.9c0-1.6,1-3.1,2.4-3.7c6.2-2.9,10.5-9.3,10.5-16.6v-8.5
		c0-10.1-8.2-18.3-18.3-18.3h0c-10.1,0-18.3,8.2-18.3,18.3v8.5c0,7.3,4.3,13.7,10.5,16.6c1.5,0.7,2.4,2.1,2.4,3.7v0.9
		c0,3.3-1.7,6.4-4.6,8.2l-7.2,4.4c-5.8,3.6-9.4,9.9-9.4,16.8v14.5c8.3,2.8,17.2,4.4,26.5,4.4c9.3,0,18.2-1.5,26.5-4.4V146
		C109.7,139.2,106.2,132.8,100.4,129.2z"/>
</g>
<g>
	<path class="st1" d="M100.4,129.2l-4.9-3c-3.8,1.3-7.9,2.1-12.2,2.1c-4.3,0-8.4-0.7-12.2-2.1l-4.9,3c-5.8,3.6-9.4,9.9-9.4,16.8
		v14.5c8.3,2.8,17.2,4.4,26.5,4.4c9.3,0,18.2-1.5,26.5-4.4V146C109.7,139.2,106.2,132.8,100.4,129.2z"/>
</g>
<g>
	<path class="st0" d="M67.9,165.1C67.9,165.1,67.9,165.1,67.9,165.1c-1,0-1.7-0.8-1.7-1.7l0-0.6c0-2.1,0-2.1,0-4.2l0-0.6
		c0-0.9,0.7-1.7,1.6-1.7c0,0,0,0,0,0c0.9,0,1.7,0.7,1.7,1.6l0,0.6c0,2.2,0,2.2,0,4.3l0,0.6C69.6,164.3,68.8,165.1,67.9,165.1z"/>
</g>
<g>
	<path class="st0" d="M67.9,155.4c-0.9,0-1.7-0.7-1.7-1.7V153c0-0.9,0.7-1.7,1.7-1.7c0.9,0,1.7,0.7,1.7,1.7v0.8
		C69.6,154.6,68.8,155.4,67.9,155.4z"/>
</g>
<g>
	<path class="st0" d="M98.6,165.1c-0.9,0-1.6-0.7-1.7-1.6l0-0.6c-0.1-2.1-0.1-2.1,0-4.3l0-0.6c0-0.9,0.7-1.6,1.7-1.6
		c0.9,0,1.6,0.8,1.6,1.7l0,0.6c-0.1,2.1-0.1,2.1,0,4.2l0,0.6C100.3,164.3,99.6,165,98.6,165.1C98.6,165.1,98.6,165.1,98.6,165.1z"/>
</g>
<g>
	<path class="st0" d="M98.6,155.4c-0.9,0-1.7-0.7-1.7-1.7V153c0-0.9,0.7-1.7,1.7-1.7s1.7,0.7,1.7,1.7v0.8
		C100.3,154.6,99.5,155.4,98.6,155.4z"/>
</g>
<g>
	<path class="st1" d="M47,129.2l-7.2-4.4c-2.8-1.8-4.6-4.9-4.6-8.2v-0.9c0-1.6,1-3.1,2.4-3.7c6.2-2.9,10.5-9.3,10.5-16.6v-8.5
		c0-10.1-8.2-18.3-18.3-18.3h0c-10.1,0-18.3,8.2-18.3,18.3v8.5c0,7.3,4.3,13.7,10.5,16.6c1.5,0.7,2.4,2.1,2.4,3.7v0.9
		c0,3.3-1.7,6.4-4.6,8.2l-5.1,3.1c9.8,14.9,24.4,26.4,41.5,32.4V146C56.4,139.2,52.8,132.8,47,129.2z"/>
</g>
<g>
	<path class="st1" d="M47,129.2l-4.9-3c-3.8,1.3-7.9,2.1-12.2,2.1c-4.3,0-8.4-0.7-12.2-2.1l-2.8,1.7c9.8,14.9,24.4,26.4,41.5,32.4
		V146C56.4,139.2,52.8,132.8,47,129.2z"/>
</g>
<g>
	<path class="st1" d="M142,116.6v-0.9c0-1.6,1-3.1,2.4-3.7c6.2-2.9,10.5-9.3,10.5-16.6v-8.5c0-10.1-8.2-18.3-18.3-18.3h0
		c-10.1,0-18.3,8.2-18.3,18.3v8.5c0,7.3,4.3,13.7,10.5,16.6c1.5,0.7,2.4,2.1,2.4,3.7v0.9c0,3.3-1.7,6.4-4.6,8.2l-7.2,4.4
		c-5.8,3.6-9.4,9.9-9.4,16.8v14.3c17.1-6,31.7-17.5,41.5-32.4l-5.1-3.1C143.7,123,142,119.9,142,116.6z"/>
</g>
<g>
	<path class="st0" d="M83.2,166.5c-9.2,0-18.3-1.5-27-4.5c-0.7-0.2-1.1-0.9-1.1-1.6V146c0-7.4,3.9-14.3,10.2-18.2l7.2-4.4
		c2.3-1.4,3.8-4,3.8-6.8v-0.9c0-1-0.6-1.8-1.5-2.2c-7-3.3-11.5-10.4-11.5-18.1v-8.5c0-11,9-20,20-20c11,0,20,9,20,20v8.5
		c0,7.7-4.5,14.8-11.5,18.1c-0.9,0.4-1.5,1.3-1.5,2.2v0.9c0,2.8,1.4,5.3,3.8,6.8l7.2,4.4c6.3,3.9,10.2,10.8,10.2,18.2v14.5
		c0,0.7-0.5,1.3-1.1,1.6C101.6,165,92.5,166.5,83.2,166.5z M58.5,159.3c16,5.2,33.6,5.2,49.6,0V146c0-6.2-3.3-12.1-8.6-15.4l0,0
		l-7.2-4.4c-3.4-2.1-5.4-5.7-5.4-9.6v-0.9c0-2.2,1.3-4.3,3.4-5.2c5.8-2.7,9.6-8.7,9.6-15.1v-8.5c0-9.2-7.5-16.7-16.7-16.7
		c-9.2,0-16.7,7.5-16.7,16.7v8.5c0,6.4,3.8,12.3,9.6,15.1c2.1,1,3.4,3,3.4,5.2v0.9c0,3.9-2.1,7.6-5.4,9.6l-7.2,4.4
		c-5.3,3.3-8.6,9.2-8.6,15.4V159.3z M109.7,160.5L109.7,160.5L109.7,160.5z"/>
</g>
<g class="st3">
	<path class="st1" d="M74.8,131.8l2.1-1.3c1.1-0.7,2.1-1.5,3-2.4"/>
	<path class="st1" d="M74.8,133.4c-0.6,0-1.1-0.3-1.4-0.8c-0.5-0.8-0.2-1.8,0.5-2.3l2.1-1.3c1-0.6,1.9-1.3,2.7-2.1
		c0.7-0.7,1.7-0.7,2.4,0c0.7,0.7,0.7,1.7,0,2.4c-1,1-2.1,1.9-3.3,2.6l-2.1,1.3C75.4,133.3,75.1,133.4,74.8,133.4z"/>
</g>
<g class="st3">
	<path class="st1" d="M68.7,135.5c0.3-0.2,0.6-0.4,0.9-0.6"/>
	<path class="st1" d="M68.7,137.2c-0.5,0-1-0.2-1.3-0.7c-0.5-0.7-0.4-1.8,0.3-2.3c0.3-0.2,0.7-0.5,1-0.7c0.8-0.5,1.8-0.2,2.3,0.5
		c0.5,0.8,0.2,1.8-0.5,2.3c-0.3,0.2-0.6,0.4-0.8,0.5C69.4,137.1,69.1,137.2,68.7,137.2z"/>
</g>
<g class="st3">
	<path class="st1" d="M86.8,128.1c0.9,0.9,1.9,1.7,3,2.4l2.1,1.3"/>
	<path class="st1" d="M91.8,133.4c-0.3,0-0.6-0.1-0.9-0.2l-2.1-1.3c-1.2-0.7-2.3-1.6-3.3-2.6c-0.7-0.7-0.7-1.7,0-2.4
		c0.7-0.7,1.7-0.7,2.4,0c0.8,0.8,1.7,1.5,2.7,2.1l2.1,1.3c0.8,0.5,1,1.5,0.5,2.3C92.9,133.1,92.4,133.4,91.8,133.4z"/>
</g>
<g class="st3">
	<path class="st1" d="M96.9,134.9c0.3,0.2,0.6,0.4,0.9,0.6"/>
	<path class="st1" d="M97.9,137.2c-0.3,0-0.7-0.1-1-0.3c-0.3-0.2-0.5-0.4-0.8-0.5c-0.8-0.5-1-1.5-0.5-2.3c0.5-0.8,1.5-1,2.3-0.5
		c0.4,0.2,0.7,0.5,1,0.7c0.7,0.5,0.9,1.6,0.3,2.3C98.9,137,98.4,137.2,97.9,137.2z"/>
</g>
<g class="st3">
	<path class="st1" d="M101.9,140.5c0.8,1.7,1.2,3.6,1.2,5.5v9.5"/>
	<path class="st1" d="M103.1,157.2c-0.9,0-1.7-0.7-1.7-1.7V146c0-1.7-0.4-3.3-1.1-4.8c-0.4-0.8,0-1.8,0.8-2.2c0.8-0.4,1.8,0,2.2,0.8
		c0.9,2,1.4,4,1.4,6.2v9.5C104.8,156.5,104.1,157.2,103.1,157.2z"/>
</g>
<g>
	<path class="st4" d="M56.4,162c-0.2,0-0.4,0-0.5-0.1c-17.3-6-32.3-17.7-42.4-33.1c-0.2-0.4-0.3-0.8-0.2-1.3
		c0.1-0.4,0.4-0.8,0.7-1.1l5.1-3.1c2.3-1.4,3.8-4,3.8-6.8v-0.9c0-1-0.6-1.8-1.5-2.2c-7-3.3-11.5-10.4-11.5-18.1v-8.5
		c0-11,9-20,20-20c11,0,20,9,20,20v8.5c0,7.7-4.5,14.8-11.5,18.1c-0.9,0.4-1.5,1.3-1.5,2.2v0.9c0,2.8,1.4,5.3,3.8,6.8l7.2,4.4
		c6.3,3.9,10.2,10.8,10.2,18.2v14.3c0,0.5-0.3,1-0.7,1.4C57.1,161.9,56.7,162,56.4,162z M17.2,128.5c9.2,13.4,22.4,23.7,37.5,29.5
		v-12c0-6.2-3.3-12.1-8.6-15.4l0,0l-7.2-4.4c-3.4-2.1-5.4-5.7-5.4-9.6v-0.9c0-2.2,1.3-4.3,3.4-5.2c5.8-2.7,9.6-8.7,9.6-15.1v-8.5
		c0-9.2-7.5-16.7-16.7-16.7c-9.2,0-16.7,7.5-16.7,16.7v8.5c0,6.4,3.8,12.3,9.6,15.1c2.1,1,3.4,3,3.4,5.2v0.9c0,3.9-2.1,7.6-5.4,9.6
		L17.2,128.5z"/>
</g>
<g>
	<path class="st0" d="M110.1,162c-0.3,0-0.7-0.1-1-0.3c-0.4-0.3-0.7-0.8-0.7-1.4V146c0-7.4,3.9-14.3,10.2-18.2l7.2-4.4
		c2.4-1.5,3.8-4,3.8-6.8v-0.9c0-0.9-0.6-1.8-1.5-2.2c-7-3.3-11.5-10.4-11.5-18.1v-8.5c0-11,9-20,20-20c11,0,20,9,20,20v8.5
		c0,7.7-4.5,14.8-11.5,18.1c-0.9,0.4-1.5,1.3-1.5,2.2v0.9c0,2.7,1.4,5.3,3.8,6.8l5.1,3.1c0.4,0.2,0.7,0.6,0.7,1.1
		c0.1,0.4,0,0.9-0.2,1.3c-10.1,15.3-25.1,27.1-42.3,33.1C110.5,162,110.3,162,110.1,162z M136.6,70.2c-9.2,0-16.7,7.5-16.7,16.7v8.5
		c0,6.4,3.8,12.3,9.6,15.1c2.1,1,3.4,3,3.4,5.2v0.9c0,3.9-2,7.5-5.4,9.6l-7.2,4.4c-5.3,3.3-8.6,9.2-8.6,15.4V158
		c15.1-5.8,28.3-16.2,37.5-29.5l-3.6-2.2c-3.3-2-5.4-5.7-5.4-9.6v-0.9c0-2.2,1.3-4.3,3.4-5.2c5.8-2.7,9.6-8.7,9.6-15.1v-8.5
		C153.3,77.7,145.8,70.2,136.6,70.2z"/>
</g>
<g>
	<path class="st1" d="M136.6,128.3c-4.3,0-8.4-0.7-12.2-2.1l-4.9,3c-5.8,3.6-9.4,9.9-9.4,16.8v14.3c17.1-6,31.7-17.5,41.5-32.4
		l-2.8-1.7C145,127.5,140.9,128.3,136.6,128.3z"/>
</g>
<g class="st3">
	<path class="st1" d="M27.6,133.5c-1.1-1.2-2.1-2.4-3.1-3.7l-1.4-2.2"/>
	<path class="st1" d="M27.6,135.1c-0.5,0-0.9-0.2-1.2-0.5c-1.1-1.2-2.2-2.5-3.2-3.7l-1.5-2.3c-0.5-0.8-0.3-1.8,0.5-2.3
		c0.8-0.5,1.8-0.3,2.3,0.5l1.4,2.2c0.9,1.1,1.9,2.3,2.9,3.4c0.6,0.7,0.6,1.7-0.1,2.4C28.4,135,28,135.1,27.6,135.1z"/>
</g>
<g class="st3">
	<path class="st1" d="M34.9,140.5c-0.4-0.4-0.8-0.7-1.2-1.1"/>
	<path class="st1" d="M34.9,142.2c-0.4,0-0.8-0.1-1.1-0.4l-1.3-1.1c-0.7-0.6-0.8-1.7-0.1-2.4c0.6-0.7,1.7-0.8,2.4-0.1l1.2,1.1
		c0.7,0.6,0.8,1.7,0.2,2.4C35.8,142,35.3,142.2,34.9,142.2z"/>
</g>
<g class="st3">
	<path class="st1" d="M49.9,150.4c-3.2-1.6-6.3-3.4-9.3-5.5"/>
	<path class="st1" d="M49.9,152.1c-0.3,0-0.5-0.1-0.7-0.2c-3.3-1.6-6.5-3.5-9.5-5.6c-0.8-0.5-0.9-1.6-0.4-2.3
		c0.5-0.8,1.6-0.9,2.3-0.4c2.9,2,6,3.8,9.1,5.4c0.8,0.4,1.2,1.4,0.7,2.2C51.1,151.7,50.5,152.1,49.9,152.1z"/>
</g>
<g>
	<path class="st5" d="M25.9,128.7"/>
</g>
<g>
	<path class="st6" d="M28.7,77c-0.8,0-1.6-0.6-1.7-1.5c-0.1-0.9,0.6-1.7,1.5-1.9c0.6-0.1,1.1-0.1,1.7-0.1c0.9,0,1.7,0.7,1.7,1.7
		s-0.7,1.7-1.7,1.7c-0.4,0-0.9,0-1.3,0.1C28.9,77,28.8,77,28.7,77z"/>
</g>
<g>
	<path class="st6" d="M17.3,99.2l0-0.1c-0.9-6-1.6-11.4-0.1-16.5l0.3-0.8c0-0.1,0.3-0.6,0.3-0.7c1.2-2,2.4-3.5,3.8-4.7
		c0.7-0.6,1.8-0.5,2.3,0.2c0.6,0.7,0.5,1.8-0.2,2.3c-1.1,0.9-2.1,2.2-3.1,3.8l-0.4,0.9c-1.2,4.2-0.6,9.2,0.2,14.7L19,99L17.3,99.2z"
		/>
</g>
<g>
	<path class="st0" d="M56.4,162c-0.2,0-0.4,0-0.5-0.1c-17.3-6-32.3-17.7-42.4-33.1c-0.2-0.4-0.3-0.8-0.2-1.3
		c0.1-0.4,0.4-0.8,0.7-1.1l5.1-3.1c2.3-1.4,3.8-4,3.8-6.8v-0.9c0-1-0.6-1.8-1.5-2.2c-7-3.3-11.5-10.4-11.5-18.1v-8.5
		c0-11,9-20,20-20c11,0,20,9,20,20v8.5c0,7.7-4.5,14.8-11.5,18.1c-0.9,0.4-1.5,1.3-1.5,2.2v0.9c0,2.8,1.4,5.3,3.8,6.8l7.2,4.4
		c6.3,3.9,10.2,10.8,10.2,18.2v14.3c0,0.5-0.3,1-0.7,1.4C57.1,161.9,56.7,162,56.4,162z M17.2,128.5c9.2,13.4,22.4,23.7,37.5,29.5
		v-12c0-6.2-3.3-12.1-8.6-15.4l0,0l-7.2-4.4c-3.4-2.1-5.4-5.7-5.4-9.6v-0.9c0-2.2,1.3-4.3,3.4-5.2c5.8-2.7,9.6-8.7,9.6-15.1v-8.5
		c0-9.2-7.5-16.7-16.7-16.7c-9.2,0-16.7,7.5-16.7,16.7v8.5c0,6.4,3.8,12.3,9.6,15.1c2.1,1,3.4,3,3.4,5.2v0.9c0,3.9-2.1,7.6-5.4,9.6
		L17.2,128.5z"/>
</g>
<g>
	<path class="st0" d="M28.7,77c-0.8,0-1.6-0.6-1.7-1.5c-0.1-0.9,0.6-1.7,1.5-1.9c0.6-0.1,1.1-0.1,1.7-0.1c0.9,0,1.7,0.7,1.7,1.7
		s-0.7,1.7-1.7,1.7c-0.4,0-0.9,0-1.3,0.1C28.9,77,28.8,77,28.7,77z"/>
</g>
<g>
	<path class="st0" d="M17.3,99.2l0-0.1c-0.9-6-1.6-11.4-0.1-16.5l0.3-0.8c0-0.1,0.3-0.6,0.3-0.7c1.2-2,2.4-3.5,3.8-4.7
		c0.7-0.6,1.8-0.5,2.3,0.2c0.6,0.7,0.5,1.8-0.2,2.3c-1.1,0.9-2.1,2.2-3.1,3.8l-0.4,0.9c-1.2,4.2-0.6,9.2,0.2,14.7L19,99L17.3,99.2z"
		/>
</g>
<g>
	<path class="st0" d="M56.4,162c-0.2,0-0.4,0-0.5-0.1c-17.3-6-32.3-17.7-42.4-33.1c-0.2-0.4-0.3-0.8-0.2-1.3
		c0.1-0.4,0.4-0.8,0.7-1.1l2.8-1.7c0.4-0.3,0.9-0.3,1.4-0.2c7.5,2.6,15.8,2.6,23.4,0c0.5-0.2,1-0.1,1.4,0.2l4.9,3
		c6.3,3.9,10.2,10.8,10.2,18.2v14.3c0,0.5-0.3,1-0.7,1.4C57.1,161.9,56.7,162,56.4,162z M17.2,128.5c9.2,13.4,22.4,23.7,37.5,29.5
		v-12c0-6.2-3.3-12.1-8.6-15.4l0,0l-4.2-2.6c-7.8,2.5-16.3,2.5-24,0L17.2,128.5z"/>
</g>
<g class="st3">
	<path class="st1" d="M143.4,127.6l-1.4,2.2c-1,1.3-2,2.5-3.1,3.7"/>
	<path class="st1" d="M138.9,135.1c-0.4,0-0.8-0.1-1.1-0.4c-0.7-0.6-0.7-1.7-0.1-2.4c1.1-1.2,2.1-2.4,3-3.6l1.3-2
		c0.5-0.8,1.5-1,2.3-0.5c0.8,0.5,1,1.5,0.5,2.3l-1.4,2.2c-1.1,1.4-2.2,2.7-3.3,3.9C139.8,135,139.4,135.1,138.9,135.1z"/>
</g>
<g class="st3">
	<path class="st1" d="M132.9,139.4c-0.4,0.4-0.8,0.7-1.2,1.1"/>
	<path class="st1" d="M131.6,142.2c-0.5,0-0.9-0.2-1.3-0.6c-0.6-0.7-0.5-1.8,0.2-2.4l1.2-1.1c0.7-0.6,1.7-0.5,2.4,0.1
		c0.6,0.7,0.6,1.7-0.1,2.4l-1.3,1.1C132.4,142.1,132,142.2,131.6,142.2z"/>
</g>
<g class="st3">
	<path class="st1" d="M125.9,144.9c-3,2-6.1,3.9-9.3,5.5"/>
	<path class="st1" d="M116.6,152.1c-0.6,0-1.2-0.3-1.5-0.9c-0.4-0.8-0.1-1.8,0.7-2.2c3.1-1.6,6.2-3.4,9.1-5.4
		c0.8-0.5,1.8-0.4,2.3,0.4c0.5,0.8,0.3,1.8-0.4,2.3c-3,2.1-6.2,4-9.5,5.6C117.1,152,116.8,152.1,116.6,152.1z"/>
</g>
<g>
	<path class="st0" d="M83.2,166.5c-9.2,0-18.3-1.5-27-4.5c-0.7-0.2-1.1-0.9-1.1-1.6V146c0-7.4,3.9-14.3,10.2-18.2l4.9-3
		c0.4-0.3,0.9-0.3,1.4-0.2c7.5,2.6,15.8,2.6,23.4,0c0.5-0.2,1-0.1,1.4,0.2l4.9,3c6.3,3.9,10.2,10.8,10.2,18.2v14.5
		c0,0.7-0.5,1.3-1.1,1.6C101.6,165,92.5,166.5,83.2,166.5z M58.5,159.3c16,5.2,33.6,5.2,49.6,0V146c0-6.2-3.3-12.1-8.6-15.4l0,0
		l-4.2-2.6c-7.8,2.5-16.3,2.5-24,0l-4.2,2.6c-5.3,3.3-8.6,9.2-8.6,15.4V159.3z M109.7,160.5L109.7,160.5L109.7,160.5z"/>
</g>
<g>
	<path class="st0" d="M82.2,77c-0.8,0-1.6-0.6-1.7-1.5c-0.1-0.9,0.6-1.7,1.5-1.9c0.6-0.1,1.1-0.1,1.7-0.1c0.9,0,1.7,0.7,1.7,1.7
		s-0.7,1.7-1.7,1.7c-0.4,0-0.9,0-1.3,0.1C82.3,77,82.2,77,82.2,77z"/>
</g>
<g>
	<path class="st0" d="M70.7,99.1l0-0.1c-0.9-6-1.6-11.3-0.1-16.4l0.4-0.9c0-0.1,0.2-0.5,0.2-0.5c1.2-2,2.4-3.6,3.8-4.7
		c0.7-0.6,1.8-0.5,2.4,0.2c0.6,0.7,0.5,1.8-0.2,2.3c-1.1,0.9-2.1,2.2-3.1,3.8l-0.4,0.9c-1.2,4.2-0.6,9.2,0.2,14.7L72.4,99L70.7,99.1
		z"/>
</g>
<g>
	<path class="st0" d="M135.4,77c-0.8,0-1.6-0.6-1.7-1.5c-0.1-0.9,0.6-1.7,1.5-1.9c0.6-0.1,1.1-0.1,1.7-0.1c0.9,0,1.7,0.7,1.7,1.7
		s-0.7,1.7-1.7,1.7c-0.4,0-0.9,0-1.3,0.1C135.6,77,135.5,77,135.4,77z"/>
</g>
<g>
	<path class="st0" d="M124,99.2l0-0.1c-0.9-6-1.6-11.4-0.1-16.5l0.3-0.8c0-0.1,0.3-0.6,0.3-0.7c1.2-2,2.4-3.6,3.8-4.7
		c0.7-0.6,1.8-0.5,2.4,0.2c0.6,0.7,0.5,1.8-0.2,2.3c-1.1,0.9-2.1,2.2-3.1,3.8l-0.4,0.9c-1.2,4.2-0.6,9.2,0.2,14.7l-1.6,0.5L124,99.2
		z"/>
</g>
<g>
	<path class="st0" d="M110.1,162c-0.3,0-0.7-0.1-1-0.3c-0.4-0.3-0.7-0.8-0.7-1.4V146c0-7.4,3.9-14.3,10.2-18.2l4.9-3
		c0.4-0.3,0.9-0.3,1.4-0.2c7.5,2.6,15.8,2.6,23.4,0c0.5-0.2,1-0.1,1.4,0.2l2.8,1.7c0.4,0.2,0.7,0.6,0.8,1.1c0.1,0.4,0,0.9-0.2,1.3
		c-10.1,15.3-25.1,27.1-42.3,33.1C110.5,162,110.3,162,110.1,162z M124.6,128l-4.2,2.6c-5.3,3.3-8.6,9.2-8.6,15.4V158
		c15.1-5.8,28.3-16.2,37.5-29.5l-0.7-0.4C140.9,130.5,132.3,130.6,124.6,128z"/>
</g>
<g class="st3">
	<path class="st7" d="M42.1,63c-0.9,0-1.7-0.7-1.7-1.7c0-14.2,7.1-27.5,18.9-35.5c0.8-0.5,1.8-0.3,2.3,0.4s0.3,1.8-0.4,2.3
		C50.3,36,43.8,48.3,43.8,61.4C43.8,62.3,43.1,63,42.1,63z"/>
</g>
<g class="st3">
	<path class="st7" d="M53.3,34.9c-0.4,0-0.8-0.1-1.1-0.5c-0.7-0.6-0.7-1.7-0.1-2.4c2.2-2.3,4.6-4.4,7.3-6.2c0.8-0.5,1.8-0.3,2.3,0.4
		s0.3,1.8-0.4,2.3c-2.4,1.6-4.7,3.6-6.7,5.7C54.2,34.7,53.7,34.9,53.3,34.9z"/>
</g>
<g>
	<path class="st0" d="M131,63H35.5c-0.9,0-1.7-0.7-1.7-1.7c0-0.9,0.7-1.7,1.7-1.7H131c0.9,0,1.7,0.7,1.7,1.7
		C132.7,62.3,131.9,63,131,63z"/>
</g>
<g>
	<path class="st0" d="M83.2,45.5c-13.6,0-26.8-5.7-36.1-15.6c-0.6-0.6-0.6-1.6,0-2.3c9.3-9.9,22.5-15.6,36.1-15.6
		s26.8,5.7,36.1,15.6c0.6,0.6,0.6,1.6,0,2.3C110,39.8,96.9,45.5,83.2,45.5z M50.7,28.7c8.7,8.7,20.2,13.5,32.6,13.5
		s23.9-4.8,32.6-13.5c-8.7-8.7-20.2-13.5-32.6-13.5S59.4,20,50.7,28.7z"/>
</g>
<g>
	<path class="st0" d="M29.5,107c-2.4,0-4.6-1.3-5.8-3.4c-0.5-0.8-0.2-1.8,0.6-2.3c0.8-0.5,1.8-0.2,2.3,0.6c1.2,2.1,4.6,2.1,5.8,0
		c0.5-0.8,1.5-1.1,2.3-0.6c0.8,0.5,1.1,1.5,0.6,2.3C34.1,105.7,31.9,107,29.5,107z"/>
</g>
<g>
	<path class="st0" d="M83.3,107c-2.4,0-4.6-1.3-5.8-3.4c-0.5-0.8-0.2-1.8,0.6-2.3c0.8-0.4,1.8-0.2,2.3,0.6c1.2,2.1,4.6,2.1,5.8,0
		c0.5-0.8,1.5-1.1,2.3-0.6c0.8,0.5,1.1,1.5,0.6,2.3C87.9,105.8,85.6,107,83.3,107z"/>
</g>
<g>
	<path class="st0" d="M137,107c-2.4,0-4.6-1.3-5.8-3.4c-0.5-0.8-0.2-1.8,0.6-2.3c0.8-0.5,1.8-0.2,2.3,0.6c1.2,2.1,4.6,2.1,5.8,0
		c0.5-0.8,1.5-1.1,2.3-0.6c0.8,0.5,1.1,1.5,0.6,2.3C141.6,105.7,139.3,107,137,107z"/>
</g>
</svg>
