<?xml version="1.0" encoding="utf-8"?>
<!-- Generator: Adobe Illustrator 22.1.0, SVG Export Plug-In . SVG Version: 6.00 Build 0)  -->
<svg version="1.1" id="Layer_1" xmlns="http://www.w3.org/2000/svg" xmlns:xlink="http://www.w3.org/1999/xlink" x="0px" y="0px"
	 viewBox="0 0 167 167" style="enable-background:new 0 0 167 167;" xml:space="preserve">
<style type="text/css">
	.st0{fill:#FFCBBA;}
	.st1{fill:#1E1F25;}
	.st2{fill:#F8F7F5;}
	.st3{fill:#04111D;}
	.st4{opacity:0.25;}
	.st5{fill:#FFFFFF;}
	.st6{fill:#F34B00;}
	.st7{fill:#FFF1D1;}
	.st8{fill:#B2B5B5;}
</style>
<g>
	<path class="st0" d="M40.4,124.4V92.1c0-2.4,1.9-4.3,4.3-4.3h0c2.4,0,4.3,1.9,4.3,4.3v32.3H40.4z"/>
</g>
<g>
	<path class="st1" d="M49,126.1h-8.6c-0.9,0-1.7-0.7-1.7-1.7V92.1c0-3.3,2.7-6,6-6c3.3,0,6,2.7,6,6v32.3
		C50.7,125.3,50,126.1,49,126.1z M42.1,122.7h5.3V92.1c0-1.5-1.2-2.6-2.6-2.6c-1.5,0-2.6,1.2-2.6,2.6V122.7z"/>
</g>
<g>
	<path class="st0" d="M126.7,124.4V92.1c0-2.4-1.9-4.3-4.3-4.3h0c-2.4,0-4.3,1.9-4.3,4.3v32.3H126.7z"/>
</g>
<g>
	<path class="st1" d="M126.7,126.1H118c-0.9,0-1.7-0.7-1.7-1.7V92.1c0-3.3,2.7-6,6-6c3.3,0,6,2.7,6,6v32.3
		C128.3,125.3,127.6,126.1,126.7,126.1z M119.7,122.7h5.3V92.1c0-1.5-1.2-2.6-2.6-2.6c-1.5,0-2.6,1.2-2.6,2.6V122.7z"/>
</g>
<g>
	<path class="st2" d="M123.3,125.7H43.8c-1.8,0-3.3-1.5-3.3-3.3V78c0-1.8,1.5-3.3,3.3-3.3h79.5c1.8,0,3.3,1.5,3.3,3.3v44.4
		C126.6,124.2,125.1,125.7,123.3,125.7z"/>
</g>
<g>
	<path class="st3" d="M123.3,127.4H43.8c-2.8,0-5-2.2-5-5V78c0-2.8,2.2-5,5-5h79.5c2.8,0,5,2.2,5,5v44.4
		C128.3,125.1,126,127.4,123.3,127.4z M43.8,76.3c-0.9,0-1.7,0.7-1.7,1.7v44.4c0,0.9,0.7,1.7,1.7,1.7h79.5c0.9,0,1.7-0.7,1.7-1.7V78
		c0-0.9-0.7-1.7-1.7-1.7H43.8z"/>
</g>
<g class="st4">
	<path class="st5" d="M47.1,89.4c-0.9,0-1.7-0.7-1.7-1.7v-1.2c0-0.9,0.7-1.7,1.7-1.7s1.7,0.7,1.7,1.7v1.2
		C48.8,88.7,48,89.4,47.1,89.4z"/>
</g>
<g class="st4">
	<path class="st5" d="M47.1,124.1c-0.9,0-1.7-0.7-1.7-1.7V93.8c0-0.9,0.7-1.7,1.7-1.7s1.7,0.7,1.7,1.7v28.7
		C48.8,123.4,48,124.1,47.1,124.1z"/>
</g>
<g>
	<path class="st2" d="M102.5,49.5h-38c-1.8,0-3.3-1.5-3.3-3.3V16.8c0-1.8,1.5-3.3,3.3-3.3h38c1.8,0,3.3,1.5,3.3,3.3v29.3
		C105.9,48,104.4,49.5,102.5,49.5z"/>
</g>
<g>
	<path class="st3" d="M102.5,51.2h-38c-2.8,0-5-2.2-5-5V16.8c0-2.8,2.2-5,5-5h38c2.8,0,5,2.2,5,5v29.3
		C107.5,48.9,105.3,51.2,102.5,51.2z M64.5,15.2c-0.9,0-1.7,0.7-1.7,1.7v29.3c0,0.9,0.7,1.7,1.7,1.7h38c0.9,0,1.7-0.7,1.7-1.7V16.8
		c0-0.9-0.7-1.7-1.7-1.7H64.5z"/>
</g>
<g>
	<path class="st2" d="M105.9,20.6V17c0-1.9-1.6-3.5-3.5-3.5H64.7c-1.9,0-3.5,1.6-3.5,3.5v3.6H105.9z"/>
</g>
<g>
	<path class="st3" d="M105.8,22.3H61.2c-0.9,0-1.7-0.7-1.7-1.7V17c0-2.9,2.3-5.2,5.2-5.2h37.6c2.9,0,5.2,2.3,5.2,5.2v3.6
		C107.5,21.5,106.8,22.3,105.8,22.3z M62.9,18.9h41.3V17c0-1-0.8-1.8-1.8-1.8H64.7c-1,0-1.8,0.8-1.8,1.8V18.9z"/>
</g>
<g>
	<path class="st3" d="M83.5,167.2c-46,0-83.4-37.4-83.4-83.4S37.5,0.3,83.5,0.3S167,37.8,167,83.8S129.5,167.2,83.5,167.2z
		 M83.5,3.7C39.4,3.7,3.5,39.6,3.5,83.8c0,44.1,35.9,80.1,80.1,80.1s80.1-35.9,80.1-80.1C163.6,39.6,127.7,3.7,83.5,3.7z"/>
</g>
<g>
	<path class="st2" d="M123.3,74.6H43.8c-0.4,0-0.9,0.1-1.2,0.2l38.4,25.4c1.6,1,3.6,1,5.2,0l38.4-25.4
		C124.1,74.7,123.7,74.6,123.3,74.6z"/>
</g>
<g>
	<path class="st3" d="M83.5,102.7c-1.2,0-2.5-0.3-3.5-1L41.6,76.3c-0.5-0.3-0.8-0.9-0.7-1.6c0.1-0.6,0.5-1.1,1-1.4
		c0.6-0.2,1.2-0.4,1.9-0.4h79.5c0.6,0,1.3,0.1,1.9,0.4c0.6,0.2,1,0.8,1,1.4c0.1,0.6-0.2,1.2-0.7,1.6l-38.4,25.4
		C86,102.3,84.8,102.7,83.5,102.7z M47.7,76.3l34.1,22.6c1,0.7,2.4,0.7,3.4,0l34.1-22.5H47.7z"/>
</g>
<g>
	<path class="st6" d="M83.5,60c-11.6,0-21,9.4-21,21c0,3,0.6,5.8,1.7,8.3l16.7,11c1.6,1,3.6,1,5.2,0l16.6-11
		c1.1-2.6,1.7-5.4,1.7-8.3C104.5,69.3,95.1,60,83.5,60z"/>
</g>
<g>
	<path class="st6" d="M83.5,60c-11.6,0-21,9.4-21,21c0,3,0.6,5.8,1.7,8.3l8.6,5.7c-0.3-1.3-0.4-2.7-0.4-4.1c0-11.6,9.4-21,21-21
		c3.2,0,6.3,0.7,9,2C99.1,64.8,91.9,60,83.5,60z"/>
</g>
<g>
	<path class="st7" d="M84.8,79h-2.6c-0.1,0-0.3-0.1-0.3-0.3v-3c0-0.1,0.1-0.3,0.3-0.3H87c1.1,0,1.9-0.9,1.9-1.9
		c0-1.1-0.9-1.9-1.9-1.9h-1.6v-3.3c0-0.8-0.7-1.5-1.5-1.5c-0.8,0-1.5,0.6-1.5,1.5v3.3h-0.2c-2.3,0-4.1,1.8-4.1,4.1v3
		c0,2.3,1.8,4.1,4.1,4.1h2.6c0.1,0,0.3,0.1,0.3,0.3v3c0,0.1-0.1,0.3-0.3,0.3h-4.8c-1.1,0-1.9,0.9-1.9,1.9c0,1.1,0.9,1.9,1.9,1.9h2.4
		v3.3c0,0.8,0.7,1.5,1.5,1.5c0.8,0,1.5-0.6,1.5-1.5v-3.3c2-0.3,3.6-2,3.6-4.1v-3C88.9,80.8,87.1,79,84.8,79z"/>
</g>
<g>
	<path class="st2" d="M40.4,117.6V92.1c0-2.4-1.9-4.3-4.3-4.3h0c-2.4,0-4.3,1.9-4.3,4.3v12.6v13H40.4z"/>
</g>
<g>
	<path class="st3" d="M40.4,119.3h-8.6c-0.9,0-1.7-0.7-1.7-1.7V92.1c0-3.3,2.7-6,6-6s6,2.7,6,6v25.5
		C42.1,118.5,41.4,119.3,40.4,119.3z M33.5,115.9h5.3V92.1c0-1.5-1.2-2.6-2.6-2.6c-1.5,0-2.6,1.2-2.6,2.6V115.9z"/>
</g>
<g>
	<path class="st2" d="M126.6,117.6V92.1c0-2.4,1.9-4.3,4.3-4.3l0,0c2.4,0,4.3,1.9,4.3,4.3v12.6v13H126.6z"/>
</g>
<g>
	<path class="st3" d="M135.3,119.3h-8.6c-0.9,0-1.7-0.7-1.7-1.7V92.1c0-3.3,2.7-6,6-6c3.3,0,6,2.7,6,6v25.5
		C136.9,118.5,136.2,119.3,135.3,119.3z M128.3,115.9h5.3V92.1c0-1.5-1.2-2.6-2.6-2.6c-1.5,0-2.6,1.2-2.6,2.6V115.9z"/>
</g>
<g>
	<path class="st3" d="M83.5,102.7c-1.2,0-2.5-0.3-3.5-1l-16.7-11c-0.3-0.2-0.5-0.4-0.6-0.7c-1.2-2.9-1.9-5.9-1.9-9
		c0-5.2,1.8-10.3,5.1-14.3c0.6-0.7,1.6-0.8,2.3-0.2c0.7,0.6,0.8,1.6,0.2,2.3c-2.8,3.5-4.3,7.7-4.3,12.2c0,2.5,0.5,4.9,1.4,7.2
		l16.2,10.7c1,0.7,2.4,0.7,3.4,0l16.2-10.7c0.9-2.3,1.4-4.7,1.4-7.2c0-10.6-8.7-19.3-19.3-19.3c-0.6,0-1.2,0-1.8,0.1
		c-0.9,0.1-1.7-0.6-1.8-1.5c-0.1-0.9,0.6-1.7,1.5-1.8c0.7-0.1,1.4-0.1,2.1-0.1c12.5,0,22.6,10.2,22.6,22.6c0,3.1-0.6,6.2-1.9,9
		c-0.1,0.3-0.3,0.5-0.6,0.7l-16.6,11C86,102.3,84.8,102.7,83.5,102.7z"/>
</g>
<g>
	<path class="st3" d="M72.6,64.7c-0.6,0-1.1-0.3-1.4-0.8c-0.5-0.8-0.2-1.8,0.5-2.3c0.4-0.3,0.9-0.5,1.3-0.7c0.8-0.4,1.8-0.1,2.2,0.7
		c0.4,0.8,0.1,1.8-0.7,2.2c-0.4,0.2-0.7,0.4-1.1,0.6C73.2,64.6,72.9,64.7,72.6,64.7z"/>
</g>
<g>
	<path class="st2" d="M86.1,99.4c-1.6-1.1-3.6-1.1-5.2,0l-37.2,26.3c0,0,0.1,0,0.1,0h79.5c0,0,0.1,0,0.1,0L86.1,99.4z"/>
</g>
<g>
	<path class="st3" d="M43.8,127.4c-0.7,0-1.4-0.5-1.6-1.2c-0.2-0.7,0-1.5,0.6-1.9L79.9,98c2.2-1.5,5-1.5,7.1,0c0,0,0,0,0,0
		l37.3,26.3c0.6,0.4,0.8,1.2,0.6,1.9s-0.9,1.2-1.6,1.2L43.8,127.4z M48.9,124l69.2,0l-33-23.3c-1-0.7-2.3-0.7-3.3,0L48.9,124z"/>
</g>
<g>
	<path class="st2" d="M66.3,163.7L66.2,144c0-3.9-1.8-7.5-4.8-9.9l-24.8-19.6c-3-2.4-4.8-6.1-4.8-9.9V92.1c0-2.4-1.9-4.3-4.3-4.3
		l0,0c-2.4,0-4.3,1.9-4.3,4.3v24.1c0,3.4,1.3,6.6,3.7,9l17.5,17.5c2.4,2.4,3.7,5.6,3.7,9v5.9C53.8,160.2,59.9,162.3,66.3,163.7z"/>
</g>
<g>
	<path class="st3" d="M66.3,165.3c-0.1,0-0.2,0-0.4,0c-6.4-1.4-12.7-3.5-18.6-6.4c-0.6-0.3-0.9-0.9-0.9-1.5v-5.9
		c0-2.9-1.2-5.7-3.2-7.8l-17.5-17.5c-2.7-2.7-4.2-6.4-4.2-10.1V92.1c0-3.3,2.7-6,6-6s6,2.7,6,6v12.6c0,3.4,1.5,6.5,4.2,8.6
		l24.7,19.6c3.4,2.7,5.4,6.8,5.4,11.2l0.1,19.6c0,0.5-0.2,1-0.6,1.3C67,165.2,66.6,165.3,66.3,165.3z M49.7,156.4
		c4.8,2.2,9.7,4,14.8,5.2L64.5,144c0-3.4-1.5-6.5-4.2-8.6l-24.7-19.6c-3.5-2.7-5.4-6.8-5.4-11.2V92.1c0-1.5-1.2-2.6-2.6-2.6
		s-2.6,1.2-2.6,2.6v24.1c0,2.9,1.2,5.7,3.2,7.8l17.5,17.5c2.7,2.7,4.2,6.4,4.2,10.1V156.4z"/>
</g>
<g>
	<path class="st2" d="M143.9,92.1c0-2.4-1.9-4.3-4.3-4.3l0,0c-2.4,0-4.3,1.9-4.3,4.3v12.6c0,3.9-1.8,7.5-4.8,9.9l-24.8,19.6
		c-3,2.4-4.8,6-4.8,9.9l-0.1,19.6c6.4-1.4,12.5-3.5,18.2-6.2v-5.9c0-3.4,1.3-6.6,3.7-9l17.5-17.5c2.4-2.4,3.7-5.6,3.7-9V92.1z"/>
</g>
<g>
	<path class="st3" d="M100.8,165.3c-0.4,0-0.8-0.1-1.1-0.4c-0.4-0.3-0.6-0.8-0.6-1.3l0.1-19.6c0-4.4,2-8.5,5.4-11.2l24.8-19.6
		c2.6-2.1,4.2-5.2,4.2-8.6V92.1c0-3.3,2.7-6,6-6s6,2.7,6,6v24.1c0,3.8-1.5,7.5-4.2,10.1l-17.5,17.5c-2,2-3.2,4.9-3.2,7.8v5.9
		c0,0.6-0.4,1.2-0.9,1.5c-5.9,2.8-12.1,5-18.6,6.4C101.1,165.3,100.9,165.3,100.8,165.3z M139.6,89.4c-1.5,0-2.6,1.2-2.6,2.6v12.6
		c0,4.4-2,8.5-5.4,11.2l-24.8,19.6c-2.6,2.1-4.2,5.2-4.2,8.6l-0.1,17.5c5.1-1.2,10.1-3,14.8-5.2v-4.8c0-3.8,1.5-7.5,4.2-10.1
		l17.5-17.5c2-2,3.2-4.9,3.2-7.8V92.1C142.2,90.6,141,89.4,139.6,89.4z M119,157.4L119,157.4L119,157.4z"/>
</g>
<g>
	<path class="st3" d="M76.8,30.6H76c-0.9,0-1.7-0.7-1.7-1.7c0-0.9,0.7-1.7,1.7-1.7h0.8c0.9,0,1.7,0.7,1.7,1.7
		C78.5,29.8,77.7,30.6,76.8,30.6z"/>
</g>
<g>
	<path class="st3" d="M83.9,30.6h-0.8c-0.9,0-1.7-0.7-1.7-1.7c0-0.9,0.7-1.7,1.7-1.7h0.8c0.9,0,1.7,0.7,1.7,1.7
		C85.6,29.8,84.9,30.6,83.9,30.6z"/>
</g>
<g>
	<path class="st3" d="M91.1,30.6h-0.8c-0.9,0-1.7-0.7-1.7-1.7c0-0.9,0.7-1.7,1.7-1.7h0.8c0.9,0,1.7,0.7,1.7,1.7
		C92.7,29.8,92,30.6,91.1,30.6z"/>
</g>
<g>
	<path class="st3" d="M98.2,30.6h-0.8c-0.9,0-1.7-0.7-1.7-1.7c0-0.9,0.7-1.7,1.7-1.7h0.8c0.9,0,1.7,0.7,1.7,1.7
		C99.9,29.8,99.1,30.6,98.2,30.6z"/>
</g>
<g>
	<path class="st6" d="M69.7,36.8h-0.8c-0.9,0-1.7-0.7-1.7-1.7s0.7-1.7,1.7-1.7h0.8c0.9,0,1.7,0.7,1.7,1.7S70.6,36.8,69.7,36.8z"/>
</g>
<g>
	<path class="st3" d="M76.8,36.8H76c-0.9,0-1.7-0.7-1.7-1.7s0.7-1.7,1.7-1.7h0.8c0.9,0,1.7,0.7,1.7,1.7S77.7,36.8,76.8,36.8z"/>
</g>
<g>
	<path class="st3" d="M83.9,36.8h-0.8c-0.9,0-1.7-0.7-1.7-1.7s0.7-1.7,1.7-1.7h0.8c0.9,0,1.7,0.7,1.7,1.7S84.9,36.8,83.9,36.8z"/>
</g>
<g>
	<path class="st3" d="M91.1,36.8h-0.8c-0.9,0-1.7-0.7-1.7-1.7s0.7-1.7,1.7-1.7h0.8c0.9,0,1.7,0.7,1.7,1.7S92,36.8,91.1,36.8z"/>
</g>
<g>
	<path class="st3" d="M98.2,36.8h-0.8c-0.9,0-1.7-0.7-1.7-1.7s0.7-1.7,1.7-1.7h0.8c0.9,0,1.7,0.7,1.7,1.7S99.1,36.8,98.2,36.8z"/>
</g>
<g>
	<path class="st6" d="M69.7,43h-0.8c-0.9,0-1.7-0.7-1.7-1.7s0.7-1.7,1.7-1.7h0.8c0.9,0,1.7,0.7,1.7,1.7S70.6,43,69.7,43z"/>
</g>
<g>
	<path class="st3" d="M76.8,43H76c-0.9,0-1.7-0.7-1.7-1.7s0.7-1.7,1.7-1.7h0.8c0.9,0,1.7,0.7,1.7,1.7S77.7,43,76.8,43z"/>
</g>
<g>
	<path class="st3" d="M83.9,43h-0.8c-0.9,0-1.7-0.7-1.7-1.7s0.7-1.7,1.7-1.7h0.8c0.9,0,1.7,0.7,1.7,1.7S84.9,43,83.9,43z"/>
</g>
<g>
	<path class="st3" d="M91.1,43h-0.8c-0.9,0-1.7-0.7-1.7-1.7s0.7-1.7,1.7-1.7h0.8c0.9,0,1.7,0.7,1.7,1.7S92,43,91.1,43z"/>
</g>
<g>
	<path class="st3" d="M98.2,43h-0.8c-0.9,0-1.7-0.7-1.7-1.7s0.7-1.7,1.7-1.7h0.8c0.9,0,1.7,0.7,1.7,1.7S99.1,43,98.2,43z"/>
</g>
<g>
	<path class="st8" d="M77.7,20.6h-5.9v-8c0-1.6,1.3-3,3-3h0c1.6,0,3,1.3,3,3V20.6z"/>
</g>
<g>
	<path class="st3" d="M77.7,22.3h-5.9c-0.9,0-1.7-0.7-1.7-1.7v-8c0-2.6,2.1-4.6,4.6-4.6s4.6,2.1,4.6,4.6v8
		C79.4,21.5,78.6,22.3,77.7,22.3z M73.4,18.9H76v-6.4c0-0.7-0.6-1.3-1.3-1.3s-1.3,0.6-1.3,1.3V18.9z"/>
</g>
<g>
	<path class="st8" d="M95.3,20.6h-5.9v-8c0-1.6,1.3-3,3-3h0c1.6,0,3,1.3,3,3V20.6z"/>
</g>
<g>
	<path class="st3" d="M95.3,22.3h-5.9c-0.9,0-1.7-0.7-1.7-1.7v-8c0-2.6,2.1-4.6,4.6-4.6S97,10,97,12.5v8
		C97,21.5,96.2,22.3,95.3,22.3z M91,18.9h2.6v-6.4c0-0.7-0.6-1.3-1.3-1.3c-0.7,0-1.3,0.6-1.3,1.3V18.9z"/>
</g>
</svg>
