<?xml version="1.0" encoding="utf-8"?>
<!-- Generator: Adobe Illustrator 22.1.0, SVG Export Plug-In . SVG Version: 6.00 Build 0)  -->
<svg version="1.1" id="Layer_1" xmlns="http://www.w3.org/2000/svg" xmlns:xlink="http://www.w3.org/1999/xlink" x="0px" y="0px"
	 viewBox="0 0 167 167" style="enable-background:new 0 0 167 167;" xml:space="preserve">
<style type="text/css">
	.st0{fill:#04111D;}
	.st1{fill:#F8F7F5;}
	.st2{fill:#CC805C;}
	.st3{fill:#FF9341;}
	.st4{fill:#F34B00;}
	.st5{opacity:0.25;}
	.st6{fill:#FFFFFF;}
	.st7{fill:#FFEEEB;}
	.st8{fill:#FFCFAC;}
	.st9{fill:#FFAC6F;}
</style>
<g>
	<path class="st0" d="M83.1,166.9c-46,0-83.4-37.4-83.4-83.4S37.1,0.1,83.1,0.1s83.4,37.4,83.4,83.4S129.1,166.9,83.1,166.9z
		 M83.1,3.4C38.9,3.4,3,39.3,3,83.5s35.9,80.1,80.1,80.1s80.1-35.9,80.1-80.1S127.2,3.4,83.1,3.4z"/>
</g>
<g>
	<circle class="st1" cx="83" cy="109.3" r="7.9"/>
</g>
<g>
	<path class="st0" d="M83,118.9c-5.3,0-9.5-4.3-9.5-9.5c0-5.3,4.3-9.5,9.5-9.5c5.3,0,9.5,4.3,9.5,9.5
		C92.6,114.6,88.3,118.9,83,118.9z M83,103.1c-3.4,0-6.2,2.8-6.2,6.2s2.8,6.2,6.2,6.2s6.2-2.8,6.2-6.2S86.5,103.1,83,103.1z"/>
</g>
<g>
	<circle class="st2" cx="83" cy="57.7" r="7.9"/>
</g>
<g>
	<circle class="st1" cx="83" cy="57.7" r="7.9"/>
	<path class="st0" d="M83,67.2c-5.3,0-9.5-4.3-9.5-9.5s4.3-9.5,9.5-9.5c5.3,0,9.5,4.3,9.5,9.5S88.3,67.2,83,67.2z M83,51.5
		c-3.4,0-6.2,2.8-6.2,6.2s2.8,6.2,6.2,6.2s6.2-2.8,6.2-6.2S86.5,51.5,83,51.5z"/>
</g>
<g>
	<circle class="st1" cx="57.2" cy="83.5" r="7.9"/>
</g>
<g>
	<path class="st0" d="M57.2,93c-5.3,0-9.5-4.3-9.5-9.5c0-5.3,4.3-9.5,9.5-9.5c5.3,0,9.5,4.3,9.5,9.5C66.8,88.8,62.5,93,57.2,93z
		 M57.2,77.3c-3.4,0-6.2,2.8-6.2,6.2s2.8,6.2,6.2,6.2s6.2-2.8,6.2-6.2S60.6,77.3,57.2,77.3z"/>
</g>
<g>
	<circle class="st3" cx="108.9" cy="83.5" r="7.9"/>
</g>
<g>
	<circle class="st1" cx="108.9" cy="83.5" r="7.9"/>
	<path class="st0" d="M108.9,93c-5.3,0-9.5-4.3-9.5-9.5c0-5.3,4.3-9.5,9.5-9.5c5.3,0,9.5,4.3,9.5,9.5C118.4,88.8,114.2,93,108.9,93z
		 M108.9,77.3c-3.4,0-6.2,2.8-6.2,6.2s2.8,6.2,6.2,6.2s6.2-2.8,6.2-6.2S112.3,77.3,108.9,77.3z"/>
</g>
<g>
	<path class="st4" d="M73.7,136.6v1.6c0,5.2,4.2,9.4,9.4,9.4h0c5.2,0,9.4-4.2,9.4-9.4v-1.6c0-5.3,1.5-10.6,4.2-15.1
		c2.9-4.9,5-11.4,5.6-18.7h-0.4c-2.2,8.3-9.7,14.5-18.8,14.5s-16.6-6.2-18.8-14.5h-0.4c0.6,7.3,2.6,13.8,5.6,18.7
		C72.2,126,73.7,131.2,73.7,136.6z"/>
</g>
<g>
	<path class="st4" d="M92.4,30.4v-1.6c0-5.2-4.2-9.4-9.4-9.4h0c-5.2,0-9.4,4.2-9.4,9.4v1.6c0,5.3-1.5,10.6-4.2,15.1
		c-2.9,4.9-5,11.4-5.6,18.7h0.4c2.2-8.3,9.7-14.5,18.8-14.5s16.6,6.2,18.8,14.5h0.4c-0.6-7.3-2.6-13.8-5.6-18.7
		C93.9,41,92.4,35.8,92.4,30.4z"/>
</g>
<g>
	<path class="st4" d="M30,74.1h-1.6c-5.2,0-9.4,4.2-9.4,9.4v0c0,5.2,4.2,9.4,9.4,9.4H30c5.3,0,10.6,1.5,15.1,4.2
		c4.9,2.9,11.4,5,18.7,5.6v-0.4c-8.3-2.2-14.5-9.7-14.5-18.8s6.2-16.6,14.5-18.8v-0.4C56.6,65,50,67,45.1,69.9
		C40.5,72.6,35.3,74.1,30,74.1z"/>
</g>
<g>
	<path class="st0" d="M63.8,104.3C63.7,104.3,63.7,104.3,63.8,104.3c-7.5-0.6-14.2-2.7-19.5-5.8c-4.4-2.6-9.3-4-14.3-4h-1.6
		c-6.1,0-11-5-11-11s5-11,11-11H30c2.4,0,4.8-0.3,7.1-1c0.9-0.3,1.8,0.3,2,1.2c0.2,0.9-0.3,1.8-1.2,2c-2.6,0.7-5.3,1.1-8,1.1h-1.6
		c-4.3,0-7.7,3.5-7.7,7.7c0,4.3,3.5,7.7,7.7,7.7H30c5.6,0,11.1,1.5,16,4.5c2.6,1.5,5.6,2.8,8.9,3.7c-4.5-3.9-7.2-9.6-7.2-15.9
		c0-6.2,2.8-12,7.2-15.9c-1.4,0.4-2.7,0.8-4,1.3c-0.9,0.3-1.8-0.1-2.2-0.9c-0.3-0.9,0.1-1.8,0.9-2.2c4.2-1.7,9-2.7,14-3.2
		c0.5-0.1,0.9,0.1,1.3,0.4c0.3,0.3,0.5,0.8,0.5,1.2c0,0.8-0.5,1.8-1.3,2c-7.8,2-13.3,9.1-13.3,17.1s5.5,15.1,13.3,17.1
		c0.7,0.2,1.3,0.9,1.3,1.6c0,0.5-0.2,1.1-0.5,1.4C64.6,104,64.2,104.3,63.8,104.3z"/>
</g>
<g>
	<path class="st0" d="M43.9,72.3c-0.6,0-1.2-0.3-1.5-0.9c-0.4-0.8-0.1-1.8,0.7-2.3c0.4-0.2,0.8-0.4,1.1-0.6c0.8-0.5,1.8-0.2,2.3,0.6
		c0.5,0.8,0.2,1.8-0.6,2.3c-0.4,0.2-0.8,0.5-1.3,0.7C44.5,72.2,44.2,72.3,43.9,72.3z"/>
</g>
<g>
	<path class="st0" d="M83.1,149.3c-6.1,0-11-5-11-11v-1.6c0-2.4-0.3-4.8-1-7.1c-0.2-0.9,0.3-1.8,1.2-2c0.9-0.3,1.8,0.3,2,1.2
		c0.7,2.6,1.1,5.3,1.1,8v1.6c0,4.3,3.5,7.7,7.7,7.7s7.7-3.5,7.7-7.7v-1.6c0-5.6,1.5-11.1,4.5-16c1.5-2.6,2.8-5.6,3.7-8.9
		c-3.9,4.5-9.6,7.2-15.9,7.2c-6.2,0-12-2.8-15.9-7.2c0.4,1.4,0.8,2.7,1.3,4c0.3,0.9-0.1,1.8-0.9,2.2c-0.9,0.3-1.8-0.1-2.2-0.9
		c-1.7-4.2-2.7-9-3.2-14c0-0.5,0.1-0.9,0.4-1.3c0.8-0.9,2.9-0.5,3.3,0.7c2,7.8,9.1,13.3,17.1,13.3s15.1-5.5,17.1-13.3
		c0.3-1.2,2.2-1.6,3.1-0.7c0.3,0.3,0.7,0.8,0.6,1.3c-0.6,7.4-2.6,14.1-5.8,19.4c-2.6,4.4-4,9.3-4,14.3v1.6
		C94.1,144.3,89.1,149.3,83.1,149.3z"/>
</g>
<g>
	<path class="st0" d="M70.2,124.3c-0.6,0-1.2-0.3-1.5-0.9c-0.2-0.4-0.4-0.8-0.7-1.1c-0.5-0.8-0.2-1.8,0.6-2.3
		c0.8-0.5,1.8-0.2,2.3,0.6c0.2,0.4,0.5,0.8,0.7,1.3c0.4,0.8,0.1,1.8-0.7,2.3C70.7,124.2,70.4,124.3,70.2,124.3z"/>
</g>
<g class="st5">
	<path class="st6" d="M42.5,78.5c0.2-0.1,0.5-0.2,0.7-0.3"/>
	<path class="st6" d="M42.5,80.2c-0.7,0-1.3-0.4-1.6-1.1c-0.3-0.9,0.1-1.8,1-2.2c0,0,0.3-0.1,0.4-0.1c0.9-0.3,2,0,2.3,0.9
		c0.3,0.9,0.1,1.8-0.8,2.1l-0.7,0.3C42.9,80.2,42.7,80.2,42.5,80.2z"/>
</g>
<g class="st5">
	<path class="st6" d="M25.6,83.5c0-1.5,1.2-2.7,2.7-2.7H30c2.5,0,5-0.3,7.5-0.8"/>
	<path class="st6" d="M25.6,85.2c-0.9,0-1.7-0.7-1.7-1.7c0-2.4,2-4.4,4.4-4.4H30c2.4,0,4.8-0.3,7.1-0.8c0.9-0.2,1.8,0.4,2,1.3
		c0.2,0.9-0.4,1.8-1.3,2c-2.6,0.5-5.2,0.8-7.8,0.8h-1.6c-0.6,0-1,0.5-1,1C27.3,84.4,26.6,85.2,25.6,85.2z"/>
</g>
<g class="st5">
	<path class="st6" d="M78.1,124.1c-0.1-0.2-0.2-0.5-0.3-0.7"/>
	<path class="st7" d="M78.1,125.7c-0.7,0-1.3-0.4-1.6-1.1l-0.3-0.7c-0.3-0.9,0.1-1.8,1-2.2c0.8-0.3,1.8,0.1,2.2,1l0.3,0.7
		c0.3,0.9-0.1,1.8-1,2.2C78.5,125.7,78.3,125.7,78.1,125.7z"/>
</g>
<g class="st5">
	<path class="st6" d="M83.1,140.9c-1.5,0-2.7-1.2-2.7-2.7v-1.6c0-2.5-0.3-5-0.8-7.5"/>
	<path class="st7" d="M83.1,142.6c-2.4,0-4.4-2-4.4-4.4v-1.6c0-2.4-0.3-4.8-0.8-7.1c-0.2-0.9,0.4-1.8,1.3-2c0.9-0.2,1.8,0.4,2,1.3
		c0.5,2.6,0.8,5.2,0.8,7.8v1.6c0,0.6,0.5,1,1,1c0.9,0,1.7,0.7,1.7,1.7S84,142.6,83.1,142.6z"/>
</g>
<g>
	<path class="st4" d="M136.1,92.9h1.6c5.2,0,9.4-4.2,9.4-9.4v0c0-5.2-4.2-9.4-9.4-9.4h-1.6c-5.3,0-10.6-1.5-15.1-4.2
		c-4.9-2.9-11.4-5-18.7-5.6v0.4c8.3,2.2,14.5,9.7,14.5,18.8s-6.2,16.6-14.5,18.8v0.4c7.3-0.6,13.8-2.6,18.7-5.6
		C125.6,94.3,130.8,92.9,136.1,92.9z"/>
</g>
<g class="st5">
	<path class="st6" d="M123.6,88.5c-0.2,0.1-0.5,0.2-0.7,0.3"/>
	<path class="st8" d="M123.2,90.3c-0.7,0-1.4-0.4-1.7-1c-0.3-0.9-0.1-1.8,0.8-2.1l0.7-0.3c0.8-0.3,1.8,0.1,2.2,1
		c0.3,0.9-0.1,1.8-1,2.2c0,0-0.3,0.1-0.4,0.1C123.7,90.2,123.4,90.3,123.2,90.3z"/>
</g>
<g class="st5">
	<path class="st6" d="M140.5,83.5c0,1.5-1.2,2.7-2.7,2.7h-1.6c-2.5,0-5,0.3-7.5,0.8"/>
	<path class="st8" d="M128.7,88.7c-0.8,0-1.5-0.5-1.6-1.3c-0.2-0.9,0.4-1.8,1.3-2c2.6-0.6,5.2-0.8,7.8-0.8h1.6c0.6,0,1-0.5,1-1
		c0-0.9,0.7-1.7,1.7-1.7s1.7,0.7,1.7,1.7c0,2.4-2,4.4-4.4,4.4h-1.6c-2.4,0-4.8,0.3-7.1,0.8C128.9,88.6,128.8,88.7,128.7,88.7z"/>
</g>
<g class="st5">
	<path class="st6" d="M88,42.9c0.1,0.2,0.2,0.5,0.3,0.7"/>
	<path class="st9" d="M88.3,45.3c-0.7,0-1.3-0.4-1.6-1.1l-0.3-0.7c-0.3-0.9,0.1-1.8,1-2.2c0.8-0.3,1.8,0.1,2.2,1l0.3,0.7
		c0.3,0.9-0.1,1.8-1,2.2C88.7,45.3,88.5,45.3,88.3,45.3z"/>
</g>
<g class="st5">
	<path class="st6" d="M83.1,26.1c1.5,0,2.7,1.2,2.7,2.7v1.6c0,2.5,0.3,5,0.8,7.5"/>
	<path class="st9" d="M86.5,39.5c-0.8,0-1.5-0.5-1.6-1.3c-0.5-2.6-0.8-5.2-0.8-7.8v-1.6c0-0.6-0.5-1-1-1c-0.9,0-1.7-0.7-1.7-1.7
		c0-0.9,0.7-1.7,1.7-1.7c2.4,0,4.4,2,4.4,4.4v1.6c0,2.4,0.3,4.7,0.8,7.1c0.2,0.9-0.4,1.8-1.3,2C86.8,39.5,86.7,39.5,86.5,39.5z"/>
</g>
<g>
	<path class="st0" d="M102.3,104.3c-0.4,0-0.8-0.2-1.1-0.4c-0.3-0.3-0.5-0.8-0.5-1.2c0-0.8,0.5-1.8,1.3-2c7.8-2,13.3-9.1,13.3-17.1
		s-5.5-15.1-13.3-17.1c-0.7-0.2-1.3-0.9-1.3-1.6c0-0.5,0.2-1.1,0.5-1.4c0.3-0.3,0.8-0.7,1.3-0.6c7.4,0.6,14.1,2.7,19.4,5.8
		c4.4,2.6,9.3,4,14.3,4h1.6c6.1,0,11,4.9,11,11s-5,11-11,11h-1.6c-2.4,0-4.8,0.3-7.1,0.9c-0.9,0.3-1.8-0.3-2-1.2
		c-0.2-0.9,0.3-1.8,1.2-2c2.6-0.7,5.3-1.1,8-1.1h1.6c4.3,0,7.7-3.5,7.7-7.7c0-4.2-3.5-7.7-7.7-7.7h-1.6c-5.6,0-11.1-1.5-16-4.5
		c-2.6-1.5-5.6-2.8-8.9-3.7c4.5,3.9,7.2,9.6,7.2,15.9c0,6.3-2.8,12-7.2,15.9c1.4-0.4,2.7-0.8,4-1.3c0.8-0.4,1.8,0.1,2.2,0.9
		c0.3,0.9-0.1,1.8-0.9,2.2c-4.2,1.7-9,2.7-14,3.2C102.4,104.3,102.3,104.3,102.3,104.3z"/>
</g>
<g>
	<path class="st0" d="M121,98.8c-0.6,0-1.1-0.3-1.4-0.8c-0.5-0.8-0.2-1.8,0.6-2.3c0.4-0.3,0.8-0.5,1.3-0.7c0.8-0.4,1.8-0.1,2.3,0.7
		c0.4,0.8,0.1,1.8-0.7,2.3c-0.4,0.2-0.8,0.4-1.1,0.6C121.6,98.7,121.3,98.8,121,98.8z"/>
</g>
<g>
	<path class="st0" d="M102.2,65.9c-0.8,0-1.8-0.5-2-1.3c-2-7.8-9.1-13.3-17.1-13.3s-15.1,5.5-17.1,13.3c-0.3,1.2-2.2,1.6-3.1,0.7
		c-0.3-0.3-0.7-0.8-0.6-1.3c0.6-7.4,2.6-14.1,5.8-19.4c2.6-4.4,4-9.3,4-14.3v-1.6c0-6.1,4.9-11,11-11s11,4.9,11,11v1.6
		c0,2.4,0.3,4.8,1,7.1c0.2,0.9-0.3,1.8-1.2,2c-0.9,0.3-1.8-0.3-2-1.2c-0.7-2.6-1.1-5.3-1.1-8v-1.6c0-4.2-3.5-7.7-7.7-7.7
		s-7.7,3.5-7.7,7.7v1.6c0,5.6-1.5,11.1-4.5,16c-1.5,2.6-2.8,5.6-3.7,8.9c3.9-4.5,9.6-7.2,15.9-7.2c6.2,0,12,2.8,15.9,7.2
		c-0.4-1.4-0.8-2.7-1.3-4c-0.3-0.9,0.1-1.8,0.9-2.2c0.9-0.4,1.8,0.1,2.2,0.9c1.7,4.2,2.7,9,3.2,14c0,0.5-0.1,0.9-0.4,1.3
		C103.2,65.7,102.7,65.9,102.2,65.9z"/>
</g>
<g>
	<path class="st0" d="M96.7,47.2c-0.6,0-1.1-0.3-1.4-0.8c-0.3-0.4-0.5-0.9-0.7-1.3c-0.4-0.8-0.1-1.8,0.7-2.3s1.8-0.1,2.3,0.7
		c0.2,0.4,0.4,0.8,0.6,1.1c0.5,0.8,0.2,1.8-0.6,2.3C97.3,47.1,97,47.2,96.7,47.2z"/>
</g>
</svg>
