<svg enable-background="new 0 0 167 167" viewBox="0 0 167 167" xmlns="http://www.w3.org/2000/svg"><g fill="#04111d"><path d="m83.3 167.3c-46 0-83.4-37.4-83.4-83.4s37.4-83.4 83.4-83.4 83.4 37.4 83.4 83.4-37.4 83.4-83.4 83.4zm0-163.5c-44.2 0-80.1 36-80.1 80.1s35.9 80.1 80.1 80.1 80.1-35.9 80.1-80.1c0-44.1-36-80.1-80.1-80.1z"/><path d="m61.1 88.6h-1.3c-.9 0-1.7-.7-1.7-1.7s.7-1.7 1.7-1.7h1.3c.9 0 1.7.7 1.7 1.7s-.7 1.7-1.7 1.7z"/><path d="m86.4 88.6h-20.1c-.9 0-1.7-.7-1.7-1.7s.7-1.7 1.7-1.7h18.4v-2.9h-53.8v2.9h23.5c.9 0 1.7.7 1.7 1.7s-.7 1.7-1.7 1.7h-25.2c-.9 0-1.7-.7-1.7-1.7v-6.2c0-.9.7-1.7 1.7-1.7h57.1c.9 0 1.7.7 1.7 1.7v6.3c.1.9-.7 1.6-1.6 1.6z"/><path d="m80.2 63.9c-.9 0-1.7-.7-1.7-1.7v-1c0-.9.7-1.7 1.7-1.7.9 0 1.7.7 1.7 1.7v1c-.1.9-.8 1.7-1.7 1.7z"/><path d="m86.4 88.7h-6.2c-.9 0-1.7-.7-1.7-1.7v-20.1c0-.9.7-1.7 1.7-1.7.9 0 1.7.7 1.7 1.7v18.4h2.9v-53.7h-2.9v23.8c0 .9-.7 1.7-1.7 1.7-.9 0-1.7-.7-1.7-1.7v-25.5c0-.9.7-1.7 1.7-1.7h6.2c.9 0 1.7.7 1.7 1.7v57.1c0 1-.8 1.7-1.7 1.7z"/><path d="m107.4 82.4h-1.7c-.9 0-1.7-.7-1.7-1.7 0-.9.7-1.7 1.7-1.7h1.7c.9 0 1.7.7 1.7 1.7s-.8 1.7-1.7 1.7z"/><path d="m137.3 88.6h-57.1c-.9 0-1.7-.7-1.7-1.7v-6.2c0-.9.7-1.7 1.7-1.7h19.5c.9 0 1.7.7 1.7 1.7 0 .9-.7 1.7-1.7 1.7h-17.9v2.9h53.8v-2.9h-23c-.9 0-1.7-.7-1.7-1.7 0-.9.7-1.7 1.7-1.7h24.7c.9 0 1.7.7 1.7 1.7v6.3c0 .9-.8 1.6-1.7 1.6z"/><path d="m86.4 139.6h-6.2c-.9 0-1.7-.7-1.7-1.7v-57.1c0-.9.7-1.7 1.7-1.7h6.2c.9 0 1.7.7 1.7 1.7v21.2c0 .9-.7 1.7-1.7 1.7s-1.7-.7-1.7-1.7v-19.6h-2.9v53.8h2.9v-23.6c0-.9.7-1.7 1.7-1.7s1.7.7 1.7 1.7v25.2c0 1-.8 1.8-1.7 1.8z"/><path d="m86.4 109.8c-.9 0-1.7-.7-1.7-1.7v-.5c0-.9.7-1.7 1.7-1.7s1.7.7 1.7 1.7v.5c0 1-.8 1.7-1.7 1.7z"/></g><path d="m32.7 62.3c-1.9 0-3.5 1.6-3.5 3.5v21.2h20.6v-10.9c0-1.9 1.6-3.5 3.5-3.5s3.5-1.6 3.5-3.5v-18.9c0-1.8-1.5-3.3-3.3-3.3h-13.9c-1.8 0-3.3 1.5-3.3 3.3v8.6c0 2-1.6 3.5-3.6 3.5z" fill="#f34b00"/><path d="m36.7 82h-.8c-.9 0-1.7-.7-1.7-1.7s.7-1.7 1.7-1.7h.8c.9 0 1.7.7 1.7 1.7s-.7 1.7-1.7 1.7z" fill="#fff" opacity=".25"/><path d="m49.6 82h-7.5c-.9 0-1.7-.7-1.7-1.7s.7-1.7 1.7-1.7h7.5c.9 0 1.7.7 1.7 1.7s-.8 1.7-1.7 1.7z" fill="#fff" opacity=".25"/><g fill="#f34b00"><path d="m104.8 33.4c0-1.9-1.6-3.5-3.5-3.5h-21.1v20.6h10.9c1.9 0 3.5 1.6 3.5 3.5s1.6 3.5 3.5 3.5h18.9c1.8 0 3.3-1.5 3.3-3.3v-13.9c0-1.8-1.5-3.3-3.3-3.3h-8.6c-2-.1-3.6-1.6-3.6-3.6z"/><path d="m133.8 105.5c1.9 0 3.5-1.6 3.5-3.5v-21.2h-20.6v10.9c0 1.9-1.6 3.5-3.5 3.5s-3.5 1.6-3.5 3.5v18.9c0 1.8 1.5 3.3 3.3 3.3h14c1.8 0 3.3-1.5 3.3-3.3v-8.6c0-2 1.6-3.5 3.5-3.5z"/><path d="m61.7 134.4c0 1.9 1.6 3.5 3.5 3.5h21.2v-20.6h-10.9c-1.9 0-3.5-1.6-3.5-3.5s-1.6-3.5-3.5-3.5h-18.9c-1.8 0-3.3 1.5-3.3 3.3v13.9c0 1.8 1.5 3.3 3.3 3.3h8.6c1.9.1 3.5 1.7 3.5 3.6z"/></g><circle cx="83.3" cy="83.6" fill="#f8f7f5" r="12.4"/><path d="m83.3 97.7c-7.8 0-14.1-6.3-14.1-14.1s6.3-14.1 14.1-14.1 14.1 6.3 14.1 14.1-6.3 14.1-14.1 14.1zm0-24.9c-5.9 0-10.8 4.8-10.8 10.8 0 5.9 4.8 10.8 10.8 10.8 5.9 0 10.8-4.8 10.8-10.8-.1-5.9-4.9-10.8-10.8-10.8z" fill="#04111d"/><path d="m77.5 85.3c-.9 0-1.7-.7-1.7-1.7 0-4.1 3.3-7.4 7.4-7.4.9 0 1.7.7 1.7 1.7s-.7 1.7-1.7 1.7c-2.3 0-4.1 1.8-4.1 4.1.1.8-.7 1.6-1.6 1.6z" fill="#fff"/><path d="m49.8 88.7h-20.6c-.9 0-1.7-.7-1.7-1.7v-21.2c0-2.9 2.3-5.2 5.2-5.2 1 0 1.8-.8 1.8-1.8v-8.6c0-2.8 2.2-5 5-5h13.9c2.8 0 5 2.2 5 5v18.9c0 2.9-2.3 5.2-5.2 5.2-1 0-1.8.8-1.8 1.8v10.9c.1.9-.7 1.7-1.6 1.7zm-18.9-3.4h17.2v-9.2c0-2.9 2.3-5.2 5.2-5.2 1 0 1.8-.8 1.8-1.8v-18.9c0-.9-.7-1.7-1.7-1.7h-13.8c-.9 0-1.7.7-1.7 1.7v8.6c0 2.9-2.3 5.2-5.2 5.2-1 0-1.8.8-1.8 1.8z" fill="#04111d"/><path d="m86.8 39.1c-.9 0-1.7-.7-1.7-1.7v-.8c0-.9.7-1.7 1.7-1.7.9 0 1.7.7 1.7 1.7v.8c0 .9-.7 1.7-1.7 1.7z" fill="#fff" opacity=".25"/><path d="m86.8 51.9c-.9 0-1.7-.7-1.7-1.7v-7.5c0-.9.7-1.7 1.7-1.7.9 0 1.7.7 1.7 1.7v7.5c0 1-.7 1.7-1.7 1.7z" fill="#fff" opacity=".25"/><path d="m117 59.2h-18.9c-2.9 0-5.2-2.3-5.2-5.2 0-1-.8-1.8-1.8-1.8h-10.9c-.9 0-1.7-.7-1.7-1.7v-20.6c0-.9.7-1.7 1.7-1.7h21.2c2.9 0 5.2 2.3 5.2 5.2 0 1 .8 1.8 1.8 1.8h8.6c2.8 0 5 2.2 5 5v13.9c0 2.8-2.3 5.1-5 5.1zm-35.2-10.4h9.2c2.9 0 5.2 2.3 5.2 5.2 0 1 .8 1.8 1.8 1.8h19c.9 0 1.7-.7 1.7-1.7v-13.8c0-.9-.7-1.7-1.7-1.7h-8.6c-2.9 0-5.2-2.3-5.2-5.2 0-1-.8-1.8-1.8-1.8h-19.6z" fill="#04111d"/><path d="m130.6 89.1h-.8c-.9 0-1.7-.7-1.7-1.7s.7-1.7 1.7-1.7h.8c.9 0 1.7.7 1.7 1.7s-.7 1.7-1.7 1.7z" fill="#fff" opacity=".25"/><path d="m124.5 89.1h-7.5c-.9 0-1.7-.7-1.7-1.7s.7-1.7 1.7-1.7h7.5c.9 0 1.7.7 1.7 1.7s-.8 1.7-1.7 1.7z" fill="#fff" opacity=".25"/><path d="m127 122.6h-13.9c-2.8 0-5-2.2-5-5v-18.9c0-2.9 2.3-5.2 5.2-5.2 1 0 1.8-.8 1.8-1.8v-10.9c0-.9.7-1.7 1.7-1.7h20.6c.9 0 1.7.7 1.7 1.7v21.2c0 2.9-2.3 5.2-5.2 5.2-1 0-1.8.8-1.8 1.8v8.6c-.1 2.7-2.4 5-5.1 5zm-8.6-40.2v9.2c0 2.9-2.3 5.2-5.2 5.2-1 0-1.8.8-1.8 1.8v18.9c0 .9.8 1.7 1.7 1.7h13.9c.9 0 1.7-.7 1.7-1.7v-8.5c0-2.9 2.3-5.2 5.2-5.2 1 0 1.8-.8 1.8-1.8v-19.6z" fill="#04111d"/><path d="m79.7 132.9c-.9 0-1.7-.7-1.7-1.7v-.8c0-.9.7-1.7 1.7-1.7s1.7.7 1.7 1.7v.8c0 1-.8 1.7-1.7 1.7z" fill="#fff" opacity=".25"/><path d="m79.7 126.8c-.9 0-1.7-.7-1.7-1.7v-7.5c0-.9.7-1.7 1.7-1.7s1.7.7 1.7 1.7v7.5c0 .9-.8 1.7-1.7 1.7z" fill="#fff" opacity=".25"/><path d="m86.4 139.6h-21.2c-2.9 0-5.2-2.3-5.2-5.2 0-1-.8-1.8-1.8-1.8h-8.6c-2.8 0-5-2.2-5-5v-13.9c0-2.8 2.2-5 5-5h18.9c2.9 0 5.2 2.3 5.2 5.2 0 1 .8 1.8 1.8 1.8h10.9c.9 0 1.7.7 1.7 1.7v20.6c0 .8-.8 1.6-1.7 1.6zm-36.8-27.6c-.9 0-1.7.7-1.7 1.7v13.9c0 .9.7 1.7 1.7 1.7h8.6c2.9 0 5.2 2.3 5.2 5.2 0 1 .8 1.8 1.8 1.8h19.5v-17.3h-9.2c-2.9 0-5.2-2.3-5.2-5.2 0-1-.8-1.8-1.8-1.8z" fill="#04111d"/></svg>