<svg enable-background="new 0 0 167 167" viewBox="0 0 167 167" xmlns="http://www.w3.org/2000/svg"><path d="m83.3 167.4c-46 0-83.4-37.4-83.4-83.4s37.4-83.5 83.4-83.5 83.4 37.4 83.4 83.4-37.4 83.5-83.4 83.5zm0-163.5c-44.1 0-80.1 35.9-80.1 80s36 80.1 80.1 80.1 80.1-35.9 80.1-80.1-35.9-80-80.1-80z" fill="#04111d"/><path d="m47.8 159.2c-.2 0-.5-.1-.7-.2-6.8-3.3-13.2-7.5-18.9-12.6-.5-.5-.7-1.2-.5-1.8s.9-1.1 1.6-1.1h18.6c.9 0 1.7.7 1.7 1.7v12.3c0 .6-.3 1.1-.8 1.4-.4.3-.7.3-1 .3zm-13.9-12.3c3.8 3 8 5.7 12.3 8v-8z" fill="#04111d"/><path d="m49.4 146.9h-20.1c-.4 0-.8-.1-1.1-.4-2.2-2-4.4-4.1-6.3-6.2-.4-.5-.6-1.2-.3-1.8s.9-1 1.5-1h26.3c2.6 0 4.7 2.1 4.7 4.7s-2.1 4.7-4.7 4.7zm-19.5-3.3h19.5c.8 0 1.4-.6 1.4-1.4s-.6-1.4-1.4-1.4h-22.4c.9 1 1.9 1.9 2.9 2.8z" fill="#04111d"/><circle cx="32.9" cy="99.6" fill="#f34b00" r="16.9"/><path d="m24 107.6c0-9.3 7.6-16.9 16.9-16.9 2.6 0 5.1.6 7.3 1.6-2.7-5.7-8.5-9.6-15.3-9.6-9.3 0-16.9 7.6-16.9 16.9 0 6.7 3.9 12.5 9.6 15.3-1-2.2-1.6-4.7-1.6-7.3z" fill="#f34b00"/><path d="m32.9 118.2c-10.2 0-18.6-8.3-18.6-18.6 0-10.2 8.3-18.6 18.6-18.6 10.2 0 18.6 8.3 18.6 18.6s-8.3 18.6-18.6 18.6zm0-33.8c-8.4 0-15.2 6.8-15.2 15.2s6.8 15.2 15.2 15.2 15.2-6.8 15.2-15.2c.1-8.4-6.8-15.2-15.2-15.2z" fill="#04111d"/><path d="m34 98.1h-2.1c-.1 0-.2-.1-.2-.2v-2.4c0-.1.1-.2.2-.2h3.8c.9 0 1.5-.7 1.5-1.5 0-.9-.7-1.5-1.5-1.5h-1.3v-2.7c0-.6-.5-1.2-1.2-1.2-.6 0-1.2.5-1.2 1.2v2.7h-.2c-1.8 0-3.3 1.5-3.3 3.3v2.4c0 1.8 1.5 3.3 3.3 3.3h2.2c.1 0 .2.1.2.2v2.4c0 .1-.1.2-.2.2h-3.8c-.9 0-1.5.7-1.5 1.5 0 .9.7 1.5 1.5 1.5h1.9v2.7c0 .6.5 1.2 1.2 1.2.6 0 1.2-.5 1.2-1.2v-2.7c1.6-.2 2.9-1.6 2.9-3.3v-2.4c-.1-1.8-1.6-3.3-3.4-3.3z" fill="#f8f7f5"/><circle cx="83.6" cy="91.8" fill="#f34b00" r="16.9"/><path d="m74.7 99.7c0-9.3 7.6-16.9 16.9-16.9 2.6 0 5.1.6 7.3 1.6-2.7-5.7-8.5-9.6-15.3-9.6-9.3 0-16.9 7.6-16.9 16.9 0 6.7 3.9 12.5 9.6 15.3-1.1-2.2-1.6-4.7-1.6-7.3z" fill="#f34b00"/><path d="m83.6 110.3c-10.2 0-18.6-8.3-18.6-18.5s8.3-18.6 18.6-18.6c10.2 0 18.6 8.3 18.6 18.6 0 10.2-8.4 18.5-18.6 18.5zm0-33.8c-8.4 0-15.2 6.8-15.2 15.2s6.8 15.2 15.2 15.2 15.2-6.8 15.2-15.2c0-8.3-6.8-15.2-15.2-15.2z" fill="#04111d"/><path d="m84.6 90.2h-2.1c-.1 0-.2-.1-.2-.2v-2.4c0-.1.1-.2.2-.2h3.8c.9 0 1.5-.7 1.5-1.5 0-.9-.7-1.5-1.5-1.5h-1.3v-2.7c0-.6-.5-1.2-1.2-1.2s-1.2.5-1.2 1.2v2.7h-.2c-1.8 0-3.3 1.5-3.3 3.3v2.3c0 1.8 1.5 3.3 3.3 3.3h2.1c.1 0 .2.1.2.2v2.5c0 .1-.1.2-.2.2h-3.8c-.9 0-1.5.7-1.5 1.5 0 .9.7 1.5 1.5 1.5h1.9v2.7c0 .6.5 1.2 1.2 1.2s1.2-.5 1.2-1.2v-2.7c1.6-.2 2.9-1.6 2.9-3.3v-2.4c0-1.8-1.4-3.3-3.3-3.3z" fill="#f8f7f5"/><circle cx="134" cy="64.3" fill="#f34b00" r="16.9"/><path d="m125.1 72.2c0-9.3 7.6-16.9 16.9-16.9 2.6 0 5.1.6 7.3 1.6-2.7-5.7-8.5-9.6-15.3-9.6-9.3 0-16.9 7.6-16.9 16.9 0 6.7 3.9 12.5 9.6 15.3-1-2.2-1.6-4.6-1.6-7.3z" fill="#f34b00"/><path d="m134 82.9c-10.2 0-18.6-8.3-18.6-18.6 0-10.2 8.3-18.6 18.6-18.6 10.2 0 18.6 8.3 18.6 18.6 0 10.2-8.3 18.6-18.6 18.6zm0-33.9c-8.4 0-15.2 6.8-15.2 15.2s6.8 15.2 15.2 15.2 15.2-6.8 15.2-15.2c.1-8.3-6.8-15.2-15.2-15.2z" fill="#04111d"/><path d="m135.1 62.7h-2.1c-.1 0-.2-.1-.2-.2v-2.4c0-.1.1-.2.2-.2h3.8c.9 0 1.5-.7 1.5-1.5 0-.9-.7-1.5-1.5-1.5h-1.3v-2.7c0-.6-.5-1.2-1.2-1.2-.6 0-1.2.5-1.2 1.2v2.7h-.1c-1.8 0-3.3 1.5-3.3 3.3v2.4c0 1.8 1.5 3.3 3.3 3.3h2.1c.1 0 .2.1.2.2v2.4c0 .1-.1.2-.2.2h-3.8c-.9 0-1.5.7-1.5 1.5 0 .9.7 1.5 1.5 1.5h1.9v2.7c0 .6.5 1.2 1.2 1.2.6 0 1.2-.5 1.2-1.2v-2.7c1.6-.2 2.9-1.6 2.9-3.3v-2.4c-.1-1.8-1.6-3.3-3.4-3.3z" fill="#f8f7f5"/><path d="m35.5 133.7c-.8 0-1.7-.1-2.5-.3-.6-.2-1-.6-1.2-1.2-.9-3.3.1-6.8 2.5-9.2s5.9-3.4 9.2-2.5c.6.2 1 .6 1.2 1.2.9 3.3-.1 6.8-2.5 9.2-1.7 1.8-4.2 2.8-6.7 2.8zm-.6-3.4c1.8.1 3.7-.5 5-1.8s2-3.2 1.8-5c-1.9-.2-3.7.5-5 1.8s-2 3.2-1.8 5z" fill="#04111d"/><path d="m33.3 140.8c-.9 0-1.7-.7-1.7-1.7v-21.6c0-.9.7-1.7 1.7-1.7.9 0 1.7.7 1.7 1.7v21.6c-.1 1-.8 1.7-1.7 1.7z" fill="#04111d"/><path d="m75.1 146c-.9 0-1.7-.7-1.7-1.7v-.6c0-.9.7-1.7 1.7-1.7.9 0 1.7.7 1.7 1.7v.6c0 1-.7 1.7-1.7 1.7z" fill="#fff" opacity=".25"/><path d="m75.1 160.2c-.9 0-1.7-.7-1.7-1.7v-8.2c0-.9.7-1.7 1.7-1.7.9 0 1.7.7 1.7 1.7v8.2c0 1-.7 1.7-1.7 1.7z" fill="#fff" opacity=".25"/><g fill="#04111d"><path d="m83.3 167.4c-5.1 0-10.2-.5-15.2-1.4-.8-.1-1.4-.8-1.4-1.6v-27.3c0-.9.7-1.7 1.7-1.7h29.7c.9 0 1.7.7 1.7 1.7v7c0 .9-.7 1.7-1.7 1.7s-1.7-.7-1.7-1.7v-5.3h-26.3v24.2c8.7 1.4 17.7 1.4 26.4 0v-10.5c0-.9.7-1.7 1.7-1.7s1.7.7 1.7 1.7v11.9c0 .8-.6 1.5-1.4 1.6-5 .9-10.1 1.4-15.2 1.4z"/><path d="m99.8 138.7h-32.9c-2.6 0-4.7-2.1-4.7-4.7s2.1-4.7 4.7-4.7h32.9c2.6 0 4.7 2.1 4.7 4.7s-2.1 4.7-4.7 4.7zm-32.9-6.1c-.8 0-1.4.6-1.4 1.4s.6 1.4 1.4 1.4h32.9c.8 0 1.4-.6 1.4-1.4s-.6-1.4-1.4-1.4z"/><path d="m81.3 125.5c-2.5 0-5-1-6.8-2.8-2.4-2.4-3.4-5.9-2.5-9.2.2-.6.6-1 1.2-1.2 3.3-.9 6.8.1 9.2 2.5s3.4 6 2.5 9.3c-.2.6-.6 1-1.2 1.2-.8.1-1.6.2-2.4.2zm-6.2-10.2c-.2 1.8.5 3.7 1.8 5s3.3 2 5 1.8c.2-1.8-.5-3.7-1.8-5s-3.2-2-5-1.8z"/><path d="m28.9 133c-2.5 0-5-1-6.8-2.8-2.4-2.4-3.4-5.9-2.5-9.2.2-.6.6-1 1.2-1.2 3.3-.9 6.8.1 9.2 2.5s3.4 6 2.5 9.3c-.2.6-.6 1-1.2 1.2-.8.1-1.6.2-2.4.2zm-6.3-10.2c-.2 1.8.5 3.7 1.8 5s3.2 2 5 1.8c.2-1.8-.5-3.7-1.8-5s-3.1-2-5-1.8z"/><path d="m85.9 125.5c-.8 0-1.6-.1-2.5-.3-.6-.2-1-.6-1.2-1.2-.9-3.3.1-6.8 2.5-9.2s5.9-3.4 9.2-2.5c.6.2 1 .6 1.2 1.2.9 3.3-.1 6.8-2.5 9.2-1.7 1.8-4.2 2.8-6.7 2.8zm-.6-3.3c1.8.2 3.7-.5 5-1.8s2-3.2 1.8-5c-1.8-.2-3.7.5-5 1.8s-2 3.1-1.8 5z"/><path d="m83.6 132.6c-.9 0-1.7-.7-1.7-1.7v-21.6c0-.9.7-1.7 1.7-1.7s1.7.7 1.7 1.7v21.7c0 .9-.7 1.6-1.7 1.6z"/><path d="m118.8 159.2c-.3 0-.6-.1-.9-.3-.5-.3-.8-.8-.8-1.4v-47.2c0-.9.7-1.7 1.7-1.7h29.7c.9 0 1.7.7 1.7 1.7v22.8c0 .4-.1.7-.3 1-8 10.5-18.5 19.1-30.3 24.9-.3.2-.5.2-.8.2zm1.7-47.1v42.8c10.2-5.4 19.3-13 26.4-22.2v-20.5h-26.4z"/><path d="m150.1 112.1h-32.9c-2.6 0-4.7-2.1-4.7-4.7s2.1-4.7 4.7-4.7h32.9c2.6 0 4.7 2.1 4.7 4.7s-2.1 4.7-4.7 4.7zm-32.8-6.1c-.8 0-1.4.6-1.4 1.4s.6 1.4 1.4 1.4h32.9c.8 0 1.4-.6 1.4-1.4s-.6-1.4-1.4-1.4z"/><path d="m131.7 98.9c-2.5 0-5-1-6.8-2.8-2.4-2.4-3.4-5.9-2.5-9.2.2-.6.6-1 1.2-1.2 3.3-.9 6.8.1 9.2 2.5s3.4 6 2.5 9.2c-.2.6-.6 1-1.2 1.2-.8.2-1.6.3-2.4.3zm-6.2-10.2c-.2 1.8.5 3.7 1.8 5s3.2 2 5 1.8c.2-1.8-.5-3.7-1.8-5-1.4-1.3-3.2-1.9-5-1.8z"/><path d="m136.3 98.9c-.8 0-1.7-.1-2.5-.3-.6-.2-1-.6-1.2-1.2-.9-3.3.1-6.8 2.5-9.2s6-3.4 9.2-2.5c.6.2 1 .6 1.2 1.2.9 3.3-.1 6.8-2.5 9.2-1.8 1.8-4.2 2.8-6.7 2.8zm-.6-3.4c1.8.2 3.7-.5 5-1.8s2-3.2 1.8-5c-1.8-.1-3.7.5-5 1.8-1.4 1.3-2 3.2-1.8 5z"/><path d="m134 106c-.9 0-1.7-.7-1.7-1.7v-21.6c0-.9.7-1.7 1.7-1.7.9 0 1.7.7 1.7 1.7v21.6c0 .9-.8 1.7-1.7 1.7z"/><path d="m30.8 67.5c-.8 0-1.5-.6-1.6-1.4-.2-.9.4-1.8 1.3-1.9l47.5-8.5 47.5-24.1c.8-.4 1.8-.1 2.2.7s.1 1.8-.7 2.2l-47.8 24.2c-.1.1-.3.1-.5.2l-47.7 8.6s-.1 0-.2 0z"/></g><path d="m30.8 73.3c-4.1 0-7.5-3.4-7.5-7.5s3.4-7.5 7.5-7.5 7.5 3.4 7.5 7.5-3.4 7.5-7.5 7.5zm0-11.7c-2.3 0-4.2 1.9-4.2 4.2s1.9 4.2 4.2 4.2 4.2-1.9 4.2-4.2-1.9-4.2-4.2-4.2z" fill="#1e1f25"/><circle cx="30.8" cy="65.8" fill="#ff476e" r="5.8"/><circle cx="78.5" cy="57.2" fill="#ff476e" r="5.8"/><circle cx="126.2" cy="33.1" fill="#ff476e" r="5.8"/><circle cx="30.8" cy="65.8" fill="#dcdcdc" r="5.8"/><path d="m30.8 73.3c-4.1 0-7.5-3.4-7.5-7.5s3.4-7.5 7.5-7.5 7.5 3.4 7.5 7.5-3.4 7.5-7.5 7.5zm0-11.7c-2.3 0-4.2 1.9-4.2 4.2s1.9 4.2 4.2 4.2 4.2-1.9 4.2-4.2-1.9-4.2-4.2-4.2z" fill="#04111d"/><circle cx="78.5" cy="57.2" fill="#dcdcdc" r="5.8"/><path d="m78.5 64.7c-4.1 0-7.5-3.4-7.5-7.5s3.4-7.5 7.5-7.5 7.5 3.4 7.5 7.5-3.4 7.5-7.5 7.5zm0-11.6c-2.3 0-4.2 1.9-4.2 4.2s1.9 4.2 4.2 4.2 4.2-1.9 4.2-4.2-1.9-4.2-4.2-4.2z" fill="#04111d"/><circle cx="126.2" cy="33.1" fill="#dcdcdc" r="5.8"/><path d="m126.2 40.6c-4.1 0-7.5-3.4-7.5-7.5s3.4-7.5 7.5-7.5 7.5 3.4 7.5 7.5-3.4 7.5-7.5 7.5zm0-11.7c-2.3 0-4.2 1.9-4.2 4.2s1.9 4.2 4.2 4.2 4.2-1.9 4.2-4.2-1.9-4.2-4.2-4.2z" fill="#04111d"/><path d="m125.5 119.4c-.9 0-1.7-.7-1.7-1.7v-.6c0-.9.7-1.7 1.7-1.7.9 0 1.7.7 1.7 1.7v.6c0 .9-.8 1.7-1.7 1.7z" fill="#fff" opacity=".25"/><path d="m125.5 140.8c-.9 0-1.7-.7-1.7-1.7v-15.4c0-.9.7-1.7 1.7-1.7.9 0 1.7.7 1.7 1.7v15.4c0 1-.8 1.7-1.7 1.7z" fill="#fff" opacity=".25"/></svg>