<?xml version="1.0" encoding="utf-8"?>
<!-- Generator: Adobe Illustrator 22.1.0, SVG Export Plug-In . SVG Version: 6.00 Build 0)  -->
<svg version="1.1" id="Layer_1" xmlns="http://www.w3.org/2000/svg" xmlns:xlink="http://www.w3.org/1999/xlink" x="0px" y="0px"
	 viewBox="0 0 167 167" style="enable-background:new 0 0 167 167;" xml:space="preserve">
<style type="text/css">
	.st0{fill:#F34B00;}
	.st1{fill:#04111D;}
	.st2{fill:#F8F7F5;}
	.st3{opacity:0.25;}
	.st4{fill:#FFFFFF;}
	.st5{fill:#1E1F25;}
</style>
<g>
	<path class="st0" d="M83.6,133.9L83.6,133.9c-12.4-7.6-28.1-7.6-40.5,0l0,0V44.6l0,0c12.4-7.6,28.1-7.6,40.5,0l0,0V133.9z"/>
</g>
<g>
	<path class="st0" d="M83.6,133.9L83.6,133.9c12.4-7.6,28.1-7.6,40.5,0l0,0V44.6l0,0C111.7,37,96,37,83.6,44.6l0,0V133.9z"/>
</g>
<g>
	<path class="st1" d="M83.6,135.6c-0.3,0-0.6-0.1-0.9-0.2c-12-7.3-26.8-7.3-38.8,0c-0.8,0.5-1.8,0.2-2.3-0.5
		c-0.5-0.8-0.2-1.8,0.5-2.3c13-8,29.2-8,42.3,0c0.8,0.5,1,1.5,0.5,2.3C84.7,135.3,84.2,135.6,83.6,135.6z"/>
</g>
<g>
	<path class="st1" d="M124.1,135.6c-0.3,0-0.6-0.1-0.9-0.2c-12-7.3-26.8-7.3-38.8,0c-0.8,0.5-1.8,0.2-2.3-0.5
		c-0.5-0.8-0.2-1.8,0.5-2.3c13-8,29.2-8,42.3,0c0.8,0.5,1,1.5,0.5,2.3C125.2,135.3,124.7,135.6,124.1,135.6z"/>
</g>
<g>
	<path class="st1" d="M83.6,166.5c-46,0-83.4-37.4-83.4-83.4S37.6-0.3,83.6-0.3S167,37.1,167,83.1S129.6,166.5,83.6,166.5z M83.6,3
		C39.4,3,3.5,39,3.5,83.1c0,44.1,35.9,80.1,80.1,80.1s80.1-35.9,80.1-80.1C163.7,39,127.7,3,83.6,3z"/>
</g>
<g>
	<path class="st2" d="M83.6,123.2L83.6,123.2c-12.4-7.6-28.1-7.6-40.5,0l0,0V33.9l0,0c12.4-7.6,28.1-7.6,40.5,0l0,0V123.2z"/>
</g>
<g class="st3">
	<path class="st4" d="M49.8,42.4c-0.9,0-1.7-0.7-1.7-1.7v-2.9c0-0.9,0.7-1.7,1.7-1.7c0.9,0,1.7,0.7,1.7,1.7v2.9
		C51.4,41.7,50.7,42.4,49.8,42.4z"/>
</g>
<g class="st3">
	<path class="st4" d="M49.8,114.6c-0.9,0-1.7-0.7-1.7-1.7V47c0-0.9,0.7-1.7,1.7-1.7c0.9,0,1.7,0.7,1.7,1.7v65.9
		C51.4,113.8,50.7,114.6,49.8,114.6z"/>
</g>
<g>
	<path class="st2" d="M83.6,123.2L83.6,123.2c12.4-7.6,28.1-7.6,40.5,0l0,0V33.9l0,0c-12.4-7.6-28.1-7.6-40.5,0l0,0V123.2z"/>
</g>
<g>
	<path class="st1" d="M43.1,39.5c-0.9,0-1.7-0.7-1.7-1.7v-4c0-0.6,0.3-1.1,0.8-1.4c13-8,29.2-8,42.3,0c0.5,0.3,0.8,0.8,0.8,1.4v3.9
		c0,0.9-0.7,1.7-1.7,1.7s-1.7-0.7-1.7-1.7v-2.9c-11.5-6.7-25.6-6.7-37.2,0v3C44.7,38.8,44,39.5,43.1,39.5z"/>
</g>
<g>
	<path class="st1" d="M43.1,46.9c-0.9,0-1.7-0.7-1.7-1.7v-1.9c0-0.9,0.7-1.7,1.7-1.7s1.7,0.7,1.7,1.7v1.9
		C44.7,46.2,44,46.9,43.1,46.9z"/>
</g>
<g>
	<path class="st1" d="M43.1,63.9c-0.9,0-1.7-0.7-1.7-1.7v-9.8c0-0.9,0.7-1.7,1.7-1.7s1.7,0.7,1.7,1.7v9.8
		C44.7,63.2,44,63.9,43.1,63.9z"/>
</g>
<g>
	<path class="st1" d="M83.6,124.9c-0.3,0-0.6-0.1-0.9-0.2c-12-7.3-26.8-7.3-38.8,0c-0.5,0.3-1.2,0.3-1.7,0c-0.5-0.3-0.9-0.8-0.9-1.5
		V69.6c0-0.9,0.7-1.7,1.7-1.7s1.7,0.7,1.7,1.7v50.8c11.7-6.1,25.5-6.1,37.2,0v-7.9c0-0.9,0.7-1.7,1.7-1.7s1.7,0.7,1.7,1.7v10.7
		c0,0.6-0.3,1.2-0.9,1.5C84.2,124.8,83.9,124.9,83.6,124.9z"/>
</g>
<g>
	<path class="st5" d="M83.6,107.7c-0.9,0-1.7-0.7-1.7-1.7V44.6c0-0.9,0.7-1.7,1.7-1.7s1.7,0.7,1.7,1.7V106
		C85.3,106.9,84.5,107.7,83.6,107.7z"/>
</g>
<g>
	<path class="st1" d="M83.6,124.9c-0.6,0-1.1-0.3-1.4-0.8c-0.5-0.8-0.2-1.8,0.5-2.3c12.2-7.5,27.2-8,39.7-1.4V34.8
		c-11.8-6.9-26.3-6.7-38,0.5c-0.8,0.5-1.8,0.2-2.3-0.5c-0.5-0.8-0.2-1.8,0.5-2.3c13-8,29.2-8,42.3,0c0.5,0.3,0.8,0.8,0.8,1.4v89.4
		c0,0.6-0.3,1.2-0.9,1.5c-0.5,0.3-1.2,0.3-1.7,0c-12-7.3-26.8-7.3-38.8,0C84.2,124.8,83.9,124.9,83.6,124.9z"/>
</g>
<g>
	<path class="st2" d="M128.4,83.8L128.4,83.8c-2.4,0-4.3,1.9-4.3,4.3v25.5h8.6V88.1C132.7,85.7,130.8,83.8,128.4,83.8z"/>
</g>
<g>
	<path class="st1" d="M132.7,115.3h-8.6c-0.9,0-1.7-0.7-1.7-1.7V88.1c0-3.3,2.7-6,6-6s6,2.7,6,6v25.5
		C134.4,114.5,133.7,115.3,132.7,115.3z M125.8,111.9h5.3V88.1c0-1.5-1.2-2.6-2.6-2.6c-1.5,0-2.6,1.2-2.6,2.6V111.9z"/>
</g>
<g>
	<path class="st2" d="M137.1,83.8c-2.4,0-4.3,1.9-4.3,4.3v12.6c0,3.9-1.8,7.5-4.8,9.9l-24.8,19.6c-3,2.4-4.8,6-4.8,9.9l-0.1,23.5
		c6.3-1.2,12.4-3,18.2-5.6v-10.4c0-3.4,1.3-6.6,3.7-9l17.5-17.5c2.4-2.4,3.7-5.6,3.7-9V88.1C141.4,85.7,139.4,83.8,137.1,83.8z"/>
</g>
<g>
	<path class="st1" d="M98.3,165.2c-0.4,0-0.8-0.1-1.1-0.4c-0.4-0.3-0.6-0.8-0.6-1.3l0.1-23.5c0-4.4,2-8.5,5.4-11.2l24.8-19.6
		c2.6-2.1,4.2-5.2,4.2-8.6V88.1c0-3.3,2.7-6,6-6c3.3,0,6,2.7,6,6v24.1c0,3.8-1.5,7.4-4.2,10.1l-17.5,17.5c-2.1,2.1-3.2,4.8-3.2,7.8
		v10.4c0,0.7-0.4,1.3-1,1.5c-5.9,2.6-12.2,4.5-18.6,5.7C98.5,165.2,98.4,165.2,98.3,165.2z M137.1,85.4c-1.5,0-2.6,1.2-2.6,2.6v12.6
		c0,4.4-2,8.5-5.4,11.2l-24.8,19.6c-2.6,2.1-4.2,5.2-4.2,8.6l0,21.4c5.1-1.1,10.1-2.6,14.8-4.6v-9.3c0-3.8,1.5-7.4,4.2-10.1
		l17.5-17.5c2.1-2.1,3.2-4.8,3.2-7.8V88.1C139.7,86.6,138.5,85.4,137.1,85.4z M116.5,157.9L116.5,157.9L116.5,157.9z"/>
</g>
<g>
	<path class="st2" d="M38.7,83.8L38.7,83.8c2.4,0,4.3,1.9,4.3,4.3v25.5h-8.6V88.1C34.4,85.7,36.4,83.8,38.7,83.8z"/>
</g>
<g>
	<path class="st1" d="M43.1,115.3h-8.6c-0.9,0-1.7-0.7-1.7-1.7V88.1c0-3.3,2.7-6,6-6s6,2.7,6,6v25.5C44.7,114.5,44,115.3,43.1,115.3
		z M36.1,111.9h5.3V88.1c0-1.5-1.2-2.6-2.6-2.6s-2.6,1.2-2.6,2.6V111.9z"/>
</g>
<g>
	<path class="st2" d="M68.9,163.5l-0.1-23.5c0-3.9-1.8-7.5-4.8-9.9l-24.8-19.6c-3-2.4-4.8-6.1-4.8-9.9V88.1c0-2.4-1.9-4.3-4.3-4.3
		c-2.4,0-4.3,1.9-4.3,4.3v24.1c0,3.4,1.3,6.6,3.7,9L47,138.6c2.4,2.4,3.7,5.6,3.7,9V158C56.4,160.5,62.5,162.4,68.9,163.5z"/>
</g>
<g>
	<path class="st1" d="M68.9,165.2c-0.1,0-0.2,0-0.3,0c-6.4-1.2-12.6-3.1-18.6-5.7c-0.6-0.3-1-0.9-1-1.5v-10.4c0-2.9-1.1-5.7-3.2-7.8
		l-17.5-17.5c-2.7-2.7-4.2-6.3-4.2-10.1V88.1c0-3.3,2.7-6,6-6s6,2.7,6,6v12.6c0,3.4,1.5,6.5,4.2,8.6L65,128.9
		c3.4,2.7,5.4,6.8,5.4,11.2l0.1,23.5c0,0.5-0.2,1-0.6,1.3C69.6,165.1,69.2,165.2,68.9,165.2z M52.3,156.9c4.8,2,9.8,3.6,14.8,4.6
		l0-21.4c0-3.4-1.5-6.5-4.2-8.6l-24.8-19.6c-3.5-2.7-5.4-6.8-5.4-11.2V88.1c0-1.5-1.2-2.6-2.6-2.6c-1.5,0-2.6,1.2-2.6,2.6v24.1
		c0,2.9,1.1,5.7,3.2,7.8l17.5,17.5c2.7,2.7,4.2,6.3,4.2,10.1V156.9z"/>
</g>
<g>
	<circle class="st2" cx="83.6" cy="75.7" r="26.1"/>
</g>
<g>
	<path class="st0" d="M96.1,75.7c0,0-0.1,7.6-1.9,13.8c0,0,6.1,2.4,7.5,5c0,0,8.7-7.5,7.2-18.8H96.1z"/>
</g>
<g>
	<path class="st0" d="M81.8,49.6c0,0-10.8,0.2-17.2,8.3c0,0,3.5,3.8,8,5.8C72.5,63.6,73.7,52.2,81.8,49.6z"/>
</g>
<g>
	<path class="st0" d="M83.6,75.7H71.1c0,0,0,8.9,1.9,13.8c0,0,6.4-3,10.6-2.2V75.7z"/>
</g>
<g>
	<path class="st0" d="M94.7,63.6c0,0-5.5,2.7-11.1,2.5V50.4C83.6,50.4,90.9,48.4,94.7,63.6z"/>
</g>
<g>
	<path class="st0" d="M73,89.5c0,0-5.5,1.9-7.5,5c0,0,7.4,6.9,15.5,7.1C81,101.7,74.7,98.7,73,89.5z"/>
</g>
<g>
	<path class="st5" d="M83.6,103.5c-7.2,0-14-2.8-19.2-7.7c-0.3-0.3-0.5-0.8-0.5-1.2c0-0.5,0.2-0.9,0.5-1.2c5.2-5,12-7.7,19.2-7.7
		s14,2.8,19.2,7.7c0.3,0.3,0.5,0.8,0.5,1.2c0,0.5-0.2,0.9-0.5,1.2C97.6,100.7,90.8,103.5,83.6,103.5z M68,94.5
		c4.4,3.6,9.8,5.6,15.6,5.6s11.2-2,15.6-5.6C90.4,87.3,76.8,87.3,68,94.5z"/>
</g>
<g>
	<path class="st1" d="M83.6,103.5c-0.9,0-1.7-0.7-1.7-1.7V49.6c0-0.9,0.7-1.7,1.7-1.7s1.7,0.7,1.7,1.7v52.2
		C85.3,102.7,84.5,103.5,83.6,103.5z"/>
</g>
<g>
	<path class="st5" d="M109.7,77.4H57.5c-0.9,0-1.7-0.7-1.7-1.7s0.7-1.7,1.7-1.7h52.2c0.9,0,1.7,0.7,1.7,1.7S110.6,77.4,109.7,77.4z"
		/>
</g>
<g>
	<path class="st5" d="M83.6,103.5c-7.9,0-14.1-12.2-14.1-27.8c0-15.6,6.2-27.8,14.1-27.8s14.1,12.2,14.1,27.8
		C97.7,91.3,91.5,103.5,83.6,103.5z M83.6,51.2c-5.2,0-10.8,9.8-10.8,24.4c0,14.6,5.6,24.4,10.8,24.4s10.8-9.8,10.8-24.4
		C94.4,61.1,88.8,51.2,83.6,51.2z"/>
</g>
<g>
	<path class="st5" d="M83.6,67.8c-7.7,0-15-3.2-20.3-8.8c-0.6-0.6-0.6-1.6,0-2.3c5.2-5.6,12.6-8.8,20.3-8.8s15,3.2,20.3,8.8
		c0.6,0.6,0.6,1.6,0,2.3C98.6,64.6,91.2,67.8,83.6,67.8z M66.9,57.8c4.5,4.3,10.4,6.6,16.7,6.6c6.3,0,12.2-2.3,16.7-6.6
		c-4.5-4.3-10.4-6.6-16.7-6.6C77.3,51.2,71.4,53.6,66.9,57.8z"/>
</g>
<g>
	<path class="st5" d="M83.6,103.5c-15.3,0-27.8-12.5-27.8-27.8s12.5-27.8,27.8-27.8s27.8,12.5,27.8,27.8S98.9,103.5,83.6,103.5z
		 M83.6,51.2c-13.5,0-24.4,11-24.4,24.4c0,13.5,11,24.4,24.4,24.4s24.4-11,24.4-24.4C108,62.2,97.1,51.2,83.6,51.2z"/>
</g>
<g>
	<path class="st1" d="M83.6,135.6c-0.9,0-1.7-0.7-1.7-1.7v-12c0-0.9,0.7-1.7,1.7-1.7s1.7,0.7,1.7,1.7v12
		C85.3,134.9,84.5,135.6,83.6,135.6z"/>
</g>
</svg>
