<svg enable-background="new 0 0 167 167" viewBox="0 0 167 167" xmlns="http://www.w3.org/2000/svg"><path d="m83.2 166.5c-46 0-83.4-37.4-83.4-83.4s37.5-83.4 83.4-83.4 83.4 37.4 83.4 83.4-37.4 83.4-83.4 83.4zm0-163.4c-44.1 0-80 35.9-80 80s35.9 80.1 80.1 80.1 80.1-35.9 80.1-80.1-36-80-80.2-80z" fill="#04111d"/><circle cx="83.2" cy="61.4" fill="#f8f7f5" r="47.8"/><path d="m106.1 61.4s-.1 13.9-3.4 25.2c0 0 11.2 4.4 13.7 9.2 0 0 15.8-13.8 13.2-34.5h-23.5z" fill="#f34b00"/><path d="m79.9 13.6s-19.7.4-31.5 15.1c0 0 6.4 7 14.6 10.6 0 0 2.1-20.9 16.9-25.7z" fill="#f34b00"/><path d="m83.2 61.4h-22.8s0 16.2 3.4 25.2c0 0 11.6-5.5 19.4-4.1z" fill="#f34b00"/><path d="m103.5 39.3s-10 4.9-20.2 4.5v-28.7c-.1 0 13.3-3.6 20.2 24.2z" fill="#f34b00"/><path d="m63.9 86.6s-10.1 3.5-13.7 9.2c0 0 13.5 12.6 28.3 13.1 0 0-11.5-5.5-14.6-22.3z" fill="#f34b00"/><g fill="#04111d"><path d="m83.2 110.8c-12.8 0-25-4.9-34.2-13.8-.3-.3-.5-.7-.5-1.2s.2-.9.5-1.2c9.2-8.9 21.4-13.8 34.2-13.8s25 4.9 34.2 13.8c.3.3.5.7.5 1.2s-.2.9-.5 1.2c-9.2 8.9-21.3 13.8-34.2 13.8zm-30.6-15c8.4 7.5 19.3 11.6 30.6 11.6 11.4 0 22.2-4.1 30.6-11.6-8.4-7.5-19.3-11.6-30.6-11.6s-22.1 4.1-30.6 11.6z"/><path d="m83.2 110.8c-.9 0-1.7-.7-1.7-1.7v-95.5c0-.9.7-1.7 1.7-1.7.9 0 1.7.7 1.7 1.7v95.6c0 .9-.7 1.6-1.7 1.6z"/><path d="m83.2 110.8c-13.7 0-24.5-21.7-24.5-49.4s10.8-49.4 24.5-49.4 24.5 21.7 24.5 49.4-10.7 49.4-24.5 49.4zm0-95.5c-11.5 0-21.1 21.1-21.1 46.1s9.7 46.1 21.1 46.1 21.1-21.1 21.1-46.1-9.6-46.1-21.1-46.1z"/><path d="m41.8 39.3c-.3 0-.6-.1-.8-.2-.8-.5-1.1-1.5-.6-2.3l.4-.7c.5-.8 1.5-1 2.3-.6.8.5 1 1.5.6 2.3l-.4.6c-.4.6-.9.9-1.5.9z"/><path d="m37.3 49.8c-.2 0-.3 0-.5-.1-.9-.3-1.4-1.2-1.1-2.1.5-1.8 1.2-3.7 1.9-5.4.4-.9 1.3-1.3 2.2-.9.8.4 1.2 1.3.9 2.2-.7 1.6-1.3 3.3-1.8 5.1-.2.7-.9 1.2-1.6 1.2z"/><path d="m83.2 110.8c-27.3 0-49.4-22.2-49.4-49.4 0-2.5.2-5.1.6-7.5.1-.9 1-1.5 1.9-1.4s1.5 1 1.4 1.9c-.4 2.3-.5 4.7-.5 7 0 25.4 20.7 46.1 46.1 46.1s46.1-20.7 46.1-46.1-20.7-46.1-46.1-46.1c-14 0-27.1 6.3-35.9 17.2-.6.7-1.6.8-2.3.3-.7-.6-.8-1.6-.3-2.3 9.4-11.7 23.5-18.4 38.5-18.4 27.3 0 49.4 22.2 49.4 49.4s-22.2 49.3-49.5 49.3z"/></g><path d="m100.4 129.2-7.2-4.4c-2.8-1.8-4.6-4.9-4.6-8.2v-.9c0-1.6 1-3.1 2.4-3.7 6.2-2.9 10.5-9.3 10.5-16.6v-8.5c0-10.1-8.2-18.3-18.3-18.3s-18.3 8.2-18.3 18.3v8.5c0 7.3 4.3 13.7 10.5 16.6 1.5.7 2.4 2.1 2.4 3.7v.9c0 3.3-1.7 6.4-4.6 8.2l-7.2 4.4c-5.8 3.6-9.4 9.9-9.4 16.8v14.5c8.3 2.8 17.2 4.4 26.5 4.4s18.2-1.5 26.5-4.4v-14.5c.1-6.8-3.4-13.2-9.2-16.8z" fill="#f8f7f5"/><path d="m100.4 129.2-4.9-3c-3.8 1.3-7.9 2.1-12.2 2.1s-8.4-.7-12.2-2.1l-4.9 3c-5.8 3.6-9.4 9.9-9.4 16.8v14.5c8.3 2.8 17.2 4.4 26.5 4.4s18.2-1.5 26.5-4.4v-14.5c-.1-6.8-3.6-13.2-9.4-16.8z" fill="#f8f7f5"/><path d="m67.9 165.1c-1 0-1.7-.8-1.7-1.7v-.6c0-2.1 0-2.1 0-4.2v-.6c0-.9.7-1.7 1.6-1.7s1.7.7 1.7 1.6v.6 4.3.6c.1.9-.7 1.7-1.6 1.7z" fill="#04111d"/><path d="m67.9 155.4c-.9 0-1.7-.7-1.7-1.7v-.7c0-.9.7-1.7 1.7-1.7.9 0 1.7.7 1.7 1.7v.8c0 .8-.8 1.6-1.7 1.6z" fill="#04111d"/><path d="m98.6 165.1c-.9 0-1.6-.7-1.7-1.6v-.6c-.1-2.1-.1-2.1 0-4.3v-.6c0-.9.7-1.6 1.7-1.6.9 0 1.6.8 1.6 1.7v.6c-.1 2.1-.1 2.1 0 4.2v.6c.1.8-.6 1.5-1.6 1.6z" fill="#04111d"/><path d="m98.6 155.4c-.9 0-1.7-.7-1.7-1.7v-.7c0-.9.7-1.7 1.7-1.7s1.7.7 1.7 1.7v.8c0 .8-.8 1.6-1.7 1.6z" fill="#04111d"/><path d="m47 129.2-7.2-4.4c-2.8-1.8-4.6-4.9-4.6-8.2v-.9c0-1.6 1-3.1 2.4-3.7 6.2-2.9 10.5-9.3 10.5-16.6v-8.5c0-10.1-8.2-18.3-18.3-18.3s-18.3 8.2-18.3 18.3v8.5c0 7.3 4.3 13.7 10.5 16.6 1.5.7 2.4 2.1 2.4 3.7v.9c0 3.3-1.7 6.4-4.6 8.2l-5.1 3.1c9.8 14.9 24.4 26.4 41.5 32.4v-14.3c.2-6.8-3.4-13.2-9.2-16.8z" fill="#f8f7f5"/><path d="m47 129.2-4.9-3c-3.8 1.3-7.9 2.1-12.2 2.1s-8.4-.7-12.2-2.1l-2.8 1.7c9.8 14.9 24.4 26.4 41.5 32.4v-14.3c0-6.8-3.6-13.2-9.4-16.8z" fill="#f8f7f5"/><path d="m142 116.6v-.9c0-1.6 1-3.1 2.4-3.7 6.2-2.9 10.5-9.3 10.5-16.6v-8.5c0-10.1-8.2-18.3-18.3-18.3s-18.3 8.2-18.3 18.3v8.5c0 7.3 4.3 13.7 10.5 16.6 1.5.7 2.4 2.1 2.4 3.7v.9c0 3.3-1.7 6.4-4.6 8.2l-7.2 4.4c-5.8 3.6-9.4 9.9-9.4 16.8v14.3c17.1-6 31.7-17.5 41.5-32.4l-5.1-3.1c-2.7-1.8-4.4-4.9-4.4-8.2z" fill="#f8f7f5"/><path d="m83.2 166.5c-9.2 0-18.3-1.5-27-4.5-.7-.2-1.1-.9-1.1-1.6v-14.4c0-7.4 3.9-14.3 10.2-18.2l7.2-4.4c2.3-1.4 3.8-4 3.8-6.8v-.9c0-1-.6-1.8-1.5-2.2-7-3.3-11.5-10.4-11.5-18.1v-8.5c0-11 9-20 20-20s20 9 20 20v8.5c0 7.7-4.5 14.8-11.5 18.1-.9.4-1.5 1.3-1.5 2.2v.9c0 2.8 1.4 5.3 3.8 6.8l7.2 4.4c6.3 3.9 10.2 10.8 10.2 18.2v14.5c0 .7-.5 1.3-1.1 1.6-8.8 2.9-17.9 4.4-27.2 4.4zm-24.7-7.2c16 5.2 33.6 5.2 49.6 0v-13.3c0-6.2-3.3-12.1-8.6-15.4l-7.2-4.4c-3.4-2.1-5.4-5.7-5.4-9.6v-.9c0-2.2 1.3-4.3 3.4-5.2 5.8-2.7 9.6-8.7 9.6-15.1v-8.5c0-9.2-7.5-16.7-16.7-16.7s-16.7 7.5-16.7 16.7v8.5c0 6.4 3.8 12.3 9.6 15.1 2.1 1 3.4 3 3.4 5.2v.9c0 3.9-2.1 7.6-5.4 9.6l-7.2 4.4c-5.3 3.3-8.6 9.2-8.6 15.4v13.3z" fill="#04111d"/><g fill="#f8f7f5" opacity=".25"><path d="m74.8 131.8 2.1-1.3c1.1-.7 2.1-1.5 3-2.4"/><path d="m74.8 133.4c-.6 0-1.1-.3-1.4-.8-.5-.8-.2-1.8.5-2.3l2.1-1.3c1-.6 1.9-1.3 2.7-2.1.7-.7 1.7-.7 2.4 0s.7 1.7 0 2.4c-1 1-2.1 1.9-3.3 2.6l-2.1 1.3c-.3.1-.6.2-.9.2z"/></g><g fill="#f8f7f5" opacity=".25"><path d="m68.7 135.5.9-.6"/><path d="m68.7 137.2c-.5 0-1-.2-1.3-.7-.5-.7-.4-1.8.3-2.3.3-.2.7-.5 1-.7.8-.5 1.8-.2 2.3.5.5.8.2 1.8-.5 2.3-.3.2-.6.4-.8.5-.3.3-.6.4-1 .4z"/></g><g fill="#f8f7f5" opacity=".25"><path d="m86.8 128.1c.9.9 1.9 1.7 3 2.4l2.1 1.3"/><path d="m91.8 133.4c-.3 0-.6-.1-.9-.2l-2.1-1.3c-1.2-.7-2.3-1.6-3.3-2.6-.7-.7-.7-1.7 0-2.4s1.7-.7 2.4 0c.8.8 1.7 1.5 2.7 2.1l2.1 1.3c.8.5 1 1.5.5 2.3-.3.5-.8.8-1.4.8z"/></g><g fill="#f8f7f5" opacity=".25"><path d="m96.9 134.9c.3.2.6.4.9.6"/><path d="m97.9 137.2c-.3 0-.7-.1-1-.3s-.5-.4-.8-.5c-.8-.5-1-1.5-.5-2.3s1.5-1 2.3-.5c.4.2.7.5 1 .7.7.5.9 1.6.3 2.3-.3.4-.8.6-1.3.6z"/></g><g fill="#f8f7f5" opacity=".25"><path d="m101.9 140.5c.8 1.7 1.2 3.6 1.2 5.5v9.5"/><path d="m103.1 157.2c-.9 0-1.7-.7-1.7-1.7v-9.5c0-1.7-.4-3.3-1.1-4.8-.4-.8 0-1.8.8-2.2s1.8 0 2.2.8c.9 2 1.4 4 1.4 6.2v9.5c.1 1-.6 1.7-1.6 1.7z"/></g><path d="m56.4 162c-.2 0-.4 0-.5-.1-17.3-6-32.3-17.7-42.4-33.1-.2-.4-.3-.8-.2-1.3.1-.4.4-.8.7-1.1l5.1-3.1c2.3-1.4 3.8-4 3.8-6.8v-.9c0-1-.6-1.8-1.5-2.2-7-3.3-11.5-10.4-11.5-18.1v-8.5c0-11 9-20 20-20s20 9 20 20v8.5c0 7.7-4.5 14.8-11.5 18.1-.9.4-1.5 1.3-1.5 2.2v.9c0 2.8 1.4 5.3 3.8 6.8l7.2 4.4c6.3 3.9 10.2 10.8 10.2 18.2v14.3c0 .5-.3 1-.7 1.4-.3.3-.7.4-1 .4zm-39.2-33.5c9.2 13.4 22.4 23.7 37.5 29.5v-12c0-6.2-3.3-12.1-8.6-15.4l-7.2-4.4c-3.4-2.1-5.4-5.7-5.4-9.6v-.9c0-2.2 1.3-4.3 3.4-5.2 5.8-2.7 9.6-8.7 9.6-15.1v-8.5c0-9.2-7.5-16.7-16.7-16.7s-16.7 7.5-16.7 16.7v8.5c0 6.4 3.8 12.3 9.6 15.1 2.1 1 3.4 3 3.4 5.2v.9c0 3.9-2.1 7.6-5.4 9.6z" fill="#1e1f25"/><path d="m110.1 162c-.3 0-.7-.1-1-.3-.4-.3-.7-.8-.7-1.4v-14.3c0-7.4 3.9-14.3 10.2-18.2l7.2-4.4c2.4-1.5 3.8-4 3.8-6.8v-.9c0-.9-.6-1.8-1.5-2.2-7-3.3-11.5-10.4-11.5-18.1v-8.5c0-11 9-20 20-20s20 9 20 20v8.5c0 7.7-4.5 14.8-11.5 18.1-.9.4-1.5 1.3-1.5 2.2v.9c0 2.7 1.4 5.3 3.8 6.8l5.1 3.1c.4.2.7.6.7 1.1.1.4 0 .9-.2 1.3-10.1 15.3-25.1 27.1-42.3 33.1-.2 0-.4 0-.6 0zm26.5-91.8c-9.2 0-16.7 7.5-16.7 16.7v8.5c0 6.4 3.8 12.3 9.6 15.1 2.1 1 3.4 3 3.4 5.2v.9c0 3.9-2 7.5-5.4 9.6l-7.2 4.4c-5.3 3.3-8.6 9.2-8.6 15.4v12c15.1-5.8 28.3-16.2 37.5-29.5l-3.6-2.2c-3.3-2-5.4-5.7-5.4-9.6v-.9c0-2.2 1.3-4.3 3.4-5.2 5.8-2.7 9.6-8.7 9.6-15.1v-8.5c.1-9.3-7.4-16.8-16.6-16.8z" fill="#04111d"/><path d="m136.6 128.3c-4.3 0-8.4-.7-12.2-2.1l-4.9 3c-5.8 3.6-9.4 9.9-9.4 16.8v14.3c17.1-6 31.7-17.5 41.5-32.4l-2.8-1.7c-3.8 1.3-7.9 2.1-12.2 2.1z" fill="#f8f7f5"/><g fill="#f8f7f5" opacity=".25"><path d="m27.6 133.5c-1.1-1.2-2.1-2.4-3.1-3.7l-1.4-2.2"/><path d="m27.6 135.1c-.5 0-.9-.2-1.2-.5-1.1-1.2-2.2-2.5-3.2-3.7l-1.5-2.3c-.5-.8-.3-1.8.5-2.3s1.8-.3 2.3.5l1.4 2.2c.9 1.1 1.9 2.3 2.9 3.4.6.7.6 1.7-.1 2.4-.3.2-.7.3-1.1.3z"/></g><g fill="#f8f7f5" opacity=".25"><path d="m34.9 140.5c-.4-.4-.8-.7-1.2-1.1"/><path d="m34.9 142.2c-.4 0-.8-.1-1.1-.4l-1.3-1.1c-.7-.6-.8-1.7-.1-2.4.6-.7 1.7-.8 2.4-.1l1.2 1.1c.7.6.8 1.7.2 2.4-.4.3-.9.5-1.3.5z"/></g><g fill="#f8f7f5" opacity=".25"><path d="m49.9 150.4c-3.2-1.6-6.3-3.4-9.3-5.5"/><path d="m49.9 152.1c-.3 0-.5-.1-.7-.2-3.3-1.6-6.5-3.5-9.5-5.6-.8-.5-.9-1.6-.4-2.3.5-.8 1.6-.9 2.3-.4 2.9 2 6 3.8 9.1 5.4.8.4 1.2 1.4.7 2.2-.3.5-.9.9-1.5.9z"/></g><path d="m28.7 77c-.8 0-1.6-.6-1.7-1.5s.6-1.7 1.5-1.9c.6-.1 1.1-.1 1.7-.1.9 0 1.7.7 1.7 1.7s-.7 1.7-1.7 1.7c-.4 0-.9 0-1.3.1 0 0-.1 0-.2 0z" fill="#ffeeeb"/><path d="m17.3 99.2v-.1c-.9-6-1.6-11.4-.1-16.5l.3-.8c0-.1.3-.6.3-.7 1.2-2 2.4-3.5 3.8-4.7.7-.6 1.8-.5 2.3.2.6.7.5 1.8-.2 2.3-1.1.9-2.1 2.2-3.1 3.8l-.4.9c-1.2 4.2-.6 9.2.2 14.7l-1.4.7z" fill="#ffeeeb"/><path d="m56.4 162c-.2 0-.4 0-.5-.1-17.3-6-32.3-17.7-42.4-33.1-.2-.4-.3-.8-.2-1.3.1-.4.4-.8.7-1.1l5.1-3.1c2.3-1.4 3.8-4 3.8-6.8v-.9c0-1-.6-1.8-1.5-2.2-7-3.3-11.5-10.4-11.5-18.1v-8.5c0-11 9-20 20-20s20 9 20 20v8.5c0 7.7-4.5 14.8-11.5 18.1-.9.4-1.5 1.3-1.5 2.2v.9c0 2.8 1.4 5.3 3.8 6.8l7.2 4.4c6.3 3.9 10.2 10.8 10.2 18.2v14.3c0 .5-.3 1-.7 1.4-.3.3-.7.4-1 .4zm-39.2-33.5c9.2 13.4 22.4 23.7 37.5 29.5v-12c0-6.2-3.3-12.1-8.6-15.4l-7.2-4.4c-3.4-2.1-5.4-5.7-5.4-9.6v-.9c0-2.2 1.3-4.3 3.4-5.2 5.8-2.7 9.6-8.7 9.6-15.1v-8.5c0-9.2-7.5-16.7-16.7-16.7s-16.7 7.5-16.7 16.7v8.5c0 6.4 3.8 12.3 9.6 15.1 2.1 1 3.4 3 3.4 5.2v.9c0 3.9-2.1 7.6-5.4 9.6z" fill="#04111d"/><path d="m28.7 77c-.8 0-1.6-.6-1.7-1.5s.6-1.7 1.5-1.9c.6-.1 1.1-.1 1.7-.1.9 0 1.7.7 1.7 1.7s-.7 1.7-1.7 1.7c-.4 0-.9 0-1.3.1 0 0-.1 0-.2 0z" fill="#04111d"/><path d="m17.3 99.2v-.1c-.9-6-1.6-11.4-.1-16.5l.3-.8c0-.1.3-.6.3-.7 1.2-2 2.4-3.5 3.8-4.7.7-.6 1.8-.5 2.3.2.6.7.5 1.8-.2 2.3-1.1.9-2.1 2.2-3.1 3.8l-.4.9c-1.2 4.2-.6 9.2.2 14.7l-1.4.7z" fill="#04111d"/><path d="m56.4 162c-.2 0-.4 0-.5-.1-17.3-6-32.3-17.7-42.4-33.1-.2-.4-.3-.8-.2-1.3.1-.4.4-.8.7-1.1l2.8-1.7c.4-.3.9-.3 1.4-.2 7.5 2.6 15.8 2.6 23.4 0 .5-.2 1-.1 1.4.2l4.9 3c6.3 3.9 10.2 10.8 10.2 18.2v14.3c0 .5-.3 1-.7 1.4-.3.3-.7.4-1 .4zm-39.2-33.5c9.2 13.4 22.4 23.7 37.5 29.5v-12c0-6.2-3.3-12.1-8.6-15.4l-4.2-2.6c-7.8 2.5-16.3 2.5-24 0z" fill="#04111d"/><g fill="#f8f7f5" opacity=".25"><path d="m143.4 127.6-1.4 2.2c-1 1.3-2 2.5-3.1 3.7"/><path d="m138.9 135.1c-.4 0-.8-.1-1.1-.4-.7-.6-.7-1.7-.1-2.4 1.1-1.2 2.1-2.4 3-3.6l1.3-2c.5-.8 1.5-1 2.3-.5s1 1.5.5 2.3l-1.4 2.2c-1.1 1.4-2.2 2.7-3.3 3.9-.3.4-.7.5-1.2.5z"/></g><g fill="#f8f7f5" opacity=".25"><path d="m132.9 139.4c-.4.4-.8.7-1.2 1.1"/><path d="m131.6 142.2c-.5 0-.9-.2-1.3-.6-.6-.7-.5-1.8.2-2.4l1.2-1.1c.7-.6 1.7-.5 2.4.1.6.7.6 1.7-.1 2.4l-1.3 1.1c-.3.4-.7.5-1.1.5z"/></g><g fill="#f8f7f5" opacity=".25"><path d="m125.9 144.9c-3 2-6.1 3.9-9.3 5.5"/><path d="m116.6 152.1c-.6 0-1.2-.3-1.5-.9-.4-.8-.1-1.8.7-2.2 3.1-1.6 6.2-3.4 9.1-5.4.8-.5 1.8-.4 2.3.4s.3 1.8-.4 2.3c-3 2.1-6.2 4-9.5 5.6-.2.1-.5.2-.7.2z"/></g><g fill="#04111d"><path d="m83.2 166.5c-9.2 0-18.3-1.5-27-4.5-.7-.2-1.1-.9-1.1-1.6v-14.4c0-7.4 3.9-14.3 10.2-18.2l4.9-3c.4-.3.9-.3 1.4-.2 7.5 2.6 15.8 2.6 23.4 0 .5-.2 1-.1 1.4.2l4.9 3c6.3 3.9 10.2 10.8 10.2 18.2v14.5c0 .7-.5 1.3-1.1 1.6-8.8 2.9-17.9 4.4-27.2 4.4zm-24.7-7.2c16 5.2 33.6 5.2 49.6 0v-13.3c0-6.2-3.3-12.1-8.6-15.4l-4.2-2.6c-7.8 2.5-16.3 2.5-24 0l-4.2 2.6c-5.3 3.3-8.6 9.2-8.6 15.4z"/><path d="m82.2 77c-.8 0-1.6-.6-1.7-1.5s.6-1.7 1.5-1.9c.6-.1 1.1-.1 1.7-.1.9 0 1.7.7 1.7 1.7s-.7 1.7-1.7 1.7c-.4 0-.9 0-1.3.1-.1 0-.2 0-.2 0z"/><path d="m70.7 99.1v-.1c-.9-6-1.6-11.3-.1-16.4l.4-.9c0-.1.2-.5.2-.5 1.2-2 2.4-3.6 3.8-4.7.7-.6 1.8-.5 2.4.2s.5 1.8-.2 2.3c-1.1.9-2.1 2.2-3.1 3.8l-.4.9c-1.2 4.2-.6 9.2.2 14.7l-1.5.6z"/><path d="m135.4 77c-.8 0-1.6-.6-1.7-1.5s.6-1.7 1.5-1.9c.6-.1 1.1-.1 1.7-.1.9 0 1.7.7 1.7 1.7s-.7 1.7-1.7 1.7c-.4 0-.9 0-1.3.1 0 0-.1 0-.2 0z"/><path d="m124 99.2v-.1c-.9-6-1.6-11.4-.1-16.5l.3-.8c0-.1.3-.6.3-.7 1.2-2 2.4-3.6 3.8-4.7.7-.6 1.8-.5 2.4.2s.5 1.8-.2 2.3c-1.1.9-2.1 2.2-3.1 3.8l-.4.9c-1.2 4.2-.6 9.2.2 14.7l-1.6.5z"/><path d="m110.1 162c-.3 0-.7-.1-1-.3-.4-.3-.7-.8-.7-1.4v-14.3c0-7.4 3.9-14.3 10.2-18.2l4.9-3c.4-.3.9-.3 1.4-.2 7.5 2.6 15.8 2.6 23.4 0 .5-.2 1-.1 1.4.2l2.8 1.7c.4.2.7.6.8 1.1.1.4 0 .9-.2 1.3-10.1 15.3-25.1 27.1-42.3 33.1-.3 0-.5 0-.7 0zm14.5-34-4.2 2.6c-5.3 3.3-8.6 9.2-8.6 15.4v12c15.1-5.8 28.3-16.2 37.5-29.5l-.7-.4c-7.7 2.4-16.3 2.5-24-.1z"/></g><path d="m42.1 63c-.9 0-1.7-.7-1.7-1.7 0-14.2 7.1-27.5 18.9-35.5.8-.5 1.8-.3 2.3.4s.3 1.8-.4 2.3c-10.9 7.5-17.4 19.8-17.4 32.9 0 .9-.7 1.6-1.7 1.6z" fill="#fff" opacity=".25"/><path d="m53.3 34.9c-.4 0-.8-.1-1.1-.5-.7-.6-.7-1.7-.1-2.4 2.2-2.3 4.6-4.4 7.3-6.2.8-.5 1.8-.3 2.3.4s.3 1.8-.4 2.3c-2.4 1.6-4.7 3.6-6.7 5.7-.4.5-.9.7-1.3.7z" fill="#fff" opacity=".25"/><path d="m131 63h-95.5c-.9 0-1.7-.7-1.7-1.7 0-.9.7-1.7 1.7-1.7h95.5c.9 0 1.7.7 1.7 1.7s-.8 1.7-1.7 1.7z" fill="#04111d"/><path d="m83.2 45.5c-13.6 0-26.8-5.7-36.1-15.6-.6-.6-.6-1.6 0-2.3 9.3-9.9 22.5-15.6 36.1-15.6s26.8 5.7 36.1 15.6c.6.6.6 1.6 0 2.3-9.3 9.9-22.4 15.6-36.1 15.6zm-32.5-16.8c8.7 8.7 20.2 13.5 32.6 13.5s23.9-4.8 32.6-13.5c-8.7-8.7-20.2-13.5-32.6-13.5s-23.9 4.8-32.6 13.5z" fill="#04111d"/><path d="m29.5 107c-2.4 0-4.6-1.3-5.8-3.4-.5-.8-.2-1.8.6-2.3s1.8-.2 2.3.6c1.2 2.1 4.6 2.1 5.8 0 .5-.8 1.5-1.1 2.3-.6s1.1 1.5.6 2.3c-1.2 2.1-3.4 3.4-5.8 3.4z" fill="#04111d"/><path d="m83.3 107c-2.4 0-4.6-1.3-5.8-3.4-.5-.8-.2-1.8.6-2.3.8-.4 1.8-.2 2.3.6 1.2 2.1 4.6 2.1 5.8 0 .5-.8 1.5-1.1 2.3-.6s1.1 1.5.6 2.3c-1.2 2.2-3.5 3.4-5.8 3.4z" fill="#04111d"/><path d="m137 107c-2.4 0-4.6-1.3-5.8-3.4-.5-.8-.2-1.8.6-2.3s1.8-.2 2.3.6c1.2 2.1 4.6 2.1 5.8 0 .5-.8 1.5-1.1 2.3-.6s1.1 1.5.6 2.3c-1.2 2.1-3.5 3.4-5.8 3.4z" fill="#04111d"/></svg>