<?xml version="1.0" encoding="utf-8"?>
<!-- Generator: Adobe Illustrator 22.1.0, SVG Export Plug-In . SVG Version: 6.00 Build 0)  -->
<svg version="1.1" id="Layer_1" xmlns="http://www.w3.org/2000/svg" xmlns:xlink="http://www.w3.org/1999/xlink" x="0px" y="0px"
	 viewBox="0 0 167 167" style="enable-background:new 0 0 167 167;" xml:space="preserve">
<style type="text/css">
	.st0{fill:#1C1D21;}
	.st1{fill:#F34B00;}
</style>
<g>
	<path class="st0" d="M141.2,122.6H27.8c-3.3,0-5.9-2.6-5.9-5.9c0-3.2,2.6-5.9,5.9-5.9h113.5c3.2,0,5.9,2.6,5.9,5.9
		C147.1,120,144.5,122.6,141.2,122.6z M27.8,114.2c-1.4,0-2.6,1.1-2.6,2.5c0,1.4,1.1,2.6,2.6,2.6h113.5c1.4,0,2.5-1.1,2.5-2.6
		c0-1.4-1.1-2.5-2.5-2.5H27.8z"/>
</g>
<g>
	<path class="st0" d="M84.5,166.3c-12.8,0-25.1-2.8-36.6-8.4c-0.4-0.2-0.8-0.6-0.9-1.1s0-1,0.3-1.4l12-16.2c0.6-0.7,1.6-0.9,2.3-0.3
		c0.7,0.6,0.9,1.6,0.3,2.3l-10.8,14.6c10.5,4.8,21.7,7.2,33.3,7.2s22.8-2.4,33.3-7.2l-24.6-33.1H75.8l-4,5.3
		c-0.6,0.7-1.6,0.9-2.3,0.3c-0.7-0.6-0.9-1.6-0.3-2.3l4.5-6c0.3-0.4,0.8-0.7,1.3-0.7h19c0.5,0,1,0.2,1.3,0.7l26.3,35.5
		c0.3,0.4,0.4,0.9,0.3,1.4s-0.4,0.9-0.9,1.1C109.6,163.5,97.3,166.3,84.5,166.3z"/>
</g>
<g>
	<path class="st0" d="M65.2,135.7c-0.3,0-0.7-0.1-1-0.3c-0.7-0.6-0.9-1.6-0.3-2.3l1.6-2.2c0.6-0.7,1.6-0.9,2.3-0.3
		c0.7,0.6,0.9,1.6,0.3,2.3l-1.6,2.2C66.3,135.5,65.7,135.7,65.2,135.7z"/>
</g>
<g>
	<path class="st0" d="M84.5,133.6c-3.7,0-6.6-3-6.6-6.6c0-3.7,3-6.6,6.6-6.6c3.7,0,6.6,3,6.6,6.6C91.1,130.6,88.1,133.6,84.5,133.6z
		 M84.5,123.6c-1.8,0-3.3,1.5-3.3,3.3c0,1.8,1.5,3.3,3.3,3.3c1.8,0,3.3-1.5,3.3-3.3C87.8,125.1,86.3,123.6,84.5,123.6z"/>
</g>
<g>
	<path class="st0" d="M84,167c-46,0-83.5-37.5-83.5-83.5C0.5,37.5,38,0,84,0c46,0,83.5,37.5,83.5,83.5C167.5,129.5,130,167,84,167z
		 M84,3.3c-44.2,0-80.2,36-80.2,80.2c0,44.2,36,80.2,80.2,80.2c44.2,0,80.2-36,80.2-80.2C164.1,39.3,128.2,3.3,84,3.3z"/>
</g>
<g>
	<path class="st1" d="M71.7,30.1l1.6-1.3c0,0,6.1,4,10.2,12.1h-0.7H72.2C72.2,40.9,71,33.6,71.7,30.1z"/>
</g>
<g>
	<path class="st1" d="M96.9,30.1l-1.6-1.3c0,0-6.1,4-10.2,12.1h0.7h10.6C96.3,40.9,97.5,33.6,96.9,30.1z"/>
</g>
<g>
	<path class="st0" d="M93.1,114.2H74.8c-0.5,0-1-0.2-1.3-0.6L40.6,75c-6.1-7.1-9.5-16.2-9.5-25.6c0-15,12.2-27.2,27.2-27.2
		c8.8,0,17.1,4.3,22.2,11.5l3.5,4.9l3.5-4.9c5.1-7.2,13.4-11.5,22.2-11.5c15,0,27.2,12.2,27.2,27.2c0,9.4-3.4,18.5-9.5,25.6
		l-33,38.6C94.1,114,93.6,114.2,93.1,114.2z M75.6,110.8h16.7l32.5-38c5.6-6.5,8.7-14.9,8.7-23.4c0-13.1-10.7-23.8-23.8-23.8
		c-7.7,0-15,3.8-19.4,10.1l-4.9,6.9c-0.6,0.9-2.1,0.9-2.7,0l-4.9-6.9C73.3,29.3,66,25.6,58.3,25.6c-13.1,0-23.8,10.7-23.8,23.8
		c0,8.6,3.1,16.9,8.7,23.4L75.6,110.8z"/>
</g>
<g>
	<path class="st0" d="M55.9,92c-0.4,0-0.9-0.2-1.2-0.5c-0.6-0.7-0.6-1.7,0.1-2.4l4.5-4.3c4.5-4.2,7-10.1,7-16.2v-21
		c0-4.3,3.5-7.8,7.8-7.8H84c0.9,0,1.7,0.7,1.7,1.7s-0.7,1.7-1.7,1.7h-9.9c-2.5,0-4.5,2-4.5,4.5v21c0,7-2.9,13.8-8.1,18.7l-4.5,4.3
		C56.8,91.9,56.3,92,55.9,92z"/>
</g>
<g>
	<path class="st0" d="M71.7,43.2c-0.9,0-1.7-0.7-1.7-1.7V27.9c0-0.9,0.7-1.7,1.7-1.7s1.7,0.7,1.7,1.7v13.7
		C73.3,42.5,72.6,43.2,71.7,43.2z"/>
</g>
<g>
	<circle class="st0" cx="64.5" cy="33.3" r="2.2"/>
</g>
<g>
	<path class="st0" d="M96.3,43.2c-0.9,0-1.7-0.7-1.7-1.7V27.9c0-0.9,0.7-1.7,1.7-1.7S98,27,98,27.9v13.7
		C98,42.5,97.2,43.2,96.3,43.2z"/>
</g>
<g>
	<circle class="st0" cx="103.5" cy="33.3" r="2.2"/>
</g>
<g>
	<path class="st0" d="M112,92c-0.4,0-0.8-0.2-1.1-0.5l-4.5-4.3c-5.1-4.8-8.1-11.6-8.1-18.7v-21c0-2.5-2-4.5-4.5-4.5H84
		c-0.9,0-1.7-0.7-1.7-1.7s0.7-1.7,1.7-1.7h9.8c4.3,0,7.8,3.5,7.8,7.8v21c0,6.1,2.6,12,7,16.2l4.5,4.3c0.7,0.6,0.7,1.7,0.1,2.4
		C112.9,91.9,112.5,92,112,92z"/>
</g>
<g>
	<path class="st0" d="M84,100.9c-0.9,0-1.7-0.7-1.7-1.7C82.3,80.8,67.2,69.1,67,69c-0.7-0.6-0.9-1.6-0.3-2.3
		c0.6-0.7,1.6-0.9,2.3-0.3c0.7,0.5,16.6,12.8,16.6,32.9C85.7,100.1,84.9,100.9,84,100.9z"/>
</g>
<g>
	<path class="st0" d="M84,114.2c-0.9,0-1.7-0.7-1.7-1.7V99.2c0-20,16-32.3,16.6-32.9c0.7-0.6,1.8-0.4,2.3,0.3
		c0.6,0.7,0.4,1.8-0.3,2.3c-0.2,0.1-15.3,11.8-15.3,30.2v13.3C85.6,113.4,84.9,114.2,84,114.2z"/>
</g>
<g>
	<path class="st1" d="M31.1,91.3l-2.9-3.3c-4.1-4.6-9.3-8.2-15.1-10.3l0,0l0,0c1.5,6,4.4,11.5,8.5,16.2l2.9,3.3L31.1,91.3z"/>
</g>
<g>
	<path class="st0" d="M24.5,98.8c-0.5,0-0.9-0.2-1.3-0.6l-2.9-3.3C16.1,90.1,13,84.3,11.5,78c-0.1-0.6,0.1-1.2,0.5-1.7
		c0.5-0.4,1.1-0.5,1.7-0.3c6,2.3,11.4,6,15.7,10.8l2.9,3.3c0.3,0.3,0.4,0.8,0.4,1.2c0,0.4-0.2,0.9-0.6,1.2l-6.6,5.8
		C25.3,98.6,24.9,98.8,24.5,98.8z M15.7,80.6c1.6,4.4,4,8.6,7.1,12.1l1.8,2.1l4.1-3.6l-1.8-2.1C23.8,85.5,19.9,82.6,15.7,80.6z"/>
</g>
<g>
	<path class="st1" d="M37.9,111.2l-12-0.7l4.3,4.9c2.2,2.5,5.4,4,8.7,4.2l12,0.7l-4.3-4.9C44.4,112.9,41.3,111.4,37.9,111.2z"/>
</g>
<g>
	<path class="st1" d="M22.1,93.3l-12-0.7l4.3,4.9c2.2,2.5,5.4,4,8.7,4.2l12,0.7l-4.3-4.9C28.5,95,25.4,93.5,22.1,93.3z"/>
</g>
<g>
	<path class="st1" d="M43.5,106.2l0.7-12l4.3,4.9c2.2,2.5,3.4,5.8,3.2,9.2l-0.7,12l-4.3-4.9C44.4,112.9,43.3,109.6,43.5,106.2z"/>
</g>
<g>
	<path class="st1" d="M27.6,88.4l0.7-12l4.3,4.9c2.2,2.5,3.4,5.8,3.2,9.2l-0.7,12l-4.3-4.9C28.5,95,27.4,91.7,27.6,88.4z"/>
</g>
<g>
	<path class="st0" d="M51,121.9C51,121.9,50.9,121.9,51,121.9l-12.1-0.7c-3.8-0.2-7.3-1.9-9.9-4.8l-4.3-4.9
		c-0.4-0.5-0.6-1.2-0.3-1.8c0.3-0.6,0.9-1,1.6-0.9l12,0.7c3.8,0.2,7.4,2,9.9,4.8l4.3,4.9c0.4,0.5,0.6,1.2,0.3,1.8
		C52.2,121.6,51.6,121.9,51,121.9z M29.9,112.4l1.6,1.8c1.9,2.2,4.6,3.5,7.6,3.7l7.9,0.5l-1.6-1.8c-1.9-2.2-4.7-3.5-7.6-3.7
		L29.9,112.4z"/>
</g>
<g>
	<path class="st0" d="M35.1,104C35.1,104,35,104,35.1,104L23,103.3c-3.8-0.2-7.3-1.9-9.9-4.8l-4.3-4.9c-0.4-0.5-0.6-1.2-0.3-1.8
		c0.3-0.6,1-1,1.6-0.9l12,0.7c3.8,0.2,7.3,1.9,9.9,4.8l4.3,4.9c0.4,0.5,0.6,1.2,0.3,1.8C36.3,103.7,35.7,104,35.1,104z M14,94.5
		l1.6,1.8c1.9,2.2,4.6,3.5,7.6,3.7l7.9,0.5l-1.6-1.8c-2-2.2-4.6-3.5-7.6-3.7l0,0L14,94.5z"/>
</g>
<g>
	<path class="st0" d="M51,121.9c-0.5,0-0.9-0.2-1.3-0.6l-4.3-4.9c-2.5-2.9-3.8-6.5-3.6-10.4l0,0l0.7-12c0-0.7,0.5-1.3,1.1-1.5
		c0.6-0.2,1.3,0,1.8,0.5l4.3,4.9c2.5,2.8,3.8,6.6,3.6,10.4l-0.7,12c0,0.7-0.5,1.3-1.1,1.5C51.4,121.9,51.2,121.9,51,121.9z
		 M45.2,106.3c-0.2,2.9,0.8,5.8,2.8,7.9l1.6,1.8l0.5-7.9c0.2-2.9-0.8-5.8-2.8-7.9l-1.6-1.8L45.2,106.3z"/>
</g>
<g>
	<path class="st0" d="M35.1,104c-0.5,0-0.9-0.2-1.3-0.6l-4.3-4.9c-2.5-2.9-3.8-6.5-3.6-10.4l0,0l0.7-12c0-0.7,0.5-1.3,1.1-1.5
		c0.6-0.2,1.3,0,1.8,0.5l4.3,4.9c2.5,2.9,3.8,6.5,3.6,10.4l-0.7,12c0,0.7-0.5,1.3-1.1,1.5C35.5,104,35.3,104,35.1,104z M29.3,88.5
		c-0.2,2.9,0.8,5.8,2.8,7.9l1.6,1.8l0.5-7.9c0.2-2.9-0.8-5.7-2.8-7.9l-1.6-1.9L29.3,88.5z"/>
</g>
<g>
	<path class="st0" d="M63.5,136c-0.5,0-0.9-0.2-1.3-0.6l-28.4-32c-0.6-0.7-0.6-1.7,0.1-2.4c0.7-0.6,1.7-0.6,2.4,0.1l28.4,32
		c0.6,0.7,0.6,1.7-0.1,2.4C64.3,135.9,63.9,136,63.5,136z"/>
</g>
<g>
	<path class="st1" d="M136.9,91.3l2.9-3.3c4.1-4.6,9.3-8.2,15.1-10.3l0,0v0c-1.5,6-4.4,11.5-8.5,16.2l-2.9,3.3L136.9,91.3z"/>
</g>
<g>
	<path class="st0" d="M143.5,98.8c-0.4,0-0.8-0.1-1.1-0.4l-6.6-5.8c-0.3-0.3-0.5-0.7-0.6-1.2c0-0.4,0.1-0.9,0.4-1.2l2.9-3.3
		c4.3-4.8,9.7-8.5,15.7-10.8c0.6-0.2,1.2-0.1,1.7,0.3s0.7,1,0.5,1.7c-1.5,6.2-4.6,12.1-8.9,16.9l-2.9,3.3
		C144.4,98.6,143.9,98.8,143.5,98.8z M139.3,91.1l4.1,3.6l1.8-2.1c3.1-3.5,5.6-7.7,7.1-12.1c-4.2,2.1-8,5-11.2,8.5L139.3,91.1z"/>
</g>
<g>
	<path class="st1" d="M130,111.2l12-0.7l-4.3,4.9c-2.2,2.5-5.4,4-8.7,4.2l-12,0.7l4.3-4.9C123.6,112.9,126.7,111.4,130,111.2z"/>
</g>
<g>
	<path class="st1" d="M145.9,93.3l12-0.7l-4.3,4.9c-2.2,2.5-5.4,4-8.7,4.2l-12,0.7l4.3-4.9C139.4,95,142.6,93.5,145.9,93.3z"/>
</g>
<g>
	<path class="st1" d="M124.5,106.2l-0.7-12l-4.3,4.9c-2.2,2.5-3.4,5.8-3.2,9.2l0.7,12l4.3-4.9C123.6,112.9,124.7,109.6,124.5,106.2z
		"/>
</g>
<g>
	<path class="st1" d="M140.4,88.4l-0.7-12l-4.3,4.9c-2.2,2.5-3.4,5.8-3.2,9.2l0.7,12l4.3-4.9C139.4,95,140.6,91.7,140.4,88.4z"/>
</g>
<g>
	<path class="st0" d="M117,121.9c-0.6,0-1.2-0.4-1.5-0.9c-0.3-0.6-0.2-1.3,0.3-1.8l4.3-4.9c2.5-2.8,6.1-4.6,9.9-4.8l12-0.7
		c0.7-0.1,1.3,0.3,1.6,0.9c0.3,0.6,0.2,1.3-0.3,1.8l-4.3,4.9c-2.5,2.9-6,4.6-9.9,4.8L117,121.9C117.1,121.9,117,121.9,117,121.9z
		 M138.1,112.4l-7.9,0.5c-2.9,0.2-5.6,1.5-7.6,3.7l-1.6,1.8l7.9-0.5c2.9-0.2,5.6-1.5,7.6-3.7L138.1,112.4z M130,111.2L130,111.2
		L130,111.2z"/>
</g>
<g>
	<path class="st0" d="M132.9,104c-0.6,0-1.2-0.4-1.5-0.9c-0.3-0.6-0.2-1.3,0.3-1.8l4.3-4.9c2.5-2.8,6.1-4.6,9.9-4.8l12-0.7
		c0.7-0.1,1.3,0.3,1.6,0.9c0.3,0.6,0.2,1.3-0.3,1.8l-4.3,4.9c-2.5,2.9-6,4.6-9.9,4.8L132.9,104C133,104,132.9,104,132.9,104z
		 M154,94.5L146,95c-2.9,0.2-5.6,1.5-7.6,3.7l-1.6,1.8l7.9-0.5c2.9-0.2,5.6-1.5,7.6-3.7L154,94.5z M145.9,93.3L145.9,93.3
		L145.9,93.3z"/>
</g>
<g>
	<path class="st0" d="M117,121.9c-0.2,0-0.4,0-0.5-0.1c-0.6-0.2-1.1-0.8-1.1-1.5l-0.7-12c-0.2-3.8,1.1-7.5,3.6-10.4l4.3-4.9
		c0.4-0.5,1.2-0.7,1.8-0.5c0.6,0.2,1.1,0.8,1.1,1.5l0.7,12l0,0c0.2,3.8-1,7.5-3.6,10.4l-4.3,4.9C117.9,121.7,117.5,121.9,117,121.9z
		 M122.4,98.4l-1.6,1.8c-1.9,2.2-2.9,5.1-2.8,7.9l0.5,7.9l1.6-1.8c1.9-2.2,2.9-5,2.8-7.9L122.4,98.4z"/>
</g>
<g>
	<path class="st0" d="M132.9,104c-0.2,0-0.4,0-0.5-0.1c-0.6-0.2-1.1-0.8-1.1-1.5l-0.7-12c-0.2-3.8,1-7.5,3.6-10.4l4.3-4.9
		c0.4-0.5,1.1-0.7,1.8-0.5c0.6,0.2,1.1,0.8,1.1,1.5l0.7,12l0,0c0.2,3.8-1,7.5-3.6,10.4l-4.3,4.9C133.8,103.9,133.4,104,132.9,104z
		 M138.3,80.5l-1.6,1.9c-1.9,2.2-2.9,5-2.8,7.9l0.5,7.9l1.6-1.8c1.9-2.2,2.9-5,2.8-7.9L138.3,80.5z"/>
</g>
<g>
	<path class="st0" d="M104.5,136c-0.4,0-0.8-0.1-1.1-0.4c-0.7-0.6-0.8-1.7-0.1-2.4l28.4-32c0.6-0.7,1.7-0.8,2.4-0.1
		c0.7,0.6,0.8,1.7,0.1,2.4l-28.4,32C105.4,135.8,105,136,104.5,136z"/>
</g>
</svg>
