<svg enable-background="new 0 0 167 167" viewBox="0 0 167 167" xmlns="http://www.w3.org/2000/svg"><path d="m83.6 133.9c-12.4-7.6-28.1-7.6-40.5 0v-89.3c12.4-7.6 28.1-7.6 40.5 0z" fill="#f34b00"/><path d="m83.6 133.9c12.4-7.6 28.1-7.6 40.5 0v-89.3c-12.4-7.6-28.1-7.6-40.5 0z" fill="#f34b00"/><path d="m83.6 135.6c-.3 0-.6-.1-.9-.2-12-7.3-26.8-7.3-38.8 0-.8.5-1.8.2-2.3-.5-.5-.8-.2-1.8.5-2.3 13-8 29.2-8 42.3 0 .8.5 1 1.5.5 2.3-.2.4-.7.7-1.3.7z" fill="#04111d"/><path d="m124.1 135.6c-.3 0-.6-.1-.9-.2-12-7.3-26.8-7.3-38.8 0-.8.5-1.8.2-2.3-.5-.5-.8-.2-1.8.5-2.3 13-8 29.2-8 42.3 0 .8.5 1 1.5.5 2.3-.2.4-.7.7-1.3.7z" fill="#04111d"/><path d="m83.6 166.5c-46 0-83.4-37.4-83.4-83.4s37.4-83.4 83.4-83.4 83.4 37.4 83.4 83.4-37.4 83.4-83.4 83.4zm0-163.5c-44.2 0-80.1 36-80.1 80.1s35.9 80.1 80.1 80.1 80.1-35.9 80.1-80.1c0-44.1-36-80.1-80.1-80.1z" fill="#04111d"/><path d="m83.6 123.2c-12.4-7.6-28.1-7.6-40.5 0v-89.3c12.4-7.6 28.1-7.6 40.5 0z" fill="#f8f7f5"/><path d="m49.8 42.4c-.9 0-1.7-.7-1.7-1.7v-2.9c0-.9.7-1.7 1.7-1.7.9 0 1.7.7 1.7 1.7v2.9c-.1 1-.8 1.7-1.7 1.7z" fill="#fff" opacity=".25"/><path d="m49.8 114.6c-.9 0-1.7-.7-1.7-1.7v-65.9c0-.9.7-1.7 1.7-1.7.9 0 1.7.7 1.7 1.7v65.9c-.1.9-.8 1.7-1.7 1.7z" fill="#fff" opacity=".25"/><path d="m83.6 123.2c12.4-7.6 28.1-7.6 40.5 0v-89.3c-12.4-7.6-28.1-7.6-40.5 0z" fill="#f8f7f5"/><path d="m43.1 39.5c-.9 0-1.7-.7-1.7-1.7v-4c0-.6.3-1.1.8-1.4 13-8 29.2-8 42.3 0 .5.3.8.8.8 1.4v3.9c0 .9-.7 1.7-1.7 1.7s-1.7-.7-1.7-1.7v-2.9c-11.5-6.7-25.6-6.7-37.2 0v3c0 1-.7 1.7-1.6 1.7z" fill="#04111d"/><path d="m43.1 46.9c-.9 0-1.7-.7-1.7-1.7v-1.9c0-.9.7-1.7 1.7-1.7s1.7.7 1.7 1.7v1.9c-.1 1-.8 1.7-1.7 1.7z" fill="#04111d"/><path d="m43.1 63.9c-.9 0-1.7-.7-1.7-1.7v-9.8c0-.9.7-1.7 1.7-1.7s1.7.7 1.7 1.7v9.8c-.1 1-.8 1.7-1.7 1.7z" fill="#04111d"/><path d="m83.6 124.9c-.3 0-.6-.1-.9-.2-12-7.3-26.8-7.3-38.8 0-.5.3-1.2.3-1.7 0s-.9-.8-.9-1.5v-53.6c0-.9.7-1.7 1.7-1.7s1.7.7 1.7 1.7v50.8c11.7-6.1 25.5-6.1 37.2 0v-7.9c0-.9.7-1.7 1.7-1.7s1.7.7 1.7 1.7v10.7c0 .6-.3 1.2-.9 1.5-.2.1-.5.2-.8.2z" fill="#04111d"/><path d="m83.6 107.7c-.9 0-1.7-.7-1.7-1.7v-61.4c0-.9.7-1.7 1.7-1.7s1.7.7 1.7 1.7v61.4c0 .9-.8 1.7-1.7 1.7z" fill="#1e1f25"/><path d="m83.6 124.9c-.6 0-1.1-.3-1.4-.8-.5-.8-.2-1.8.5-2.3 12.2-7.5 27.2-8 39.7-1.4v-85.6c-11.8-6.9-26.3-6.7-38 .5-.8.5-1.8.2-2.3-.5-.5-.8-.2-1.8.5-2.3 13-8 29.2-8 42.3 0 .5.3.8.8.8 1.4v89.4c0 .6-.3 1.2-.9 1.5-.5.3-1.2.3-1.7 0-12-7.3-26.8-7.3-38.8 0-.1 0-.4.1-.7.1z" fill="#04111d"/><path d="m128.4 83.8c-2.4 0-4.3 1.9-4.3 4.3v25.5h8.6v-25.5c0-2.4-1.9-4.3-4.3-4.3z" fill="#f8f7f5"/><path d="m132.7 115.3h-8.6c-.9 0-1.7-.7-1.7-1.7v-25.5c0-3.3 2.7-6 6-6s6 2.7 6 6v25.5c0 .9-.7 1.7-1.7 1.7zm-6.9-3.4h5.3v-23.8c0-1.5-1.2-2.6-2.6-2.6-1.5 0-2.6 1.2-2.6 2.6v23.8z" fill="#04111d"/><path d="m137.1 83.8c-2.4 0-4.3 1.9-4.3 4.3v12.6c0 3.9-1.8 7.5-4.8 9.9l-24.8 19.6c-3 2.4-4.8 6-4.8 9.9l-.1 23.5c6.3-1.2 12.4-3 18.2-5.6v-10.4c0-3.4 1.3-6.6 3.7-9l17.5-17.5c2.4-2.4 3.7-5.6 3.7-9v-24c0-2.4-2-4.3-4.3-4.3z" fill="#f8f7f5"/><path d="m98.3 165.2c-.4 0-.8-.1-1.1-.4-.4-.3-.6-.8-.6-1.3l.1-23.5c0-4.4 2-8.5 5.4-11.2l24.8-19.6c2.6-2.1 4.2-5.2 4.2-8.6v-12.5c0-3.3 2.7-6 6-6s6 2.7 6 6v24.1c0 3.8-1.5 7.4-4.2 10.1l-17.5 17.5c-2.1 2.1-3.2 4.8-3.2 7.8v10.4c0 .7-.4 1.3-1 1.5-5.9 2.6-12.2 4.5-18.6 5.7-.1 0-.2 0-.3 0zm38.8-79.8c-1.5 0-2.6 1.2-2.6 2.6v12.6c0 4.4-2 8.5-5.4 11.2l-24.8 19.6c-2.6 2.1-4.2 5.2-4.2 8.6v21.4c5.1-1.1 10.1-2.6 14.8-4.6v-9.3c0-3.8 1.5-7.4 4.2-10.1l17.5-17.5c2.1-2.1 3.2-4.8 3.2-7.8v-24c-.1-1.5-1.3-2.7-2.7-2.7z" fill="#04111d"/><path d="m38.7 83.8c2.4 0 4.3 1.9 4.3 4.3v25.5h-8.6v-25.5c0-2.4 2-4.3 4.3-4.3z" fill="#f8f7f5"/><path d="m43.1 115.3h-8.6c-.9 0-1.7-.7-1.7-1.7v-25.5c0-3.3 2.7-6 6-6s6 2.7 6 6v25.5c-.1.9-.8 1.7-1.7 1.7zm-7-3.4h5.3v-23.8c0-1.5-1.2-2.6-2.6-2.6s-2.6 1.2-2.6 2.6v23.8z" fill="#04111d"/><path d="m68.9 163.5-.1-23.5c0-3.9-1.8-7.5-4.8-9.9l-24.8-19.6c-3-2.4-4.8-6.1-4.8-9.9v-12.5c0-2.4-1.9-4.3-4.3-4.3s-4.3 1.9-4.3 4.3v24.1c0 3.4 1.3 6.6 3.7 9l17.5 17.4c2.4 2.4 3.7 5.6 3.7 9v10.4c5.7 2.5 11.8 4.4 18.2 5.5z" fill="#f8f7f5"/><path d="m68.9 165.2c-.1 0-.2 0-.3 0-6.4-1.2-12.6-3.1-18.6-5.7-.6-.3-1-.9-1-1.5v-10.4c0-2.9-1.1-5.7-3.2-7.8l-17.5-17.5c-2.7-2.7-4.2-6.3-4.2-10.1v-24.1c0-3.3 2.7-6 6-6s6 2.7 6 6v12.6c0 3.4 1.5 6.5 4.2 8.6l24.7 19.6c3.4 2.7 5.4 6.8 5.4 11.2l.1 23.5c0 .5-.2 1-.6 1.3-.3.2-.7.3-1 .3zm-16.6-8.3c4.8 2 9.8 3.6 14.8 4.6v-21.4c0-3.4-1.5-6.5-4.2-8.6l-24.8-19.6c-3.5-2.7-5.4-6.8-5.4-11.2v-12.6c0-1.5-1.2-2.6-2.6-2.6-1.5 0-2.6 1.2-2.6 2.6v24.1c0 2.9 1.1 5.7 3.2 7.8l17.5 17.5c2.7 2.7 4.2 6.3 4.2 10.1v9.3z" fill="#04111d"/><circle cx="83.6" cy="75.7" fill="#f8f7f5" r="26.1"/><g fill="#f34b00"><path d="m96.1 75.7s-.1 7.6-1.9 13.8c0 0 6.1 2.4 7.5 5 0 0 8.7-7.5 7.2-18.8z"/><path d="m81.8 49.6s-10.8.2-17.2 8.3c0 0 3.5 3.8 8 5.8-.1-.1 1.1-11.5 9.2-14.1z"/><path d="m83.6 75.7h-12.5s0 8.9 1.9 13.8c0 0 6.4-3 10.6-2.2z"/><path d="m94.7 63.6s-5.5 2.7-11.1 2.5v-15.7s7.3-2 11.1 13.2z"/><path d="m73 89.5s-5.5 1.9-7.5 5c0 0 7.4 6.9 15.5 7.1 0 .1-6.3-2.9-8-12.1z"/></g><path d="m83.6 103.5c-7.2 0-14-2.8-19.2-7.7-.3-.3-.5-.8-.5-1.2 0-.5.2-.9.5-1.2 5.2-5 12-7.7 19.2-7.7s14 2.8 19.2 7.7c.3.3.5.8.5 1.2 0 .5-.2.9-.5 1.2-5.2 4.9-12 7.7-19.2 7.7zm-15.6-9c4.4 3.6 9.8 5.6 15.6 5.6s11.2-2 15.6-5.6c-8.8-7.2-22.4-7.2-31.2 0z" fill="#1e1f25"/><path d="m83.6 103.5c-.9 0-1.7-.7-1.7-1.7v-52.2c0-.9.7-1.7 1.7-1.7s1.7.7 1.7 1.7v52.2c0 .9-.8 1.7-1.7 1.7z" fill="#04111d"/><path d="m109.7 77.4h-52.2c-.9 0-1.7-.7-1.7-1.7s.7-1.7 1.7-1.7h52.2c.9 0 1.7.7 1.7 1.7s-.8 1.7-1.7 1.7z" fill="#1e1f25"/><path d="m83.6 103.5c-7.9 0-14.1-12.2-14.1-27.8s6.2-27.8 14.1-27.8 14.1 12.2 14.1 27.8-6.2 27.8-14.1 27.8zm0-52.3c-5.2 0-10.8 9.8-10.8 24.4s5.6 24.4 10.8 24.4 10.8-9.8 10.8-24.4c0-14.5-5.6-24.4-10.8-24.4z" fill="#1e1f25"/><path d="m83.6 67.8c-7.7 0-15-3.2-20.3-8.8-.6-.6-.6-1.6 0-2.3 5.2-5.6 12.6-8.8 20.3-8.8s15 3.2 20.3 8.8c.6.6.6 1.6 0 2.3-5.3 5.6-12.7 8.8-20.3 8.8zm-16.7-10c4.5 4.3 10.4 6.6 16.7 6.6s12.2-2.3 16.7-6.6c-4.5-4.3-10.4-6.6-16.7-6.6s-12.2 2.4-16.7 6.6z" fill="#1e1f25"/><path d="m83.6 103.5c-15.3 0-27.8-12.5-27.8-27.8s12.5-27.8 27.8-27.8 27.8 12.5 27.8 27.8-12.5 27.8-27.8 27.8zm0-52.3c-13.5 0-24.4 11-24.4 24.4 0 13.5 11 24.4 24.4 24.4s24.4-11 24.4-24.4-10.9-24.4-24.4-24.4z" fill="#1e1f25"/><path d="m83.6 135.6c-.9 0-1.7-.7-1.7-1.7v-12c0-.9.7-1.7 1.7-1.7s1.7.7 1.7 1.7v12c0 1-.8 1.7-1.7 1.7z" fill="#04111d"/></svg>