<svg enable-background="new 0 0 167 167" viewBox="0 0 167 167" xmlns="http://www.w3.org/2000/svg"><circle cx="83.8" cy="83.8" fill="#fff" r="81.5"/><path d="m83.8 167c-45.9 0-83.2-37.3-83.2-83.2s37.3-83.2 83.2-83.2 83.2 37.3 83.2 83.2-37.3 83.2-83.2 83.2zm0-163.1c-44 0-79.9 35.8-79.9 79.9s35.8 79.9 79.9 79.9 79.9-35.8 79.9-79.9-35.9-79.9-79.9-79.9z" fill="#1c1d21"/><path d="m137.6 118.4h-107.6c-1.8 0-3.3-1.5-3.3-3.3v-68.7c0-1.8 1.5-3.3 3.3-3.3h107.5c1.8 0 3.3 1.5 3.3 3.3v68.6c.1 1.9-1.4 3.4-3.2 3.4z" fill="#f34b00"/><path d="m26.7 57.9c-.9 0-1.7-.7-1.7-1.7v-1.4c0-.9.7-1.7 1.7-1.7s1.7.7 1.7 1.7v1.4c0 1-.8 1.7-1.7 1.7z" fill="#1c1d21"/><path d="m26.7 87.2c-.9 0-1.7-.7-1.7-1.7v-22.6c0-.9.7-1.7 1.7-1.7s1.7.7 1.7 1.7v22.6c0 .9-.8 1.7-1.7 1.7z" fill="#1c1d21"/><path d="m137.4 120.1h-107.2c-2.9 0-5.2-2.3-5.2-5.2v-19.8c0-.9.7-1.7 1.7-1.7s1.7.7 1.7 1.7v19.8c0 1 .8 1.9 1.9 1.9h107.2c1 0 1.9-.8 1.9-1.9v-68.3c0-1-.8-1.9-1.9-1.9h-107.3c-1 0-1.9.8-1.9 1.9v1.5c0 .9-.7 1.7-1.7 1.7s-1.6-.8-1.6-1.7v-1.5c0-2.9 2.3-5.2 5.2-5.2h107.2c2.9 0 5.2 2.3 5.2 5.2v68.3c-.1 2.9-2.4 5.2-5.2 5.2z" fill="#1c1d21"/><path d="m83.8 41.5c4.6-7.2 12.6-11.6 21.1-11.6h19.1c2 0 3.6 1.6 3.6 3.6v69.6c0 2-1.6 3.6-3.6 3.6h-19.1c-8.6 0-16.5 4.4-21.1 11.6-4.6-7.2-12.6-11.6-21.1-11.6h-19.1c-2 0-3.6-1.6-3.6-3.6v-69.5c0-2 1.6-3.6 3.6-3.6h19.1c8.5-.1 16.5 4.3 21.1 11.5z" fill="#fff"/><g fill="#1c1d21"><path d="m83.8 120.1c-.6 0-1.1-.3-1.4-.8-4.3-6.8-11.7-10.8-19.7-10.8h-19.1c-2.9 0-5.3-2.4-5.3-5.3v-69.6c0-2.9 2.4-5.3 5.3-5.3h19.1c8.4 0 16.1 3.8 21.1 10.4 5-6.5 12.8-10.4 21.1-10.4h19.1c2.9 0 5.3 2.4 5.3 5.3v69.6c0 2.9-2.4 5.3-5.3 5.3h-19.1c-8 0-15.4 4.1-19.7 10.8-.3.5-.8.8-1.4.8zm-40.2-88.5c-1.1 0-2 .9-2 2v69.6c0 1.1.9 2 2 2h19.1c8.4 0 16.1 3.8 21.1 10.4 5-6.5 12.8-10.4 21.1-10.4h19.1c1.1 0 2-.9 2-2v-69.6c0-1.1-.9-2-2-2h-19.1c-8 0-15.4 4.1-19.7 10.8-.3.5-.8.8-1.4.8-.6 0-1.1-.3-1.4-.8-4.3-6.8-11.7-10.8-19.7-10.8z"/><path d="m83.8 92c-.9 0-1.7-.7-1.7-1.7v-48.8c0-.9.7-1.7 1.7-1.7.9 0 1.7.7 1.7 1.7v48.8c0 .9-.8 1.7-1.7 1.7z"/><path d="m75.5 52.4c-.3 0-.6-.1-.9-.2-3.6-2.2-7.8-3.3-12-3.3h-14.3c-.9 0-1.7-.7-1.7-1.7 0-.9.7-1.7 1.7-1.7h14.4c4.8 0 9.6 1.3 13.7 3.8.8.5 1 1.5.6 2.3-.3.5-.9.8-1.5.8z"/><path d="m75.5 62.9c-.3 0-.6-.1-.9-.2-3.6-2.2-7.8-3.3-12-3.3h-14.3c-.9 0-1.7-.7-1.7-1.7 0-.9.7-1.7 1.7-1.7h14.4c4.8 0 9.6 1.3 13.7 3.8.8.5 1 1.5.6 2.3-.3.5-.9.8-1.5.8z"/><path d="m75.5 73.4c-.3 0-.6-.1-.9-.2-3.6-2.2-7.8-3.3-12-3.3h-14.3c-.9 0-1.7-.7-1.7-1.7 0-.9.7-1.7 1.7-1.7h14.4c4.8 0 9.6 1.3 13.7 3.8.8.5 1 1.5.6 2.3-.3.5-.9.8-1.5.8z"/><path d="m75.5 83.9c-.3 0-.6-.1-.9-.2-3.6-2.2-7.8-3.3-12-3.3h-14.3c-.9 0-1.7-.7-1.7-1.7 0-.9.7-1.7 1.7-1.7h14.4c4.8 0 9.6 1.3 13.7 3.8.8.5 1 1.5.6 2.3-.3.5-.9.8-1.5.8z"/><path d="m75.5 94.3c-.3 0-.6-.1-.9-.2-3.6-2.2-7.8-3.3-12-3.3h-14.3c-.9 0-1.7-.7-1.7-1.7s.7-1.7 1.7-1.7h14.4c4.8 0 9.6 1.3 13.7 3.8.8.5 1 1.5.6 2.3-.3.6-.9.8-1.5.8z"/><path d="m92 52.4c-.6 0-1.1-.3-1.4-.8-.5-.8-.2-1.8.6-2.3 4.1-2.5 8.9-3.8 13.7-3.8h14.4c.9 0 1.7.7 1.7 1.7 0 .9-.7 1.7-1.7 1.7h-14.4c-4.2 0-8.4 1.1-12 3.3-.3.1-.6.2-.9.2z"/><path d="m92 62.9c-.6 0-1.1-.3-1.4-.8-.5-.8-.2-1.8.6-2.3 4.1-2.5 8.9-3.8 13.7-3.8h14.4c.9 0 1.7.7 1.7 1.7 0 .9-.7 1.7-1.7 1.7h-14.4c-4.2 0-8.4 1.1-12 3.3-.3.1-.6.2-.9.2z"/><path d="m92 73.4c-.6 0-1.1-.3-1.4-.8-.5-.8-.2-1.8.6-2.3 4.1-2.5 8.9-3.8 13.7-3.8h14.4c.9 0 1.7.7 1.7 1.7 0 .9-.7 1.7-1.7 1.7h-14.4c-4.2 0-8.4 1.1-12 3.3-.3.1-.6.2-.9.2z"/><path d="m92 83.9c-.6 0-1.1-.3-1.4-.8-.5-.8-.2-1.8.6-2.3 4.1-2.5 8.9-3.8 13.7-3.8h14.4c.9 0 1.7.7 1.7 1.7 0 .9-.7 1.7-1.7 1.7h-14.4c-4.2 0-8.4 1.1-12 3.3-.3.1-.6.2-.9.2z"/><path d="m92 94.3c-.6 0-1.1-.3-1.4-.8-.5-.8-.2-1.8.6-2.3 4.1-2.5 8.9-3.8 13.7-3.8h14.4c.9 0 1.7.7 1.7 1.7s-.7 1.7-1.7 1.7h-14.4c-4.2 0-8.4 1.1-12 3.3-.3.2-.6.2-.9.2z"/><path d="m83.8 103.2c-.9 0-1.7-.7-1.7-1.7v-3.4c0-.9.7-1.7 1.7-1.7.9 0 1.7.7 1.7 1.7v3.4c0 .9-.8 1.7-1.7 1.7z"/></g><path d="m118.3 128.8h-74.1c-2.5 0-4.5 2-4.5 4.5 0 2.5 2 4.5 4.5 4.5h74.1c2.5 0 4.5-2 4.5-4.5-.1-2.6-2.1-4.5-4.5-4.5z" fill="#f34b00"/><path d="m115.2 137.7h3.1c2.5 0 4.5-2 4.5-4.5 0-2.5-2-4.5-4.5-4.5h-3.1z" fill="#fff"/><path d="m118.3 139.3h-74.1c-3.4 0-6.1-2.7-6.1-6.1s2.7-6.1 6.1-6.1h74.1c3.4 0 6.1 2.7 6.1 6.1s-2.8 6.1-6.1 6.1zm-74.1-8.9c-1.5 0-2.8 1.3-2.8 2.8s1.3 2.8 2.8 2.8h74.1c1.5 0 2.8-1.2 2.8-2.8 0-1.5-1.3-2.8-2.8-2.8z" fill="#1c1d21"/><path d="m127.9 134.9h-5.1c-.9 0-1.7-.7-1.7-1.7 0-.9.7-1.7 1.7-1.7h5.1c.9 0 1.7.7 1.7 1.7-.1.9-.8 1.7-1.7 1.7z" fill="#1c1d21"/><path d="m114.5 139.3c-.9 0-1.7-.7-1.7-1.7v-8.9c0-.9.7-1.7 1.7-1.7s1.7.7 1.7 1.7v8.9c0 1-.8 1.7-1.7 1.7z" fill="#1c1d21"/></svg>