<?xml version="1.0" encoding="utf-8"?>
<!-- Generator: Adobe Illustrator 22.1.0, SVG Export Plug-In . SVG Version: 6.00 Build 0)  -->
<svg version="1.1" id="Layer_1" xmlns="http://www.w3.org/2000/svg" xmlns:xlink="http://www.w3.org/1999/xlink" x="0px" y="0px"
	 viewBox="0 0 167 167" style="enable-background:new 0 0 167 167;" xml:space="preserve">
<style type="text/css">
	.st0{fill:#04111D;}
	.st1{fill:#F34B00;}
	.st2{fill:#F8F7F5;}
	.st3{opacity:0.25;}
	.st4{fill:#FFFFFF;}
	.st5{fill:#1E1F25;}
	.st6{fill:#FF476E;}
	.st7{fill:#DCDCDC;}
</style>
<g>
	<path class="st0" d="M83.3,167.4c-46,0-83.4-37.4-83.4-83.4S37.3,0.5,83.3,0.5s83.4,37.4,83.4,83.4S129.3,167.4,83.3,167.4z
		 M83.3,3.9C39.2,3.9,3.2,39.8,3.2,83.9S39.2,164,83.3,164s80.1-35.9,80.1-80.1S127.5,3.9,83.3,3.9z"/>
</g>
<g>
	<path class="st0" d="M47.8,159.2c-0.2,0-0.5-0.1-0.7-0.2c-6.8-3.3-13.2-7.5-18.9-12.6c-0.5-0.5-0.7-1.2-0.5-1.8
		c0.2-0.6,0.9-1.1,1.6-1.1h18.6c0.9,0,1.7,0.7,1.7,1.7v12.3c0,0.6-0.3,1.1-0.8,1.4C48.4,159.2,48.1,159.2,47.8,159.2z M33.9,146.9
		c3.8,3,8,5.7,12.3,8v-8H33.9z"/>
</g>
<g>
	<path class="st0" d="M49.4,146.9H29.3c-0.4,0-0.8-0.1-1.1-0.4c-2.2-2-4.4-4.1-6.3-6.2c-0.4-0.5-0.6-1.2-0.3-1.8
		c0.3-0.6,0.9-1,1.5-1h26.3c2.6,0,4.7,2.1,4.7,4.7C54.1,144.8,52,146.9,49.4,146.9z M29.9,143.6h19.5c0.8,0,1.4-0.6,1.4-1.4
		c0-0.8-0.6-1.4-1.4-1.4H27C27.9,141.8,28.9,142.7,29.9,143.6z"/>
</g>
<g>
	<circle class="st1" cx="32.9" cy="99.6" r="16.9"/>
</g>
<g>
	<path class="st1" d="M24,107.6c0-9.3,7.6-16.9,16.9-16.9c2.6,0,5.1,0.6,7.3,1.6c-2.7-5.7-8.5-9.6-15.3-9.6
		c-9.3,0-16.9,7.6-16.9,16.9c0,6.7,3.9,12.5,9.6,15.3C24.6,112.7,24,110.2,24,107.6z"/>
</g>
<g>
	<path class="st0" d="M32.9,118.2c-10.2,0-18.6-8.3-18.6-18.6c0-10.2,8.3-18.6,18.6-18.6c10.2,0,18.6,8.3,18.6,18.6
		C51.5,109.9,43.2,118.2,32.9,118.2z M32.9,84.4c-8.4,0-15.2,6.8-15.2,15.2c0,8.4,6.8,15.2,15.2,15.2c8.4,0,15.2-6.8,15.2-15.2
		C48.2,91.2,41.3,84.4,32.9,84.4z"/>
</g>
<g>
	<path class="st2" d="M34,98.1h-2.1c-0.1,0-0.2-0.1-0.2-0.2v-2.4c0-0.1,0.1-0.2,0.2-0.2h3.8c0.9,0,1.5-0.7,1.5-1.5
		c0-0.9-0.7-1.5-1.5-1.5h-1.3v-2.7c0-0.6-0.5-1.2-1.2-1.2c-0.6,0-1.2,0.5-1.2,1.2v2.7h-0.2c-1.8,0-3.3,1.5-3.3,3.3v2.4
		c0,1.8,1.5,3.3,3.3,3.3H34c0.1,0,0.2,0.1,0.2,0.2v2.4c0,0.1-0.1,0.2-0.2,0.2h-3.8c-0.9,0-1.5,0.7-1.5,1.5c0,0.9,0.7,1.5,1.5,1.5
		h1.9v2.7c0,0.6,0.5,1.2,1.2,1.2c0.6,0,1.2-0.5,1.2-1.2v-2.7c1.6-0.2,2.9-1.6,2.9-3.3v-2.4C37.3,99.6,35.8,98.1,34,98.1z"/>
</g>
<g>
	<circle class="st1" cx="83.6" cy="91.8" r="16.9"/>
</g>
<g>
	<path class="st1" d="M74.7,99.7c0-9.3,7.6-16.9,16.9-16.9c2.6,0,5.1,0.6,7.3,1.6c-2.7-5.7-8.5-9.6-15.3-9.6
		c-9.3,0-16.9,7.6-16.9,16.9c0,6.7,3.9,12.5,9.6,15.3C75.2,104.8,74.7,102.3,74.7,99.7z"/>
</g>
<g>
	<path class="st0" d="M83.6,110.3C73.4,110.3,65,102,65,91.8c0-10.2,8.3-18.6,18.6-18.6c10.2,0,18.6,8.3,18.6,18.6
		C102.2,102,93.8,110.3,83.6,110.3z M83.6,76.5c-8.4,0-15.2,6.8-15.2,15.2c0,8.4,6.8,15.2,15.2,15.2c8.4,0,15.2-6.8,15.2-15.2
		C98.8,83.4,92,76.5,83.6,76.5z"/>
</g>
<g>
	<path class="st2" d="M84.6,90.2h-2.1c-0.1,0-0.2-0.1-0.2-0.2v-2.4c0-0.1,0.1-0.2,0.2-0.2h3.8c0.9,0,1.5-0.7,1.5-1.5
		c0-0.9-0.7-1.5-1.5-1.5h-1.3v-2.7c0-0.6-0.5-1.2-1.2-1.2s-1.2,0.5-1.2,1.2v2.7h-0.2c-1.8,0-3.3,1.5-3.3,3.3V90
		c0,1.8,1.5,3.3,3.3,3.3h2.1c0.1,0,0.2,0.1,0.2,0.2V96c0,0.1-0.1,0.2-0.2,0.2h-3.8c-0.9,0-1.5,0.7-1.5,1.5c0,0.9,0.7,1.5,1.5,1.5
		h1.9v2.7c0,0.6,0.5,1.2,1.2,1.2s1.2-0.5,1.2-1.2v-2.7c1.6-0.2,2.9-1.6,2.9-3.3v-2.4C87.9,91.7,86.5,90.2,84.6,90.2z"/>
</g>
<g>
	<circle class="st1" cx="134" cy="64.3" r="16.9"/>
</g>
<g>
	<path class="st1" d="M125.1,72.2c0-9.3,7.6-16.9,16.9-16.9c2.6,0,5.1,0.6,7.3,1.6c-2.7-5.7-8.5-9.6-15.3-9.6
		c-9.3,0-16.9,7.6-16.9,16.9c0,6.7,3.9,12.5,9.6,15.3C125.7,77.3,125.1,74.9,125.1,72.2z"/>
</g>
<g>
	<path class="st0" d="M134,82.9c-10.2,0-18.6-8.3-18.6-18.6c0-10.2,8.3-18.6,18.6-18.6c10.2,0,18.6,8.3,18.6,18.6
		C152.6,74.5,144.3,82.9,134,82.9z M134,49c-8.4,0-15.2,6.8-15.2,15.2c0,8.4,6.8,15.2,15.2,15.2c8.4,0,15.2-6.8,15.2-15.2
		C149.3,55.9,142.4,49,134,49z"/>
</g>
<g>
	<path class="st2" d="M135.1,62.7H133c-0.1,0-0.2-0.1-0.2-0.2v-2.4c0-0.1,0.1-0.2,0.2-0.2h3.8c0.9,0,1.5-0.7,1.5-1.5
		c0-0.9-0.7-1.5-1.5-1.5h-1.3v-2.7c0-0.6-0.5-1.2-1.2-1.2c-0.6,0-1.2,0.5-1.2,1.2v2.7H133c-1.8,0-3.3,1.5-3.3,3.3v2.4
		c0,1.8,1.5,3.3,3.3,3.3h2.1c0.1,0,0.2,0.1,0.2,0.2v2.4c0,0.1-0.1,0.2-0.2,0.2h-3.8c-0.9,0-1.5,0.7-1.5,1.5c0,0.9,0.7,1.5,1.5,1.5
		h1.9v2.7c0,0.6,0.5,1.2,1.2,1.2c0.6,0,1.2-0.5,1.2-1.2v-2.7c1.6-0.2,2.9-1.6,2.9-3.3V66C138.4,64.2,136.9,62.7,135.1,62.7z"/>
</g>
<g>
	<g>
		<path class="st0" d="M35.5,133.7c-0.8,0-1.7-0.1-2.5-0.3c-0.6-0.2-1-0.6-1.2-1.2c-0.9-3.3,0.1-6.8,2.5-9.2
			c2.4-2.4,5.9-3.4,9.2-2.5c0.6,0.2,1,0.6,1.2,1.2c0.9,3.3-0.1,6.8-2.5,9.2C40.5,132.7,38,133.7,35.5,133.7z M34.9,130.3
			c1.8,0.1,3.7-0.5,5-1.8c1.3-1.3,2-3.2,1.8-5c-1.9-0.2-3.7,0.5-5,1.8C35.4,126.6,34.7,128.5,34.9,130.3z"/>
	</g>
</g>
<g>
	<path class="st0" d="M33.3,140.8c-0.9,0-1.7-0.7-1.7-1.7v-21.6c0-0.9,0.7-1.7,1.7-1.7c0.9,0,1.7,0.7,1.7,1.7v21.6
		C34.9,140.1,34.2,140.8,33.3,140.8z"/>
</g>
<g class="st3">
	<path class="st4" d="M75.1,146c-0.9,0-1.7-0.7-1.7-1.7v-0.6c0-0.9,0.7-1.7,1.7-1.7c0.9,0,1.7,0.7,1.7,1.7v0.6
		C76.8,145.3,76.1,146,75.1,146z"/>
</g>
<g class="st3">
	<path class="st4" d="M75.1,160.2c-0.9,0-1.7-0.7-1.7-1.7v-8.2c0-0.9,0.7-1.7,1.7-1.7c0.9,0,1.7,0.7,1.7,1.7v8.2
		C76.8,159.5,76.1,160.2,75.1,160.2z"/>
</g>
<g>
	<path class="st0" d="M83.3,167.4c-5.1,0-10.2-0.5-15.2-1.4c-0.8-0.1-1.4-0.8-1.4-1.6v-27.3c0-0.9,0.7-1.7,1.7-1.7h29.7
		c0.9,0,1.7,0.7,1.7,1.7v7c0,0.9-0.7,1.7-1.7,1.7s-1.7-0.7-1.7-1.7v-5.3H70.1v24.2c8.7,1.4,17.7,1.4,26.4,0v-10.5
		c0-0.9,0.7-1.7,1.7-1.7s1.7,0.7,1.7,1.7v11.9c0,0.8-0.6,1.5-1.4,1.6C93.5,166.9,88.4,167.4,83.3,167.4z"/>
</g>
<g>
	<path class="st0" d="M99.8,138.7H66.9c-2.6,0-4.7-2.1-4.7-4.7s2.1-4.7,4.7-4.7h32.9c2.6,0,4.7,2.1,4.7,4.7S102.4,138.7,99.8,138.7z
		 M66.9,132.6c-0.8,0-1.4,0.6-1.4,1.4s0.6,1.4,1.4,1.4h32.9c0.8,0,1.4-0.6,1.4-1.4s-0.6-1.4-1.4-1.4H66.9z"/>
</g>
<g>
	<g>
		<path class="st0" d="M81.3,125.5c-2.5,0-5-1-6.8-2.8c-2.4-2.4-3.4-5.9-2.5-9.2c0.2-0.6,0.6-1,1.2-1.2c3.3-0.9,6.8,0.1,9.2,2.5
			c2.4,2.4,3.4,6,2.5,9.3c-0.2,0.6-0.6,1-1.2,1.2C82.9,125.4,82.1,125.5,81.3,125.5z M75.1,115.3c-0.2,1.8,0.5,3.7,1.8,5
			c1.3,1.3,3.3,2,5,1.8c0.2-1.8-0.5-3.7-1.8-5C78.8,115.8,76.9,115.1,75.1,115.3z"/>
	</g>
</g>
<g>
	<g>
		<path class="st0" d="M28.9,133c-2.5,0-5-1-6.8-2.8c-2.4-2.4-3.4-5.9-2.5-9.2c0.2-0.6,0.6-1,1.2-1.2c3.3-0.9,6.8,0.1,9.2,2.5
			c2.4,2.4,3.4,6,2.5,9.3c-0.2,0.6-0.6,1-1.2,1.2C30.5,132.9,29.7,133,28.9,133z M22.6,122.8c-0.2,1.8,0.5,3.7,1.8,5
			c1.3,1.3,3.2,2,5,1.8c0.2-1.8-0.5-3.7-1.8-5C26.3,123.3,24.5,122.6,22.6,122.8z"/>
	</g>
</g>
<g>
	<g>
		<path class="st0" d="M85.9,125.5c-0.8,0-1.6-0.1-2.5-0.3c-0.6-0.2-1-0.6-1.2-1.2c-0.9-3.3,0.1-6.8,2.5-9.2
			c2.4-2.4,5.9-3.4,9.2-2.5c0.6,0.2,1,0.6,1.2,1.2c0.9,3.3-0.1,6.8-2.5,9.2C90.9,124.5,88.4,125.5,85.9,125.5z M85.3,122.2
			c1.8,0.2,3.7-0.5,5-1.8c1.3-1.3,2-3.2,1.8-5c-1.8-0.2-3.7,0.5-5,1.8C85.8,118.5,85.1,120.3,85.3,122.2z"/>
	</g>
</g>
<g>
	<path class="st0" d="M83.6,132.6c-0.9,0-1.7-0.7-1.7-1.7v-21.6c0-0.9,0.7-1.7,1.7-1.7s1.7,0.7,1.7,1.7V131
		C85.3,131.9,84.6,132.6,83.6,132.6z"/>
</g>
<g>
	<path class="st0" d="M118.8,159.2c-0.3,0-0.6-0.1-0.9-0.3c-0.5-0.3-0.8-0.8-0.8-1.4v-47.2c0-0.9,0.7-1.7,1.7-1.7h29.7
		c0.9,0,1.7,0.7,1.7,1.7v22.8c0,0.4-0.1,0.7-0.3,1c-8,10.5-18.5,19.1-30.3,24.9C119.3,159.2,119.1,159.2,118.8,159.2z M120.5,112.1
		v42.8c10.2-5.4,19.3-13,26.4-22.2v-20.5H120.5z"/>
</g>
<g>
	<path class="st0" d="M150.1,112.1h-32.9c-2.6,0-4.7-2.1-4.7-4.7s2.1-4.7,4.7-4.7h32.9c2.6,0,4.7,2.1,4.7,4.7
		S152.7,112.1,150.1,112.1z M117.3,106c-0.8,0-1.4,0.6-1.4,1.4s0.6,1.4,1.4,1.4h32.9c0.8,0,1.4-0.6,1.4-1.4s-0.6-1.4-1.4-1.4H117.3z
		"/>
</g>
<g>
	<g>
		<path class="st0" d="M131.7,98.9c-2.5,0-5-1-6.8-2.8c-2.4-2.4-3.4-5.9-2.5-9.2c0.2-0.6,0.6-1,1.2-1.2c3.3-0.9,6.8,0.1,9.2,2.5
			c2.4,2.4,3.4,6,2.5,9.2c-0.2,0.6-0.6,1-1.2,1.2C133.3,98.8,132.5,98.9,131.7,98.9z M125.5,88.7c-0.2,1.8,0.5,3.7,1.8,5
			c1.3,1.3,3.2,2,5,1.8c0.2-1.8-0.5-3.7-1.8-5C129.1,89.2,127.3,88.6,125.5,88.7z"/>
	</g>
</g>
<g>
	<g>
		<path class="st0" d="M136.3,98.9c-0.8,0-1.7-0.1-2.5-0.3c-0.6-0.2-1-0.6-1.2-1.2c-0.9-3.3,0.1-6.8,2.5-9.2c2.4-2.4,6-3.4,9.2-2.5
			c0.6,0.2,1,0.6,1.2,1.2c0.9,3.3-0.1,6.8-2.5,9.2C141.2,97.9,138.8,98.9,136.3,98.9z M135.7,95.5c1.8,0.2,3.7-0.5,5-1.8
			c1.3-1.3,2-3.2,1.8-5c-1.8-0.1-3.7,0.5-5,1.8C136.1,91.8,135.5,93.7,135.7,95.5z"/>
	</g>
</g>
<g>
	<path class="st0" d="M134,106c-0.9,0-1.7-0.7-1.7-1.7V82.7c0-0.9,0.7-1.7,1.7-1.7c0.9,0,1.7,0.7,1.7,1.7v21.6
		C135.7,105.2,134.9,106,134,106z"/>
</g>
<g>
	<path class="st0" d="M30.8,67.5c-0.8,0-1.5-0.6-1.6-1.4c-0.2-0.9,0.4-1.8,1.3-1.9l47.5-8.5l47.5-24.1c0.8-0.4,1.8-0.1,2.2,0.7
		c0.4,0.8,0.1,1.8-0.7,2.2L79.2,58.7c-0.1,0.1-0.3,0.1-0.5,0.2l-47.7,8.6C31,67.5,30.9,67.5,30.8,67.5z"/>
</g>
<g>
	<path class="st5" d="M30.8,73.3c-4.1,0-7.5-3.4-7.5-7.5s3.4-7.5,7.5-7.5s7.5,3.4,7.5,7.5S34.9,73.3,30.8,73.3z M30.8,61.6
		c-2.3,0-4.2,1.9-4.2,4.2c0,2.3,1.9,4.2,4.2,4.2s4.2-1.9,4.2-4.2C35,63.5,33.1,61.6,30.8,61.6z"/>
</g>
<g>
	<circle class="st6" cx="30.8" cy="65.8" r="5.8"/>
</g>
<g>
	<circle class="st6" cx="78.5" cy="57.2" r="5.8"/>
</g>
<g>
	<circle class="st6" cx="126.2" cy="33.1" r="5.8"/>
</g>
<g>
	<circle class="st7" cx="30.8" cy="65.8" r="5.8"/>
	<path class="st0" d="M30.8,73.3c-4.1,0-7.5-3.4-7.5-7.5s3.4-7.5,7.5-7.5s7.5,3.4,7.5,7.5S34.9,73.3,30.8,73.3z M30.8,61.6
		c-2.3,0-4.2,1.9-4.2,4.2c0,2.3,1.9,4.2,4.2,4.2s4.2-1.9,4.2-4.2C35,63.5,33.1,61.6,30.8,61.6z"/>
</g>
<g>
	<circle class="st7" cx="78.5" cy="57.2" r="5.8"/>
	<path class="st0" d="M78.5,64.7c-4.1,0-7.5-3.4-7.5-7.5s3.4-7.5,7.5-7.5s7.5,3.4,7.5,7.5S82.6,64.7,78.5,64.7z M78.5,53.1
		c-2.3,0-4.2,1.9-4.2,4.2s1.9,4.2,4.2,4.2s4.2-1.9,4.2-4.2S80.8,53.1,78.5,53.1z"/>
</g>
<g>
	<circle class="st7" cx="126.2" cy="33.1" r="5.8"/>
	<path class="st0" d="M126.2,40.6c-4.1,0-7.5-3.4-7.5-7.5s3.4-7.5,7.5-7.5c4.1,0,7.5,3.4,7.5,7.5S130.3,40.6,126.2,40.6z
		 M126.2,28.9c-2.3,0-4.2,1.9-4.2,4.2s1.9,4.2,4.2,4.2s4.2-1.9,4.2-4.2S128.5,28.9,126.2,28.9z"/>
</g>
<g class="st3">
	<path class="st4" d="M125.5,119.4c-0.9,0-1.7-0.7-1.7-1.7v-0.6c0-0.9,0.7-1.7,1.7-1.7c0.9,0,1.7,0.7,1.7,1.7v0.6
		C127.2,118.6,126.4,119.4,125.5,119.4z"/>
</g>
<g class="st3">
	<path class="st4" d="M125.5,140.8c-0.9,0-1.7-0.7-1.7-1.7v-15.4c0-0.9,0.7-1.7,1.7-1.7c0.9,0,1.7,0.7,1.7,1.7v15.4
		C127.2,140.1,126.4,140.8,125.5,140.8z"/>
</g>
</svg>
