<svg enable-background="new 0 0 167 167" viewBox="0 0 167 167" xmlns="http://www.w3.org/2000/svg"><circle cx="83.4" cy="83.6" fill="#fff" r="81.8"/><path d="m41.5 60h82.4v67.4h-82.4z" fill="#f34b00"/><path d="m83.4 167c-46 0-83.4-37.4-83.4-83.4s37.4-83.5 83.4-83.5 83.4 37.4 83.4 83.4-37.4 83.5-83.4 83.5zm0-163.5c-44.1 0-80 35.9-80 80.1s35.9 80.1 80.1 80.1 80.1-35.9 80.1-80.1-36-80.1-80.2-80.1z" fill="#1c1d21"/><path d="m124.5 78.7h-20.9v-13.9h20.9zm-7 41.8h-13.9v-34.8h13.9zm-69.6-34.8h13.9v34.8h-13.9zm-6.9-20.9h20.9v13.9h-20.9zm13.9-20.8c0-3.8 3.1-7 7-7 7.8 0 13.8 13.5 16 20.9h-7.6c-9.7-4-15.4-9.2-15.4-13.9zm48.7-7c3.8 0 7 3.1 7 7 0 4.7-5.7 9.9-15.3 13.9h-7.6c2.1-7.4 8.1-20.9 15.9-20.9zm-7 48.7v34.8h-27.8v-34.8zm0-7h-27.8v-13.9h27.8zm34.8-20.8h-22.1c4.4-3.4 8.2-8 8.2-13.9 0-7.7-6.2-13.9-13.9-13.9-13.4 0-20.3 19.2-20.9 20.9-.6-1.8-7.4-21-20.8-21-7.7 0-13.9 6.2-13.9 13.9 0 5.9 3.8 10.5 8.2 13.9h-22.2v27.8h7v41.7h83.5v-41.6h7v-27.8z" fill="#f8f7f5"/><path d="m124.5 129.1h-83.5c-.9 0-1.7-.7-1.7-1.7v-40h-5.3c-.9 0-1.7-.7-1.7-1.7v-27.8c0-.9.7-1.7 1.7-1.7h17.7c-3.6-3.8-5.5-7.9-5.5-12.2 0-8.6 7-15.6 15.6-15.6 11 0 17.9 11.5 20.9 18.1 3-6.6 9.8-18.1 20.9-18.1 8.6 0 15.6 7 15.6 15.6 0 4.4-1.8 8.5-5.5 12.2h17.7c.9 0 1.7.7 1.7 1.7v27.8c0 .9-.7 1.7-1.7 1.7h-5.3v40.1c0 .9-.7 1.6-1.6 1.6zm-81.9-3.3h80.1v-40.1c0-.9.7-1.7 1.7-1.7h5.3v-24.5h-20.4c-.7 0-1.3-.5-1.6-1.1-.2-.7 0-1.4.6-1.9 5-3.9 7.5-8.1 7.5-12.6 0-6.8-5.5-12.2-12.2-12.2-11.7 0-18.1 16.5-19.3 19.8-.5 1.3-2.7 1.3-3.1 0-1.2-3.3-7.6-19.8-19.3-19.8-6.8 0-12.2 5.5-12.2 12.2 0 4.5 2.5 8.7 7.5 12.6.6.4.8 1.2.6 1.9s-.9 1.1-1.6 1.1h-20.5v24.5h5.3c.9 0 1.7.7 1.7 1.7v40.1zm74.9-3.6h-13.9c-.9 0-1.7-.7-1.7-1.7v-34.8c0-.9.7-1.7 1.7-1.7h13.9c.9 0 1.7.7 1.7 1.7v34.8c0 .9-.8 1.7-1.7 1.7zm-12.2-3.4h10.6v-31.4h-10.6zm-8.7 3.4h-27.8c-.9 0-1.7-.7-1.7-1.7v-34.8c0-.9.7-1.7 1.7-1.7h27.8c.9 0 1.7.7 1.7 1.7v34.8c0 .9-.7 1.7-1.7 1.7zm-26.1-3.4h24.5v-31.4h-24.5zm-8.6 3.4h-14c-.9 0-1.7-.7-1.7-1.7v-34.8c0-.9.7-1.7 1.7-1.7h13.9c.9 0 1.7.7 1.7 1.7v34.8c0 .9-.7 1.7-1.6 1.7zm-12.3-3.4h10.6v-31.4h-10.6zm74.9-38.4h-20.9c-.9 0-1.7-.7-1.7-1.7v-13.9c0-.9.7-1.7 1.7-1.7h20.9c.9 0 1.7.7 1.7 1.7v13.9c-.1 1-.8 1.7-1.7 1.7zm-19.2-3.3h17.5v-10.6h-17.5zm-8.7 3.3h-27.8c-.9 0-1.7-.7-1.7-1.7v-13.9c0-.9.7-1.7 1.7-1.7h27.8c.9 0 1.7.7 1.7 1.7v13.9c0 1-.7 1.7-1.7 1.7zm-26.1-3.3h24.5v-10.6h-24.5zm-8.6 3.3h-20.9c-.9 0-1.7-.7-1.7-1.7v-13.9c0-.9.7-1.7 1.7-1.7h20.9c.9 0 1.7.7 1.7 1.7v13.9c-.1 1-.8 1.7-1.7 1.7zm-19.3-3.3h17.5v-10.6h-17.5zm52.7-17.6h-7.6c-.5 0-1-.2-1.3-.7-.3-.4-.4-1-.3-1.5.7-2.3 6.9-22.1 17.6-22.1 4.8 0 8.6 3.9 8.6 8.6 0 5.5-5.9 11.1-16.3 15.5-.3.2-.5.2-.7.2zm-5.4-3.3h5c8.6-3.7 13.9-8.3 13.9-12.2 0-2.9-2.4-5.3-5.3-5.3-5.6 0-10.9 9.8-13.6 17.5zm-12.1 3.3h-7.6c-.2 0-.4 0-.6-.1-10.4-4.3-16.3-10-16.3-15.5 0-4.8 3.9-8.6 8.6-8.6 10.6 0 16.9 19.8 17.6 22.1.1.5.1 1-.3 1.5-.4.4-.9.6-1.4.6zm-7.3-3.3h5c-2.7-7.7-8-17.5-13.7-17.5-2.9 0-5.3 2.4-5.3 5.3.1 3.9 5.4 8.5 14 12.2z" fill="#04111d"/><g fill="#1c1d21"><path d="m30.8 43.8c-.9 0-1.7-.7-1.7-1.7v-7.4c0-.9.7-1.7 1.7-1.7s1.7.7 1.7 1.7v7.4c0 1-.8 1.7-1.7 1.7z"/><path d="m34.5 40.1h-7.4c-.9 0-1.7-.7-1.7-1.7s.7-1.7 1.7-1.7h7.4c.9 0 1.7.7 1.7 1.7s-.8 1.7-1.7 1.7z"/><path d="m23.3 111.2c-.9 0-1.7-.7-1.7-1.7v-7.4c0-.9.7-1.7 1.7-1.7s1.7.7 1.7 1.7v7.4c0 1-.8 1.7-1.7 1.7z"/><path d="m27 107.6h-7.4c-.9 0-1.7-.7-1.7-1.7 0-.9.7-1.7 1.7-1.7h7.4c.9 0 1.7.7 1.7 1.7 0 .9-.8 1.7-1.7 1.7z"/><path d="m90.8 148.7c-.9 0-1.7-.7-1.7-1.7v-7.4c0-.9.7-1.7 1.7-1.7.9 0 1.7.7 1.7 1.7v7.4c-.1 1-.8 1.7-1.7 1.7z"/><path d="m94.4 145h-7.4c-.9 0-1.7-.7-1.7-1.7s.7-1.7 1.7-1.7h7.4c.9 0 1.7.7 1.7 1.7s-.7 1.7-1.7 1.7z"/><path d="m143.2 111.2c-.9 0-1.7-.7-1.7-1.7v-7.4c0-.9.7-1.7 1.7-1.7s1.7.7 1.7 1.7v7.4c0 1-.8 1.7-1.7 1.7z"/><path d="m146.9 107.6h-7.4c-.9 0-1.7-.7-1.7-1.7 0-.9.7-1.7 1.7-1.7h7.4c.9 0 1.7.7 1.7 1.7-.1.9-.8 1.7-1.7 1.7z"/><path d="m135.7 51.3c-.9 0-1.7-.7-1.7-1.7v-7.4c0-.9.7-1.7 1.7-1.7s1.7.7 1.7 1.7v7.4c0 .9-.8 1.7-1.7 1.7z"/><path d="m139.4 47.6h-7.4c-.9 0-1.7-.7-1.7-1.7s.7-1.7 1.7-1.7h7.4c.9 0 1.7.7 1.7 1.7s-.8 1.7-1.7 1.7z"/></g></svg>