<svg enable-background="new 0 0 167 167" viewBox="0 0 167 167" xmlns="http://www.w3.org/2000/svg"><path d="m83.1 166.9c-46 0-83.4-37.4-83.4-83.4s37.4-83.4 83.4-83.4 83.4 37.4 83.4 83.4-37.4 83.4-83.4 83.4zm0-163.5c-44.2 0-80.1 35.9-80.1 80.1s35.9 80.1 80.1 80.1 80.1-35.9 80.1-80.1-36-80.1-80.1-80.1z" fill="#04111d"/><circle cx="83" cy="109.3" fill="#f8f7f5" r="7.9"/><path d="m83 118.9c-5.3 0-9.5-4.3-9.5-9.5 0-5.3 4.3-9.5 9.5-9.5 5.3 0 9.5 4.3 9.5 9.5.1 5.2-4.2 9.5-9.5 9.5zm0-15.8c-3.4 0-6.2 2.8-6.2 6.2s2.8 6.2 6.2 6.2 6.2-2.8 6.2-6.2-2.7-6.2-6.2-6.2z" fill="#04111d"/><circle cx="83" cy="57.7" fill="#cc805c" r="7.9"/><circle cx="83" cy="57.7" fill="#f8f7f5" r="7.9"/><path d="m83 67.2c-5.3 0-9.5-4.3-9.5-9.5s4.3-9.5 9.5-9.5c5.3 0 9.5 4.3 9.5 9.5s-4.2 9.5-9.5 9.5zm0-15.7c-3.4 0-6.2 2.8-6.2 6.2s2.8 6.2 6.2 6.2 6.2-2.8 6.2-6.2-2.7-6.2-6.2-6.2z" fill="#04111d"/><circle cx="57.2" cy="83.5" fill="#f8f7f5" r="7.9"/><path d="m57.2 93c-5.3 0-9.5-4.3-9.5-9.5 0-5.3 4.3-9.5 9.5-9.5 5.3 0 9.5 4.3 9.5 9.5.1 5.3-4.2 9.5-9.5 9.5zm0-15.7c-3.4 0-6.2 2.8-6.2 6.2s2.8 6.2 6.2 6.2 6.2-2.8 6.2-6.2-2.8-6.2-6.2-6.2z" fill="#04111d"/><circle cx="108.9" cy="83.5" fill="#ff9341" r="7.9"/><circle cx="108.9" cy="83.5" fill="#f8f7f5" r="7.9"/><path d="m108.9 93c-5.3 0-9.5-4.3-9.5-9.5 0-5.3 4.3-9.5 9.5-9.5 5.3 0 9.5 4.3 9.5 9.5 0 5.3-4.2 9.5-9.5 9.5zm0-15.7c-3.4 0-6.2 2.8-6.2 6.2s2.8 6.2 6.2 6.2 6.2-2.8 6.2-6.2-2.8-6.2-6.2-6.2z" fill="#04111d"/><path d="m73.7 136.6v1.6c0 5.2 4.2 9.4 9.4 9.4 5.2 0 9.4-4.2 9.4-9.4v-1.6c0-5.3 1.5-10.6 4.2-15.1 2.9-4.9 5-11.4 5.6-18.7h-.4c-2.2 8.3-9.7 14.5-18.8 14.5s-16.6-6.2-18.8-14.5h-.4c.6 7.3 2.6 13.8 5.6 18.7 2.7 4.5 4.2 9.7 4.2 15.1z" fill="#f34b00"/><path d="m92.4 30.4v-1.6c0-5.2-4.2-9.4-9.4-9.4-5.2 0-9.4 4.2-9.4 9.4v1.6c0 5.3-1.5 10.6-4.2 15.1-2.9 4.9-5 11.4-5.6 18.7h.4c2.2-8.3 9.7-14.5 18.8-14.5s16.6 6.2 18.8 14.5h.4c-.6-7.3-2.6-13.8-5.6-18.7-2.7-4.5-4.2-9.7-4.2-15.1z" fill="#f34b00"/><path d="m30 74.1h-1.6c-5.2 0-9.4 4.2-9.4 9.4 0 5.2 4.2 9.4 9.4 9.4h1.6c5.3 0 10.6 1.5 15.1 4.2 4.9 2.9 11.4 5 18.7 5.6v-.4c-8.3-2.2-14.5-9.7-14.5-18.8s6.2-16.6 14.5-18.8v-.4c-7.2.7-13.8 2.7-18.7 5.6-4.6 2.7-9.8 4.2-15.1 4.2z" fill="#f34b00"/><g fill="#04111d"><path d="m63.8 104.3c-.1 0-.1 0 0 0-7.5-.6-14.2-2.7-19.5-5.8-4.4-2.6-9.3-4-14.3-4h-1.6c-6.1 0-11-5-11-11s5-11 11-11h1.6c2.4 0 4.8-.3 7.1-1 .9-.3 1.8.3 2 1.2s-.3 1.8-1.2 2c-2.6.7-5.3 1.1-8 1.1h-1.6c-4.3 0-7.7 3.5-7.7 7.7 0 4.3 3.5 7.7 7.7 7.7h1.7c5.6 0 11.1 1.5 16 4.5 2.6 1.5 5.6 2.8 8.9 3.7-4.5-3.9-7.2-9.6-7.2-15.9 0-6.2 2.8-12 7.2-15.9-1.4.4-2.7.8-4 1.3-.9.3-1.8-.1-2.2-.9-.3-.9.1-1.8.9-2.2 4.2-1.7 9-2.7 14-3.2.5-.1.9.1 1.3.4.3.3.5.8.5 1.2 0 .8-.5 1.8-1.3 2-7.8 2-13.3 9.1-13.3 17.1s5.5 15.1 13.3 17.1c.7.2 1.3.9 1.3 1.6 0 .5-.2 1.1-.5 1.4-.3.6-.7.9-1.1.9z"/><path d="m43.9 72.3c-.6 0-1.2-.3-1.5-.9-.4-.8-.1-1.8.7-2.3.4-.2.8-.4 1.1-.6.8-.5 1.8-.2 2.3.6s.2 1.8-.6 2.3c-.4.2-.8.5-1.3.7-.1.1-.4.2-.7.2z"/><path d="m83.1 149.3c-6.1 0-11-5-11-11v-1.6c0-2.4-.3-4.8-1-7.1-.2-.9.3-1.8 1.2-2 .9-.3 1.8.3 2 1.2.7 2.6 1.1 5.3 1.1 8v1.6c0 4.3 3.5 7.7 7.7 7.7s7.7-3.5 7.7-7.7v-1.6c0-5.6 1.5-11.1 4.5-16 1.5-2.6 2.8-5.6 3.7-8.9-3.9 4.5-9.6 7.2-15.9 7.2-6.2 0-12-2.8-15.9-7.2.4 1.4.8 2.7 1.3 4 .3.9-.1 1.8-.9 2.2-.9.3-1.8-.1-2.2-.9-1.7-4.2-2.7-9-3.2-14 0-.5.1-.9.4-1.3.8-.9 2.9-.5 3.3.7 2 7.8 9.1 13.3 17.1 13.3s15.1-5.5 17.1-13.3c.3-1.2 2.2-1.6 3.1-.7.3.3.7.8.6 1.3-.6 7.4-2.6 14.1-5.8 19.4-2.6 4.4-4 9.3-4 14.3v1.6c.1 5.8-4.9 10.8-10.9 10.8z"/><path d="m70.2 124.3c-.6 0-1.2-.3-1.5-.9-.2-.4-.4-.8-.7-1.1-.5-.8-.2-1.8.6-2.3s1.8-.2 2.3.6c.2.4.5.8.7 1.3.4.8.1 1.8-.7 2.3-.2 0-.5.1-.7.1z"/></g><g fill="#fff" opacity=".25"><path d="m42.5 78.5c.2-.1.5-.2.7-.3"/><path d="m42.5 80.2c-.7 0-1.3-.4-1.6-1.1-.3-.9.1-1.8 1-2.2 0 0 .3-.1.4-.1.9-.3 2 0 2.3.9s.1 1.8-.8 2.1l-.7.3c-.2.1-.4.1-.6.1z"/></g><g fill="#fff" opacity=".25"><path d="m25.6 83.5c0-1.5 1.2-2.7 2.7-2.7h1.7c2.5 0 5-.3 7.5-.8"/><path d="m25.6 85.2c-.9 0-1.7-.7-1.7-1.7 0-2.4 2-4.4 4.4-4.4h1.7c2.4 0 4.8-.3 7.1-.8.9-.2 1.8.4 2 1.3s-.4 1.8-1.3 2c-2.6.5-5.2.8-7.8.8h-1.6c-.6 0-1 .5-1 1-.1 1-.8 1.8-1.8 1.8z"/></g><g opacity=".25"><path d="m78.1 124.1c-.1-.2-.2-.5-.3-.7" fill="#fff"/><path d="m78.1 125.7c-.7 0-1.3-.4-1.6-1.1l-.3-.7c-.3-.9.1-1.8 1-2.2.8-.3 1.8.1 2.2 1l.3.7c.3.9-.1 1.8-1 2.2-.2.1-.4.1-.6.1z" fill="#ffeeeb"/></g><g opacity=".25"><path d="m83.1 140.9c-1.5 0-2.7-1.2-2.7-2.7v-1.6c0-2.5-.3-5-.8-7.5" fill="#fff"/><path d="m83.1 142.6c-2.4 0-4.4-2-4.4-4.4v-1.6c0-2.4-.3-4.8-.8-7.1-.2-.9.4-1.8 1.3-2s1.8.4 2 1.3c.5 2.6.8 5.2.8 7.8v1.6c0 .6.5 1 1 1 .9 0 1.7.7 1.7 1.7s-.7 1.7-1.6 1.7z" fill="#ffeeeb"/></g><path d="m136.1 92.9h1.6c5.2 0 9.4-4.2 9.4-9.4 0-5.2-4.2-9.4-9.4-9.4h-1.6c-5.3 0-10.6-1.5-15.1-4.2-4.9-2.9-11.4-5-18.7-5.6v.4c8.3 2.2 14.5 9.7 14.5 18.8s-6.2 16.6-14.5 18.8v.4c7.3-.6 13.8-2.6 18.7-5.6 4.6-2.8 9.8-4.2 15.1-4.2z" fill="#f34b00"/><g opacity=".25"><path d="m123.6 88.5c-.2.1-.5.2-.7.3" fill="#fff"/><path d="m123.2 90.3c-.7 0-1.4-.4-1.7-1-.3-.9-.1-1.8.8-2.1l.7-.3c.8-.3 1.8.1 2.2 1 .3.9-.1 1.8-1 2.2 0 0-.3.1-.4.1s-.4.1-.6.1z" fill="#ffcfac"/></g><g opacity=".25"><path d="m140.5 83.5c0 1.5-1.2 2.7-2.7 2.7h-1.6c-2.5 0-5 .3-7.5.8" fill="#fff"/><path d="m128.7 88.7c-.8 0-1.5-.5-1.6-1.3-.2-.9.4-1.8 1.3-2 2.6-.6 5.2-.8 7.8-.8h1.6c.6 0 1-.5 1-1 0-.9.7-1.7 1.7-1.7s1.7.7 1.7 1.7c0 2.4-2 4.4-4.4 4.4h-1.6c-2.4 0-4.8.3-7.1.8-.2-.2-.3-.1-.4-.1z" fill="#ffcfac"/></g><g opacity=".25"><path d="m88 42.9c.1.2.2.5.3.7" fill="#fff"/><path d="m88.3 45.3c-.7 0-1.3-.4-1.6-1.1l-.3-.7c-.3-.9.1-1.8 1-2.2.8-.3 1.8.1 2.2 1l.3.7c.3.9-.1 1.8-1 2.2-.2.1-.4.1-.6.1z" fill="#ffac6f"/></g><g opacity=".25"><path d="m83.1 26.1c1.5 0 2.7 1.2 2.7 2.7v1.6c0 2.5.3 5 .8 7.5" fill="#fff"/><path d="m86.5 39.5c-.8 0-1.5-.5-1.6-1.3-.5-2.6-.8-5.2-.8-7.8v-1.6c0-.6-.5-1-1-1-.9 0-1.7-.7-1.7-1.7 0-.9.7-1.7 1.7-1.7 2.4 0 4.4 2 4.4 4.4v1.6c0 2.4.3 4.7.8 7.1.2.9-.4 1.8-1.3 2-.2 0-.3 0-.5 0z" fill="#ffac6f"/></g><path d="m102.3 104.3c-.4 0-.8-.2-1.1-.4-.3-.3-.5-.8-.5-1.2 0-.8.5-1.8 1.3-2 7.8-2 13.3-9.1 13.3-17.1s-5.5-15.1-13.3-17.1c-.7-.2-1.3-.9-1.3-1.6 0-.5.2-1.1.5-1.4s.8-.7 1.3-.6c7.4.6 14.1 2.7 19.4 5.8 4.4 2.6 9.3 4 14.3 4h1.6c6.1 0 11 4.9 11 11s-5 11-11 11h-1.6c-2.4 0-4.8.3-7.1.9-.9.3-1.8-.3-2-1.2s.3-1.8 1.2-2c2.6-.7 5.3-1.1 8-1.1h1.6c4.3 0 7.7-3.5 7.7-7.7s-3.5-7.7-7.7-7.7h-1.6c-5.6 0-11.1-1.5-16-4.5-2.6-1.5-5.6-2.8-8.9-3.7 4.5 3.9 7.2 9.6 7.2 15.9s-2.8 12-7.2 15.9c1.4-.4 2.7-.8 4-1.3.8-.4 1.8.1 2.2.9.3.9-.1 1.8-.9 2.2-4.2 1.7-9 2.7-14 3.2-.3-.2-.4-.2-.4-.2z" fill="#04111d"/><path d="m121 98.8c-.6 0-1.1-.3-1.4-.8-.5-.8-.2-1.8.6-2.3.4-.3.8-.5 1.3-.7.8-.4 1.8-.1 2.3.7.4.8.1 1.8-.7 2.3-.4.2-.8.4-1.1.6-.4.1-.7.2-1 .2z" fill="#04111d"/><path d="m102.2 65.9c-.8 0-1.8-.5-2-1.3-2-7.8-9.1-13.3-17.1-13.3s-15.1 5.5-17.1 13.3c-.3 1.2-2.2 1.6-3.1.7-.3-.3-.7-.8-.6-1.3.6-7.4 2.6-14.1 5.8-19.4 2.6-4.4 4-9.3 4-14.3v-1.6c0-6.1 4.9-11 11-11s11 4.9 11 11v1.6c0 2.4.3 4.8 1 7.1.2.9-.3 1.8-1.2 2-.9.3-1.8-.3-2-1.2-.7-2.6-1.1-5.3-1.1-8v-1.6c0-4.2-3.5-7.7-7.7-7.7s-7.7 3.5-7.7 7.7v1.6c0 5.6-1.5 11.1-4.5 16-1.5 2.6-2.8 5.6-3.7 8.9 3.9-4.5 9.6-7.2 15.9-7.2 6.2 0 12 2.8 15.9 7.2-.4-1.4-.8-2.7-1.3-4-.3-.9.1-1.8.9-2.2.9-.4 1.8.1 2.2.9 1.7 4.2 2.7 9 3.2 14 0 .5-.1.9-.4 1.3-.4.6-.9.8-1.4.8z" fill="#04111d"/><path d="m96.7 47.2c-.6 0-1.1-.3-1.4-.8-.3-.4-.5-.9-.7-1.3-.4-.8-.1-1.8.7-2.3s1.8-.1 2.3.7c.2.4.4.8.6 1.1.5.8.2 1.8-.6 2.3-.3.2-.6.3-.9.3z" fill="#04111d"/></svg>