<svg id="Layer_1" fill="#ddd" data-name="Layer 1" xmlns="http://www.w3.org/2000/svg" viewBox="0 0 1192.29 631.79"><title>map</title><path d="M346.81,352.42V339.47h-19.9v-5.61H288.46v8.61h10v9.95Zm-3-3h-42.4v-6.95h42.4Zm-52.35-12.56h32.45v2.61H291.46Z"/><path d="M247.34,75.24h-8.61v8.61h8.61Zm-3,5.61h-2.61V78.24h2.61Z"/><path d="M496,78.24H506V38.45h9.95v-10h19.9V19.9H506V10H486.06V0h-48.4V10H397.88v10H366.7V10H288.46v10H258.62v9.94h-10v8.61h10V48.4h19.89v10H307v-10H317V38.45h11.29v19.9h9.95V68.3H378v9.94h9.95V128h9.95v19.89h9.94v9.95h18.56v-9.95h9.95V128h19.89V118h19.89v-10H496Zm6.94-3H496V68.3H503ZM515.9,22.9h16.9v2.6H515.9ZM440.66,3h42.4v7h-42.4ZM400.88,13H503v7H400.88Zm-3,10h115V35.45H350.38V22.9h47.5Zm-61,0h10.52v2.6H336.86Zm10.52,5.6v7H336.86v-7ZM336.86,13H363.7v7H336.86Zm-45.4,0h42.4v7h-42.4Zm-39.79,22.5V32.84h7v2.61ZM304,55.35H281.51v-7H304Zm9.94-10H261.62V22.9H314V45.4Zm3-9.95V22.9h16.9V35.45H317Zm14.29,19.9V38.45H503V55.34H331.25Zm9.95,9.95V58.35H503V65.3H341.2Zm46.72,9.94H381V68.3h6.94Zm35.46,79.58H410.82v-6.95h12.56Zm9.95-9.95H400.88V128h32.45ZM453.22,125H390.93V68.3h62.29V125Zm19.89-10H456.22v-7h16.89Zm19.9-10H456.22V68.3H493v36.78Z"/><path d="M606.76,83.85h18.56V73.9h9.95V64h19.89V55.35H616.71v9.94H596.82V73.9h9.94Zm15.56-3H609.76V73.9h12.56Zm12.95-22.5h16.89V61H635.27Zm-15.56,0h12.56V70.9H619.71V58.35ZM599.82,70.9V68.29h16.89V70.9H599.82Z"/><path d="M645.22,83.85V75.24H636.6v8.61Zm-5.62-5.61h2.62v2.61H639.6Z"/><path d="M433.32,423.38H416.43v-9.95H396.54V393.54H366.7V383.6h-9.95v-10H326.91V363.7H318.3v9.95H287.12V353.76H267.23V342.47h9.95v-8.61H258.62v9.95H237.39V312.63h46.73v9.95h12.95V292.74H307v-19.9H317v-9.95h10V253h29.84v-8.61h-9.94v-10h-9.95V223.11H363.7v11.28h-5.61V243h28.5v-8.61h-9.95V223.11h0V214.5H366.7v-9.95h-9.95V190.27h-9.94v-5.61h-19.9v-9.95H321.3V163.43h6.95v9.94h18.56V153.48h9.94v-8.61h-9.94V130.58h-9.95v-9.94h-9.95v-10H297.07v-2.61h0v-13H267.23V85.19H248.67V93.8h10v11.28H198.94v10H177.71v-10h-19.9V93.8h21.24v9.94h8.61V93.8h49.73V85.18h-19.9V73.9h19.9V65.3h-9.95V55.35h-8.61V65.3h-10V85.18H197.6V65.29H189v9.95H159.15v9.94h-9.94v19.9h-10V125h-19.9v9.94H98.13V125H48.4V115H29.84v10H19.89v9.94H0v28.51H10v19.89h9.94v21.23H0v18.56H8.61v-10H28.5v-9.95H48.4v-9.94h9.94v-10H99.47v10h10v19.89h19.89v19.89h19.9v49.74h9.94v9.95h9.95v9.94h10v19.9H189v9.94h19.89v19.9h19.9v9.94h29.84v9.95h5.61v9.95h19.89v9.94h14.29v11.29h-10V432h10v19.9h9.95v9.94h9.94v9.95h9.95V503H318.3v45.39h-9.94V611h9.94v10h19.9v10.81h8.61V608h-9.95v-5.6h-9.95V591.14h9.95V571.25h9.95v-10h9.94v-9.95h9.95v-9.94h9.95v-9.95h9.94v-10h10V501.62h9.95v-9.95h19.89V471.78h9.94V441.94h9.95V423.38H433.32Zm-26.83-6.95h6.94v6.95h-6.94Zm-3,0v32.45H366.7V416.43h36.79Zm-9.95-19.89v16.89H366.7V396.54ZM321.3,366.7h2.61v6.95H321.3Zm-19.89,9.95h52.34v7H301.41Zm-27.23-39.79v2.61h-6.95v-2.61Zm-12.56,0h2.61v2.61h-2.61Zm0,5.61h2.61v1.34h-2.61Zm-27.23-22.89h-16.9v-6.95h16.9Zm3-9.95h-19.9v-6.95h66.63v6.95Zm56.68,9.95h-6.95V227.45h6.95v92.13ZM177.71,183.32V145.06h66.63v28.31h0v11.29h0v19.89H177.71ZM157.81,125v-1.34H169.1v11.28H157.81V125Zm14.29-1.34h2.61v11.28H172.1Zm45.39-3v-7h11.29V125H217.49v-4.33Zm66.63,12.94v26.85H271.57V123.64h12.55Zm-2.6,29.85h2.6v6.94h-2.6Zm-12.95-28.51H257.28V125h-9.94V113.69h11.28v10h9.95Zm-14.29,28.51v6.94h-6.94V142.06h0V128h6.94v35.46Zm-36.79-29.85V128h26.85v14.09H217.49Zm39.79,4.34h11.29v22.51H257.28ZM244.34,125H231.78V113.69h12.56Zm-29.85,0v5.61H177.71v-6.94h36.78Zm-36.78,12.95v-4.34h36.78v8.48H177.71Zm69.63,49.74h6.94v16.89h-6.94Zm9.94,9.94h7v7h-7Zm0-3v-9.94h-9.94V173.37h9.94v-9.94h21.24v9.94h8.6V133.58h11.29v9.95H307v-9.95H318.3v21.23H299v38.46h5v11.28h-9.95v19.9h-6.95v-19.9H267.23v-10Zm44.13-61H304v6.95h-2.61ZM304,289.74h-6.95V207.55H304v82.19Zm9.94-19.9H307v-6.95H314Zm10-9.95H307V253h16.89Zm29.84-12.55V250h-6.94v-2.61Zm-9.94-10V250h-6.95V237.39Zm-9.95-3V250H307V223.11h26.84Zm49.73,3V240h-22.5v-2.61h22.5Zm-9.95-3H366.7V223.11h6.94Zm0-16.89v2.61H366.7V217.5Zm-9.95-9.95v12.56h-6.95V207.55Zm-9.95-14.28v26.84H307V193.27h46.73Zm-9.94-5.61v2.61h-16.9v-2.61Zm-19.9-9.95v12.56H321.3V177.71Zm-5.61-3v15.56H302V157.81H318.3v16.9Zm25.51-4.34H331.25v-6.94h12.56Zm9.94-22.5v2.61h-6.94v-2.61Zm-9.94-14.29v11.29H341v8.61h2.81v7H321.3V133.58h22.51Zm-9.95-9.94v6.94H287.12v-6.94h46.74Zm-9.95-10v7H261.62v-7h62.29ZM251.67,90.8V88.19h7V90.8Zm10,3V88.19h2.61v6.94h-2.61Zm5.61,4.33h26.84v7H261.62v-7Zm-49.74,10h76.58v2.61H217.49Zm-15.55,0h12.55v7H201.94Zm-3,10h15.55v2.61H177.71V118Zm-24.23-10v12.56h-16.9V108.08Zm9.95-7.34h-2.61V93.8h2.61ZM221.83,68.3h2.61v2h-2.61Zm12.56,0v2.6h-6.95V68.3Zm-12.56-9.95h2.61V65.3h-2.61Zm-3,9.95v2.6h-1.34V68.3Zm-7,0h2.61v2.6h-2.61Zm0,5.6h2.61V85.18h-2.61ZM192,68.29h2.61v6.95H192Zm-29.84,9.95H194.6v6.94H162.15Zm-3,9.94h75.24V90.8H157.81V88.18Zm-6.94,0h2.6V90.8h-2.6Zm0,5.62h2.6v11.28h-2.6Zm-10,14.28h12.55V125H142.26ZM122.36,128h32.45v6.94H122.36ZM32.84,118H45.4v7H32.84Zm-10,10H95.13v6.94H22.89ZM3,160.43V137.92H174.71v22.51H3Zm0,47.12H5.61v2.61H3Zm2.61,12.56H3v-7H5.61Zm3-10v-2.61H19.89v2.61Zm16.89,0H22.89v-2.61H25.5Zm0-5.61H22.89v-1.34H25.5Zm19.9-4.34H22.89V183.32H45.4v16.89Zm9.94-9.94H48.4v-7h6.94Zm3-10H13V163.43H174.71v16.89H58.34Zm51.08,10h-7v-7h7Zm3,19.89V183.32h16.89v26.84Zm19.89,19.89V183.32h16.9v46.73Zm19.9,49.74V183.32h6.94v96.47Zm9.94,9.95V183.32h12.56V289.74H162.15Zm12.56,9.94H172.1v-6.94h2.61Zm3,0V207.55H284.12v92.13H177.71Zm4.34,19.9v-16.9h32.44v16.9H182.05Zm9.94,9.94v-6.94h42.4v6.94H192Zm19.89,19.9v-16.9h22.51v16.9H211.88Zm22.51,9.94h-2.61v-6.94h2.61Zm3,0V346.81h26.84v12.55H237.39Zm24.23,9.95v-6.95h2.61v6.95Zm5.61,9.95v-22.5h16.89v22.5Zm19.89,9.94V376.65h11.29V389.2ZM291.46,429v-22.5h7V429Zm10,19.9V386.6H363.7v62.29H301.41Zm9.95,9.94v-6.94h16.89v6.94H311.36Zm9.94,9.95v-6.95h6.95v6.95Zm0,37.18h6.95v12.55H321.3Zm22.51,122.83H341.2V621h2.61Zm0-17.76v7H321.3v-7h22.51Zm-9.95-5.6V608h-6.95v-2.6Zm-9.95-3V608H311.36V591.14h12.55Zm9.95-14.29h-22.5V571.25h22.5Zm9.95-19.89H311.36v-7h32.45Zm9.94-10H311.36v-6.95h42.39Zm9.95-9.95H321.3V521.51h42.4v26.84Zm9.95-9.94H366.7v-16.9h6.95v16.9Zm9.94-9.95h-6.94v-7h6.94Zm10-10H331.25V501.62h62.29Zm9.95-19.89H331.25V451.89h72.24v46.73Zm19.89-9.95H406.49V471.78h16.89Zm9.94-19.89H406.49v-42.4h26.83v42.4Zm9.95-42.4v12.56h-6.95V426.38Z"/><path d="M1074.27,441.94h18.55v-8.61h-18.55Zm3-5.61h12.55v2.61h-12.55Z"/><path d="M1063,451.88v-8.6h-8.61v8.6Zm-5.61-5.6H1060v2.6h-2.61Z"/><path d="M925.06,352.42h8.61v-8.61h-8.61Zm3-5.61h2.61v2.61h-2.61Z"/><path d="M825.6,392.2h8.6v-8.6h-8.6Zm3-5.6h2.6v2.6h-2.6Z"/><path d="M721.79,453.23h-5.61v9.94h-9.95v38.45h8.61v-9.95h9.95V461.83h9.94v-8.6H721.79Zm-9.95,45.39h-2.61v-6.95h2.61Zm9.95-9.95H709.23v-22.5h12.56Zm0-25.5h-2.61v-6.94h2.61v6.94Zm9.94-6.94v2.6h-6.94v-2.6Z"/><path d="M596.82,282.79h8.6v-8.61h-8.6Zm3-5.61h2.6v2.61h-2.6Z"/><path d="M984.75,322.58h8.6V314h-8.6Zm3-5.61h2.6v2.61h-2.6Z"/><path d="M970.46,392.2H983.4V363.7h-9.94V343.81H954.9v28.5h10V392.2Zm0-3h-2.61V372.31h2.61Zm9.94-22.5v22.5h-6.94V366.7Zm-22.5,2.61v-22.5h12.56v22.5H957.9Z"/><path d="M1122.67,473.12h-18.56v18.55h18.56Zm-3,15.55h-12.56V476.12h12.56Z"/><path d="M1152.5,532.8h-9.94v-9.95H1134v39.79h-19.89v18.55h18.55v-9.94h10v-10h9.94v-9.95h10v-8.6h-10ZM1137,525.85h2.61v6.95H1137Zm-7.34,52.34h-12.55v-6.94h12.55Zm4.34-9.94h-16.89v-2.61H1134Zm5.61,0H1137v-7h2.61Zm9.94-10H1137V535.8h12.55v22.5Zm10-12.55v2.6h-7v-2.6Z"/><path d="M1192.29,144.87H1172.4v-10h-19.9V125h-79.57V115h-29.84V103.74H1063V95.13h-19.89V85.19h-28.5v18.55h9.94V115H993.35v-10H943.62V85.19H913.78V65.3H898.22V55.35H883.94v-10h-8.61v10h-10V64h10V73.9h19.89V85.19H865.38v9.94H845.49v10H785.81v10h-9.95V125H756v9.95H724.79V125h-8.61v9.95H665.11V115H646.55v10H616.71v9.94h-10v10h-9.94v9.95h-10v9.94h-10v28.51h10V214.5h-10v9.95H557v29.84H527.19v32.84h9.94v6.94h-9.94V314h-10v9.95h-9.95v9.94h-9.94v8.61h9.94v29.84h9.95V392.2h10v9.95h18.55V392.2h41.13V422h10V432h9.94v21.24h-9.94v18.55h9.94v29.84h10v60.56h8.61V551.35h9.95v-9.94h9.94v-9.95h9.95v-10h10V501.62H685V471.78h9.94V412.1h9.95v-10h10V392.2h19.89V373.65H714.84V362.36h19.89v-9.94h9.95v-9.95h10v-8.61h-19.9v-9.94h-9.94V312.63h11.28v9.95h49.74v19.89H805.7v29.84h9.95v9.95h8.6v-9.95h10V352.42h9.95v-9.95h31.18v9.95h9.95v41.12h-9.95v8.61h9.95v10h9.94V422h9.95V432h10v9.95H954.9v9.94h18.56v-9.94h9.94V422h21.24v11.29h-9.95v19.9H974.8v9.94H954.9v19.9H935v28.5h10v19.89h28.5v-10h31.18v10h19.89v9.95h10v9.94h10v9.95h8.6V541.41h10v-19.9h10V493h-10v-9.94h-10v-19.9h-9.94v-9.94h-8.61v9.94h-21.24v-9.94h-5.6V441.94H1053V432h19.9v-8.61H1053V419h-19.89v-5.61H993.35v-9.94H957.9v-9.95h-4.34V383.6H945v9.94H935v9.95h-10V422H954.9v11.29H923.72V419h-9.94v-25.5h-9.95V383.6h-10V372.31h11.29v9.95h8.61v-9.95h9.94V353.76h-9.94V342.47h19.89v-10h29.84V272.84H974.8v10h10v9.95h9.94v19.89h8.61V292.74h29.84V262.89h9.95V214.5h-9.95v-9.95h-10V193.27h10v-10h49.74v-9.95h11.28v11.29h-10v19.89h-9.94v8.61h9.94v10h8.61v-10h10V183.32h29.84v-9.95h29.84V153.48h11.29v10h8.6v-10h10ZM1060,98.13v2.61h-16.89V98.13Zm-42.39,2.61V88.19h22.5v12.55h-22.5Zm9.94,3h12.56V115h-12.56Zm-3,14.29h45.4v16.89H993.35V118ZM878.33,48.4h2.61v7h-2.61ZM868.38,61V58.35h7V61Zm10,9.94V58.35h16.89V70.9Zm19.89,3V68.3h12.56V85.19H898.22ZM868.38,88.19h72.24v16.89H868.38V88.19Zm-19.89,9.94h16.89v7H848.49Zm-59.68,10H990.35v26.84H788.81V108.08Zm-9.95,10h6.95v16.89h-6.95V118ZM759,128h16.89v6.95H759Zm-39.79,0h2.61v6.95h-2.61ZM649.55,118h12.56v7H649.55Zm-29.84,10h42.4v6.94h-42.4Zm-10,9.94H636.6v7H609.76Zm-9.94,10H636.6v6.95H599.82Zm-10,9.95H636.6v6.94H589.87ZM696.28,309.63v9.95H675.05V267.23h21.23Zm0,24.23h-6.94V322.58h6.94Zm-21.23,22.9h16.89v2.6H675.05Zm0-14.29h7v11.29h-7Zm10,11.29V342.47h11.28v9.95h10v6.94H694.94v-5.6Zm11.28-14.29H675.05v-2.61h21.23Zm-21.23-5.61V322.58h11.29v11.28ZM642.21,304H629.66v-6.95h12.55Zm-15.55-9.95V304H605.42v-9.95h-9.95v-9.94H555.69V272.84h9.94v-9.95h21.24v9.95h8.6v-9.95h11.29v19.9h8.61v-19.9h11.29v19.9h39.78v9.95h5.61V304H645.21v-9.95ZM595.47,304v-6.95h6.95V304Zm-39.78-41.13h6.94v6.95h-6.94Zm34.18,0h2.6v6.95h-2.6Zm39.79,0h6.94v16.9h-6.94Zm6.87-38.44H629.7V197.6h6.83Zm-6.87,3h6.87v32.44H605.42V227.45h24.24Zm-19.9,35.44h2.61v16.9h-2.61Zm45.4,4.34h16.89v12.56H655.16Zm16.89,22.51h-2.61v-6.95h2.61Zm3-25.51H655.16V253h41.12v11.28Zm-22.89,0v15.56H639.6V253h12.56ZM636.6,194.6h-9.9v10H615.37V183.32h10v-8.61h-10v-7h11.29v5.61h8.61v-5.61h1.33Zm-29.84,10H595.47V193.27h11.29Zm3-11.28h2.61v11.28h-2.61Zm5.61-15.56h7v2.61h-7Zm14.29-10h2.61v2.61h-2.61Zm-49.74,22.51V167.76h32.45v7h-.12v8.61h.12v7H579.92Zm10,3h2.6v11.28h-2.6Zm0,14.28h36.79v16.9H589.87v-16.9Zm-10,9.95h7v6.95h-7ZM560,227.45h42.39v32.44H560V227.45Zm-4.34,29.84H557v2.6h-1.34Zm-25.5,26.84V257.29h22.5v26.84h-22.5Zm9.94,3h52.34V304H540.13V287.13Zm-9.94,9.94h6.94V304h-6.94Zm-29.84,42.4v-2.61h6.94v2.61Zm9.94,29.84V326.92h6.95v42.39Zm9.95,19.89V317h7V389.2Zm22.5,9.95H530.19V392.2h12.55Zm3-9.95H530.19V307H672.05V389.2H545.74ZM599.82,429V422h6.94V429Zm0,39.79V456.23h6.94v12.55Zm22.5,90.4h-2.61v-7.83h2.61Zm9.95-10.83H619.71v-6.94h12.56Zm9.94-9.94h-22.5v-16.9h22.5v16.9Zm9.95-9.95h-6.95v-7h6.95Zm10-10h-42.4V501.62h42.4ZM682,498.62H609.76V422H682v76.58Zm9.94-29.84H685V422h6.94Zm0-49.74H589.87V392.2H691.94V419Zm9.95-9.94h-6.95V392.2h6.95v16.9Zm10-10h-7V392.2h7Zm19.89-22.5V389.2H714.84V376.65Zm-19.89-3V389.2H675.05V362.36h36.79Zm19.89-14.29h-22.5v-6.94h22.5Zm9.95-9.94h-6.95v-6.95h6.95Zm10-12.56v2.61h-16.9v-2.61Zm-19.9-9.94v22.5h-6.94v-22.5Zm-9.94-3v25.5H699.28V312.63h22.51Zm17.28-4.34v-6.95h46.74v6.95Zm82.18,59.68h-2.6v-6.95h2.6Zm10-9.95H808.7V342.47h22.5v26.84Zm9.95-19.89H834.2v-6.95h6.95Zm37.18,0v-6.95h6.95v6.95Zm0,49.73v-2.61h6.95v2.61Zm92.13,49.73H957.9v-6.94h12.56ZM938,508.57v-22.5H954.9v22.5H938Zm16.89,19.89H948V511.57h6.94v16.89Zm15.56,0H957.9v-7h12.56ZM1050,558.3h-2.6v-6.95h2.6Zm0-9.95h-12.55v-6.94H1050Zm10-9.94h-32.45v-6.95H1060Zm0-9.95h-52.34v-7H1060Zm10-32.45v22.5h-7V496Zm-10-9.94v32.44h-7V486.07Zm-22.5-29.84h2.61v6.94h-2.61Zm-3,9.94H1050v52.34H957.9V466.17h76.58Zm-24.24-9.94v6.94H977.8v-6.94h32.44Zm-5.6-3h-6.95v-16.9h6.95v16.9Zm65.29-26.85V429H1053v-2.61ZM1050,422v16.9h-42.39V422H1050Zm-19.89-5.61V419H983.4v-2.61h46.74Zm-46.74-9.94h7v6.94h-7ZM948,386.6h2.6v6.94H948ZM935,419h-7V406.49h7Zm3,0v-22.5H954.9V419Zm19.89,3V406.49h22.5v32.45H957.9V422Zm-3,14.29v2.61H923.72v-2.61Zm-34.18-3v5.61h-2.6V432h2.6Zm0-11.29V429H908.17V422h12.55Zm-9.94-3H898.22V412.1h12.56Zm0-22.5V409.1h-6.95V396.54Zm-9.95-9.94v22.5h-7V386.6Zm-10-3v25.5h-2.6V372.31h2.6Zm19.9-4.34h-2.61v-6.95h2.61Zm9.94-22.5v12.55h-6.94V356.76Zm-9.94-3v15.55h-22.5V352.42h0v-9.95h22.5Zm19.89-14.29H788.81V312.63H930.67v26.84Zm29.84-10H933.67V312.63h26.84Zm0-19.89H699.28V253H960.51v56.68Zm64-46.74v11.29h-9.94v5.61H993.35v-16.9h19.89V253h11.29v9.94Zm0,16.9h-6.94v-2.61h6.94Zm-14.29-19.9H993.35V253h16.89Zm-46.73,9.95V253h26.84v16.89H963.51Zm14.29,10v-7h12.55v7H977.8Zm22.5,29.84h-2.61V292.74h2.61Zm24.23-19.89H987.75v-6.95h36.78Zm5.61,0h-2.61V262.89h2.61Zm9.95-29.85h-12.56V253h12.56Zm0-42.39V250h-6.95V217.5Zm-9.95-9.95V250h-7v-42.4Zm-10-3V250H639.6v-112h380.59v66.63Zm10-14.28h-7v-7h7Zm39.79-10h-46.74v-42.4h46.74v42.4Zm10,0h-7v-6.95h7Zm-2.61,29.84v-2.61h6.94v2.61Zm12.55,10h-2.61v-7h2.61Zm4.34-10h-7v-22.5h7Zm5.61,0h-2.61V183.32h2.61Zm29.84-29.84h-32.45v-6.95h32.45Zm19.89-9.95h-76.57V128h76.57v42.39Zm10,0h-7V153.48h7Zm10-19.89h-16.9V137.92h16.9v12.56Zm9.94,10h-2.6v-7h2.6Zm10-10H1172.4v-2.61h16.89Z"/><path d="M1172.4,115h-18.56v8.61h18.56Zm-3,5.61h-12.56V118h12.56Z"/><path d="M754.63,118v-10h9.94v-10h29.84V85.19H756v9.94H746v10h-9.95v10h-9.94v8.61h28.5ZM759,88.19h32.44v6.94H759Zm-10,9.94h12.55v7H749Zm-9.95,10h12.56v7H739.07Zm12.56,12.56h-22.5V118h22.5Z"/><path d="M564.9,183.92h-8.61v19.89h-9.95v8.61H564.9Zm-3,25.5H549.34v-2.61h9.95V186.92h2.61Z"/><path d="M535.29,202.48h8.61V186.87h-8.61Zm3-12.61h2.61v9.61h-2.61Z"/></svg>