<svg width="194" height="90" viewBox="0 0 194 90" xmlns="http://www.w3.org/2000/svg" xmlns:xlink="http://www.w3.org/1999/xlink"><title>Page 1</title><defs><path id="a" d="M0 .396h47.5v55.667H0z"/><path id="c" d="M0 90.604h193.112V1H0z"/></defs><g transform="translate(.605 -.582)" fill="none" fill-rule="evenodd"><path d="M41.666 23.292h-5.5a5.5 5.5 0 0 0 0 11h5.5a5.5 5.5 0 0 0 0-11" fill="#F44B00"/><g transform="translate(0 .604)"><mask id="b" fill="#fff"><use xlink:href="#a"/></mask><path d="M47.5 5.896a5.5 5.5 0 0 0-5.5-5.5H20.5a5.5 5.5 0 0 0-5.5 5.5v16.792H5.5a5.5 5.5 0 0 0 0 11H15v16.875a5.5 5.5 0 0 0 11 0V11.396h16a5.5 5.5 0 0 0 5.5-5.5" fill="#F44B00" mask="url(#b)"/></g><mask id="d" fill="#fff"><use xlink:href="#c"/></mask><path d="M101.656 62.142h5.494V43.86h-5.494v18.282zm-.555-23.176a3.29 3.29 0 0 1 3.278-3.277 3.29 3.29 0 0 1 3.278 3.277 3.29 3.29 0 0 1-3.278 3.278 3.29 3.29 0 0 1-3.278-3.278zM93.023 53c0-2.723-1.847-4.477-4.34-4.477S84.344 50.23 84.344 53c0 2.725 1.846 4.479 4.339 4.479 2.493 0 4.34-1.754 4.34-4.48zm5.493-16.48v25.622h-5.493v-1.708c-1.2 1.385-3.001 2.216-5.448 2.216-4.801 0-8.725-4.202-8.725-9.65 0-5.447 3.97-9.648 8.725-9.648 2.447 0 4.248.83 5.448 2.216V36.52h5.493zM71.463 53c0-2.723-1.847-4.477-4.339-4.477-2.493 0-4.34 1.708-4.34 4.477 0 2.725 1.847 4.479 4.34 4.479 2.492 0 4.339-1.754 4.339-4.48zm5.494-9.14v18.282h-5.494v-1.708c-1.2 1.385-3 2.216-5.447 2.216-4.801 0-8.726-4.202-8.726-9.65 0-5.447 3.971-9.648 8.726-9.648 2.447 0 4.247.83 5.447 2.216V43.86h5.494zM49.904 53c0-2.723-1.847-4.477-4.34-4.477-2.492 0-4.339 1.708-4.339 4.477 0 2.725 1.847 4.479 4.339 4.479 2.493 0 4.34-1.754 4.34-4.48zm5.494-16.48v25.622h-5.494v-1.708c-1.2 1.385-3.001 2.216-5.448 2.216-4.801 0-8.725-4.202-8.725-9.65 0-5.447 3.97-9.648 8.725-9.648 2.447 0 4.248.83 5.448 2.216V36.52h5.494zM22.577 71.999h3.37v5.217h-3.37v12.88H17.13v-12.88h-2.401v-5.217h2.4c0-5.078 2.77-8.08 8.772-7.756v5.217c-1.985-.185-3.324.462-3.324 2.539M40.674 81.048c0-2.586-1.8-4.247-4.155-4.247-2.354 0-4.155 1.708-4.155 4.247 0 2.539 1.8 4.247 4.155 4.247 2.355 0 4.155-1.662 4.155-4.247zm-13.757 0c0-5.401 4.247-9.557 9.602-9.557 5.309 0 9.603 4.156 9.603 9.557 0 5.4-4.247 9.556-9.603 9.556-5.31 0-9.602-4.155-9.602-9.556zM65.372 71.999v18.097h-5.447v-1.708c-.97 1.339-2.77 2.215-5.17 2.215-3.648 0-6.74-2.584-6.74-7.478V71.999h5.446v10.295c0 2.262 1.432 3.278 3.14 3.278 1.985 0 3.37-1.154 3.37-3.74v-9.833h5.401zM85.316 78.97v11.08h-5.447V79.8c0-2.261-1.431-3.276-3.14-3.276-1.985 0-3.37 1.154-3.37 3.739v9.88h-5.447V71.999h5.447v1.708c.97-1.34 2.77-2.216 5.17-2.216 3.648 0 6.787 2.632 6.787 7.479zM101.705 81.048c0-2.724-1.801-4.433-4.293-4.433-2.494 0-4.294 1.709-4.294 4.433 0 2.724 1.8 4.432 4.294 4.432 2.492 0 4.293-1.708 4.293-4.432zm5.4-16.297V90.05h-5.446v-1.708c-1.201 1.385-2.955 2.216-5.402 2.216-4.755 0-8.633-4.156-8.633-9.557 0-5.401 3.924-9.556 8.633-9.556 2.4 0 4.2.832 5.402 2.216v-8.91h5.447zM123.31 81.048c0-2.724-1.8-4.433-4.293-4.433-2.494 0-4.294 1.709-4.294 4.433 0 2.724 1.8 4.432 4.294 4.432 2.492 0 4.293-1.708 4.293-4.432zm5.401-9.05v18.098h-5.447v-1.708c-1.2 1.385-2.955 2.216-5.402 2.216-4.755 0-8.633-4.155-8.633-9.556 0-5.401 3.924-9.557 8.633-9.557 2.401 0 4.201.83 5.402 2.216v-1.708h5.447zM139.56 77.216v6.417c0 1.569 1.34 1.708 3.74 1.569v4.94c-7.11.739-9.14-1.431-9.14-6.463v-6.463h-2.91v-5.217h2.91v-3.416l5.446-1.616v5.078h3.74v5.17h-3.786zM146.855 90.096h5.447V71.999h-5.447v18.097zm-.554-22.944c0-1.754 1.477-3.278 3.231-3.278 1.754 0 3.278 1.478 3.278 3.278 0 1.754-1.477 3.278-3.278 3.278-1.754 0-3.231-1.524-3.231-3.278zM168.137 81.048c0-2.586-1.801-4.247-4.155-4.247s-4.155 1.708-4.155 4.247c0 2.539 1.801 4.247 4.155 4.247s4.155-1.662 4.155-4.247m-13.711 0c0-5.401 4.247-9.557 9.602-9.557 5.309 0 9.603 4.156 9.603 9.557 0 5.4-4.247 9.556-9.603 9.556-5.355 0-9.602-4.155-9.602-9.556M193.113 78.97v11.08h-5.448V79.8c0-2.261-1.431-3.276-3.14-3.276-1.984 0-3.37 1.154-3.37 3.739v9.88h-5.446V71.999h5.447v1.708c.97-1.34 2.77-2.216 5.17-2.216 3.648 0 6.787 2.632 6.787 7.479" fill="#444547" mask="url(#d)"/></g></svg>