<svg height="234" viewBox="0 0 286 234" width="286" xmlns="http://www.w3.org/2000/svg" xmlns:xlink="http://www.w3.org/1999/xlink"><mask id="a" fill="#fff"><path d="m0 .514h141.945v166.347h-141.945z" fill="#fff" fill-rule="evenodd"/></mask><mask id="b" fill="#fff"><path d="m0 234.76h284.966v-233.547h-284.966z" fill="#fff" fill-rule="evenodd"/></mask><g fill="none" fill-rule="evenodd" transform="translate(.45 -.813)"><path d="m124.51 67.825h-16.434c-9.077 0-16.436 7.36-16.436 16.437 0 9.075 7.36 16.434 16.436 16.434h16.435c9.076 0 16.436-7.36 16.436-16.434 0-9.078-7.36-16.437-16.436-16.437" fill="#f44b00"/><path d="m141.945 16.95c0-9.076-7.36-16.436-16.436-16.436h-64.249c-9.076 0-16.436 7.36-16.436 16.437v50.176h-28.388c-9.076 0-16.436 7.359-16.436 16.436 0 9.075 7.36 16.437 16.436 16.437h28.388v50.427c0 9.076 7.36 16.435 16.436 16.435 9.077 0 16.436-7.359 16.436-16.435v-117.041h47.813c9.076 0 16.436-7.36 16.436-16.435" fill="#f44b00" mask="url(#a)" transform="translate(0 .699)"/><path d="m172 199.603h6.785v-22.581h-6.785zm-.684-28.626a4.065 4.065 0 0 1 4.048-4.048 4.064 4.064 0 0 1 4.048 4.048 4.063 4.063 0 0 1 -4.048 4.049 4.064 4.064 0 0 1 -4.048-4.049zm-9.98 17.335c0-3.364-2.28-5.53-5.36-5.53-3.078 0-5.36 2.11-5.36 5.53 0 3.365 2.282 5.532 5.36 5.532 3.08 0 5.36-2.167 5.36-5.532zm6.787-20.357v31.648h-6.787v-2.11c-1.482 1.711-3.706 2.737-6.728 2.737-5.93 0-10.777-5.19-10.777-11.918s4.903-11.918 10.777-11.918c3.022 0 5.246 1.027 6.728 2.738v-11.177zm-33.417 20.357c0-3.364-2.28-5.53-5.36-5.53s-5.36 2.11-5.36 5.53c0 3.365 2.28 5.532 5.36 5.532s5.36-2.167 5.36-5.532zm6.786-11.29v22.581h-6.786v-2.11c-1.482 1.711-3.706 2.737-6.728 2.737-5.93 0-10.778-5.19-10.778-11.918s4.905-11.918 10.778-11.918c3.022 0 5.246 1.027 6.728 2.738v-2.11zm-33.415 11.29c0-3.364-2.281-5.53-5.36-5.53-3.08 0-5.36 2.11-5.36 5.53 0 3.365 2.28 5.532 5.36 5.532 3.079 0 5.36-2.167 5.36-5.532zm6.785-20.357v31.648h-6.785v-2.11c-1.482 1.711-3.706 2.737-6.729 2.737-5.93 0-10.777-5.19-10.777-11.918s4.904-11.918 10.777-11.918c3.023 0 5.247 1.027 6.729 2.738v-11.177zm-40.539 43.825h4.162v6.443h-4.162v15.91h-6.728v-15.91h-2.967v-6.444h2.967c0-6.272 3.42-9.98 10.833-9.58v6.444c-2.452-.228-4.105.57-4.105 3.136m22.353 11.177c0-3.193-2.224-5.247-5.132-5.247s-5.133 2.11-5.133 5.247c0 3.136 2.225 5.246 5.133 5.246s5.132-2.053 5.132-5.246m-16.993 0c0-6.672 5.246-11.804 11.86-11.804 6.558 0 11.861 5.132 11.861 11.804 0 6.671-5.246 11.804-11.86 11.804-6.558 0-11.861-5.133-11.861-11.804m47.5-11.176v22.353h-6.728v-2.11c-1.198 1.654-3.421 2.737-6.386 2.737-4.506 0-8.326-3.195-8.326-9.238v-13.742h6.728v12.716c0 2.794 1.769 4.05 3.877 4.05 2.453 0 4.164-1.427 4.164-4.619v-12.147zm24.634 8.61v13.685h-6.728v-12.658c0-2.795-1.768-4.05-3.878-4.05-2.453 0-4.163 1.426-4.163 4.618v12.204h-6.728v-22.41h6.728v2.11c1.199-1.654 3.422-2.737 6.387-2.737 4.505 0 8.382 3.25 8.382 9.237m20.243 2.567c0-3.364-2.223-5.475-5.303-5.475s-5.303 2.11-5.303 5.475c0 3.364 2.224 5.474 5.303 5.474 3.08 0 5.303-2.11 5.303-5.474zm6.672-20.13v31.25h-6.729v-2.11c-1.483 1.71-3.649 2.738-6.671 2.738-5.873 0-10.664-5.134-10.664-11.805 0-6.672 4.848-11.804 10.664-11.804 2.965 0 5.188 1.026 6.671 2.737v-11.005h6.729zm20.015 20.13c0-3.364-2.224-5.475-5.303-5.475-3.08 0-5.303 2.11-5.303 5.475 0 3.364 2.224 5.474 5.303 5.474 3.08 0 5.303-2.11 5.303-5.474zm6.672-11.177v22.354h-6.729v-2.11c-1.483 1.71-3.649 2.737-6.671 2.737-5.873 0-10.664-5.133-10.664-11.804 0-6.672 4.848-11.804 10.664-11.804 2.964 0 5.188 1.026 6.671 2.736v-2.109zm13.401 6.444v7.926c0 1.939 1.654 2.11 4.619 1.939v6.101c-8.782.913-11.291-1.767-11.291-7.983v-7.983h-3.592v-6.443h3.592v-4.22l6.728-1.995v6.27h4.618v6.388h-4.675zm9.009 15.91h6.728v-22.354h-6.728zm-.684-28.341c0-2.167 1.825-4.048 3.99-4.048 2.168 0 4.05 1.825 4.05 4.048 0 2.167-1.825 4.048-4.05 4.048-2.165 0-3.99-1.881-3.99-4.048zm26.972 17.164c0-3.193-2.224-5.247-5.132-5.247s-5.133 2.11-5.133 5.247c0 3.136 2.225 5.246 5.133 5.246s5.132-2.053 5.132-5.246m-16.936 0c0-6.672 5.246-11.804 11.86-11.804 6.558 0 11.861 5.132 11.861 11.804 0 6.671-5.245 11.804-11.86 11.804s-11.861-5.133-11.861-11.804m47.785-2.566v13.685h-6.728v-12.658c0-2.795-1.768-4.05-3.878-4.05-2.452 0-4.162 1.426-4.162 4.618v12.204h-6.73v-22.41h6.73v2.11c1.197-1.654 3.42-2.737 6.386-2.737 4.505 0 8.382 3.25 8.382 9.237" fill="#fff" mask="url(#b)"/></g></svg>