<svg height="167" viewBox="0 0 142 167" width="142" xmlns="http://www.w3.org/2000/svg"><g fill="#f44b00" fill-rule="evenodd"><path d="m141.944705 16.9505095c0-9.07623388-7.36019-16.43642405-16.435211-16.43642405h-64.2491602c-9.0762338 0-16.436424 7.36019017-16.436424 16.43642405v50.1763894h-28.3880922c-9.07623381 0-16.43521122 7.3589775-16.43521122 16.436424 0 9.0750211 7.35897741 16.4352113 16.43521122 16.4352113h28.3880922v50.4274288c0 9.076234 7.3601902 16.435212 16.436424 16.435212s16.4352112-7.358978 16.4352112-16.435212v-117.0402423h47.813949c9.075021 0 16.435211-7.3601902 16.435211-16.4352112"/><path d="m124.510793 67.1268989h-16.435211c-9.0762339 0-16.4352113 7.3589775-16.4352113 16.436424 0 9.0750211 7.3589774 16.4339985 16.4352113 16.4339985h16.435211c9.076234 0 16.436424-7.3589774 16.436424-16.4339985 0-9.0774465-7.36019-16.436424-16.436424-16.436424"/></g></svg>